<?xml version="1.0" encoding="UTF-8"?><svg id="a" xmlns="http://www.w3.org/2000/svg" viewBox="0 0 138 138"><path d="M96.11,22l2.6-.06c1.88-.04,4.01.56,6.28,1.87,7.53,4.35,13.64,14.93,13.64,23.62,0,2.63-.55,4.77-1.53,6.38l-17.19,28.23h0s-21.66,35.56-21.66,35.56c2.68-4.69,4.18-10.86,4.18-18.29,0-25.81-18.12-57.18-40.47-70.08-6.49-3.75-12.64-5.53-18.08-5.53h0s72.23-1.7,72.23-1.7Z" style="fill:#fff; stroke:#023452; stroke-linejoin:round; stroke-width:2px;"/><path d="M106.98,93.37c-1.31,1.05-2.6,1.33-3.62.92-1.02-.4-1.78-1.48-2.04-3.12l-.14-.88,4.69-3.77c2.26-1.82,4.39-4.24,6.22-7.06,2.07-3.2,3.14-6.93,3.1-10.74l-.15-11.55.71-1.15,5.38-1.8.33,1,.2,16.03c.05,3.59-.87,7.16-2.77,10.21-1.9,3.04-4.13,5.65-6.53,7.57l-5.38,4.32Z" style="fill:#355d75; stroke:#023452; stroke-linejoin:round; stroke-width:2px;"/><path d="M101.32,91.17c.26,1.64,1.01,2.71,2.04,3.12h0s-6.47-2.51-6.47-2.51c-.76-.3-1.37-.94-1.73-1.93l4.75-7.81,1.42,9.13Z" style="fill:#023452; stroke:#023452; stroke-linejoin:round; stroke-width:2px;"/><path d="M104.99,23.81c-2.27-1.31-4.41-1.91-6.28-1.87l-2.6.06,11.51-10.2c2.96-2.63,7.55-2.75,12.71.23,8.94,5.15,16.18,17.7,16.18,28.02,0,5.96-2.41,9.86-6.17,11.12l-14.58,4.87,1.35-2.22c.98-1.61,1.53-3.76,1.53-6.38,0-8.69-6.11-19.28-13.64-23.62Z" style="fill:#678597; stroke:#023452; stroke-linejoin:round; stroke-width:2px;"/><path d="M82.43,99.31c0,7.44-1.5,13.6-4.18,18.29l-.36.61c-6.74,11.08-20.3,13.47-35.93,4.46C19.62,109.76,1.5,78.39,1.5,52.58c0-18.3,9.12-28.88,22.38-28.88,5.44,0,11.59,1.78,18.08,5.53,22.35,12.9,40.47,44.28,40.47,70.08ZM43.89,114.46c17.89,11.56,31.54,3.68,30.48-17.59-.36-7.2-2.36-15.01-5.54-22.64-2.81-6.76-6.56-13.38-10.91-19.3-5.25-7.16-11.4-13.32-17.88-17.51-17.89-11.56-31.54-3.68-30.48,17.59,1.06,21.27,16.43,47.88,34.32,59.44Z" style="fill:#678597; stroke:#023452; stroke-linejoin:round; stroke-width:2px;"/><path d="M74.36,96.87c1.06,21.27-12.59,29.15-30.48,17.59S10.63,76.29,9.56,55.02c-1.06-21.27,12.59-29.15,30.48-17.59,6.48,4.19,12.63,10.35,17.88,17.51l-19.22,15.28c-2.88,2.29-3.73,6.4-1.84,9.69,1.9,3.27,5.88,4.6,9.3,3.26l22.66-8.93c3.18,7.63,5.17,15.44,5.54,22.64Z" style="fill:#023452; stroke:#023452; stroke-linejoin:round;"/><path d="M68.83,74.23l-22.66,8.93c-3.42,1.35-7.41.02-9.3-3.26-1.89-3.28-1.04-7.4,1.84-9.69l19.22-15.28c4.35,5.92,8.09,12.54,10.91,19.3Z" style="fill:#f47d20; stroke:#023452; stroke-linejoin:round; stroke-width:2px;"/><path d="M77.89,118.21c-6.74,11.08-20.3,13.47-35.93,4.46C19.62,109.76,1.5,78.39,1.5,52.58c0-18.3,9.12-28.88,22.38-28.88,5.44,0,11.59,1.78,18.08,5.53,22.35,12.9,40.47,44.28,40.47,70.08,0,7.44-1.5,13.6-4.18,18.29" style="fill:none; stroke:#023452; stroke-linecap:round; stroke-linejoin:round; stroke-width:2px;"/><path d="M68.83,74.23c3.18,7.63,5.17,15.44,5.54,22.64,1.06,21.27-12.59,29.15-30.48,17.59S10.63,76.29,9.56,55.02c-1.06-21.27,12.59-29.15,30.48-17.59,6.48,4.19,12.63,10.35,17.88,17.51,4.35,5.92,8.09,12.54,10.91,19.3Z" style="fill:none; stroke:#023452; stroke-linecap:round; stroke-linejoin:round; stroke-width:2px;"/><path d="M115.75,56.03l14.58-4.87c3.76-1.26,6.17-5.16,6.17-11.12,0-10.32-7.24-22.87-16.18-28.02-5.15-2.98-9.75-2.85-12.71-.23l-11.52,10.21" style="fill:none; stroke:#023452; stroke-linecap:round; stroke-linejoin:round; stroke-width:2px;"/><path d="M99.91,82.04l17.19-28.23c.98-1.61,1.53-3.76,1.53-6.38,0-8.69-6.11-19.28-13.64-23.62-2.27-1.31-4.41-1.91-6.28-1.87l-75.39,1.76" style="fill:none; stroke:#023452; stroke-linecap:round; stroke-linejoin:round; stroke-width:2px;"/><line x1="77.89" y1="118.21" x2="99.91" y2="82.05" style="fill:none; stroke:#023452; stroke-linecap:round; stroke-linejoin:round; stroke-width:2px;"/><path d="M68.83,74.23l-22.66,8.93c-3.42,1.35-7.41.02-9.3-3.26-1.89-3.28-1.04-7.4,1.84-9.69l19.22-15.28" style="fill:none; stroke:#023452; stroke-linecap:round; stroke-linejoin:round; stroke-width:2px;"/><path d="M101.18,90.3l4.69-3.77c2.26-1.82,4.39-4.24,6.22-7.06,2.07-3.2,3.14-6.93,3.1-10.74l-.15-11.55" style="fill:none; stroke:#023452; stroke-linecap:round; stroke-linejoin:round; stroke-width:2px;"/><path d="M99.91,82.04h0s1.42,9.14,1.42,9.14c.26,1.64,1.01,2.71,2.04,3.12,1.02.4,2.31.13,3.62-.92l5.38-4.32c2.4-1.93,4.63-4.53,6.53-7.57,1.91-3.05,2.82-6.62,2.77-10.21l-.2-16.03" style="fill:none; stroke:#023452; stroke-linecap:round; stroke-linejoin:round; stroke-width:2px;"/><path d="M95.16,89.86c.36.98.97,1.63,1.73,1.93l6.47,2.52" style="fill:none; stroke:#023452; stroke-linecap:round; stroke-linejoin:round; stroke-width:2px;"/></svg>