<?xml version="1.0" encoding="UTF-8"?><svg id="a" xmlns="http://www.w3.org/2000/svg" viewBox="0 0 138 138"><path d="M43.17,67.03v9.19c0,1.66-1.1,3.32-3.3,4.59-4.39,2.54-11.52,2.54-15.91,0-2.2-1.27-3.3-2.93-3.3-4.59v-9.19c0,1.66,1.1,3.32,3.3,4.59,4.4,2.54,11.52,2.54,15.91,0,2.2-1.27,3.3-2.93,3.3-4.59Z" style="fill:#fff; stroke:#023452; stroke-linejoin:round; stroke-width:2px;"/><path d="M43.17,57.83v9.2c0,1.66-1.1,3.32-3.3,4.59-4.39,2.54-11.52,2.54-15.91,0-2.2-1.27-3.3-2.93-3.3-4.59v-9.2c0,1.67,1.1,3.33,3.3,4.6,4.4,2.54,11.52,2.54,15.91,0,2.2-1.27,3.3-2.93,3.3-4.6Z" style="fill:#678597; stroke:#023452; stroke-linejoin:round; stroke-width:2px;"/><path d="M43.17,48.63v9.2c0,1.67-1.1,3.33-3.3,4.6-4.39,2.54-11.52,2.54-15.91,0-2.2-1.27-3.3-2.93-3.3-4.6v-9.2c0,1.67,1.1,3.33,3.3,4.59,4.4,2.54,11.52,2.54,15.91,0,2.2-1.26,3.3-2.93,3.3-4.59Z" style="fill:#678597; stroke:#023452; stroke-linejoin:round; stroke-width:2px;"/><path d="M43.17,39.44v9.19c0,1.67-1.1,3.33-3.3,4.59-4.39,2.54-11.52,2.54-15.91,0-2.2-1.26-3.3-2.93-3.3-4.59v-9.19c0,1.66,1.1,3.32,3.3,4.59,4.4,2.53,11.52,2.53,15.91,0,2.2-1.27,3.3-2.93,3.3-4.59Z" style="fill:#678597; stroke:#023452; stroke-linejoin:round; stroke-width:2px;"/><path d="M43.17,30.24v9.2c0,1.66-1.1,3.32-3.3,4.59-4.39,2.53-11.52,2.53-15.91,0-2.2-1.27-3.3-2.93-3.3-4.59v-9.2c0,1.67,1.1,3.33,3.3,4.6,4.4,2.54,11.52,2.54,15.91,0,2.2-1.27,3.3-2.93,3.3-4.6Z" style="fill:#678597; stroke:#023452; stroke-linejoin:round; stroke-width:2px;"/><path d="M43.17,21.04v9.19c0,1.67-1.1,3.33-3.3,4.6-4.39,2.54-11.52,2.54-15.91,0-2.2-1.27-3.3-2.93-3.3-4.6v-9.19c0,1.66,1.1,3.32,3.3,4.59,4.4,2.53,11.52,2.53,15.91,0,2.2-1.27,3.3-2.93,3.3-4.59Z" style="fill:#678597; stroke:#023452; stroke-linejoin:round; stroke-width:2px;"/><path d="M43.17,14.87v6.18c0,1.66-1.1,3.32-3.3,4.59-4.39,2.53-11.52,2.53-15.91,0-2.2-1.27-3.3-2.93-3.3-4.59v-9.06c0,1.66,1.1,3.32,3.3,4.59,4.4,2.53,11.52,2.53,15.91,0,2.2-1.27,3.3-2.93,3.3-4.59v2.89Z" style="fill:#678597; stroke:#023452; stroke-linejoin:round; stroke-width:2px;"/><path d="M39.87,7.38c2.2,1.27,3.3,2.93,3.3,4.59s-1.1,3.32-3.3,4.59c-4.39,2.53-11.52,2.53-15.91,0-2.2-1.27-3.3-2.93-3.3-4.59s1.1-3.32,3.3-4.59c4.4-2.53,11.52-2.53,15.91,0Z" style="fill:#fff; stroke:#023452; stroke-linejoin:round;"/><path d="M43.17,11.98c0,1.66-1.1,3.32-3.3,4.59-4.39,2.53-11.52,2.53-15.91,0-2.2-1.27-3.3-2.93-3.3-4.59s1.1-3.32,3.3-4.59c4.4-2.53,11.52-2.53,15.91,0,2.2,1.27,3.3,2.93,3.3,4.59Z" style="fill:none; stroke:#023452; stroke-linecap:round; stroke-linejoin:round; stroke-width:2px;"/><line x1="20.66" y1="76.22" x2="20.66" y2="11.98" style="fill:none; stroke:#023452; stroke-linecap:round; stroke-linejoin:round; stroke-width:2px;"/><path d="M43.17,76.22c0,1.66-1.1,3.32-3.3,4.59-4.39,2.54-11.52,2.54-15.91,0-2.2-1.27-3.3-2.93-3.3-4.59" style="fill:none; stroke:#023452; stroke-linecap:round; stroke-linejoin:round; stroke-width:2px;"/><path d="M43.17,21.04c0,1.66-1.1,3.32-3.3,4.59-4.39,2.53-11.52,2.53-15.91,0-2.2-1.27-3.3-2.93-3.3-4.59" style="fill:none; stroke:#023452; stroke-linecap:round; stroke-linejoin:round; stroke-width:2px;"/><path d="M43.17,30.24c0,1.67-1.1,3.33-3.3,4.6-4.39,2.54-11.52,2.54-15.91,0-2.2-1.27-3.3-2.93-3.3-4.6" style="fill:none; stroke:#023452; stroke-linecap:round; stroke-linejoin:round; stroke-width:2px;"/><path d="M43.17,39.44c0,1.66-1.1,3.32-3.3,4.59-4.39,2.53-11.52,2.53-15.91,0-2.2-1.27-3.3-2.93-3.3-4.59" style="fill:none; stroke:#023452; stroke-linecap:round; stroke-linejoin:round; stroke-width:2px;"/><path d="M43.17,48.63c0,1.67-1.1,3.33-3.3,4.59-4.39,2.54-11.52,2.54-15.91,0-2.2-1.26-3.3-2.93-3.3-4.59" style="fill:none; stroke:#023452; stroke-linecap:round; stroke-linejoin:round; stroke-width:2px;"/><path d="M43.17,57.83c0,1.67-1.1,3.33-3.3,4.6-4.39,2.54-11.52,2.54-15.91,0-2.2-1.27-3.3-2.93-3.3-4.6" style="fill:none; stroke:#023452; stroke-linecap:round; stroke-linejoin:round; stroke-width:2px;"/><path d="M43.17,67.03c0,1.66-1.1,3.32-3.3,4.59-4.39,2.54-11.52,2.54-15.91,0-2.2-1.27-3.3-2.93-3.3-4.59" style="fill:none; stroke:#023452; stroke-linecap:round; stroke-linejoin:round; stroke-width:2px;"/><line x1="43.17" y1="11.98" x2="43.17" y2="76.22" style="fill:none; stroke:#023452; stroke-linecap:round; stroke-linejoin:round; stroke-width:2px;"/><polygon points="1.5 96.04 1.5 105.18 48.85 132.52 48.85 123.37 1.5 96.04" style="fill:#fff; stroke:#023452; stroke-linejoin:round; stroke-width:2px;"/><polygon points="1.5 87.17 1.5 96.04 48.85 123.37 48.85 114.51 1.5 87.17" style="fill:#fff; stroke:#023452; stroke-linejoin:round; stroke-width:2px;"/><polygon points="1.5 77.96 1.5 87.17 48.85 114.51 48.85 105.3 1.5 77.96" style="fill:#fff; stroke:#023452; stroke-linejoin:round; stroke-width:2px;"/><path d="M1.5,77.96l47.35,27.34,87.65-50.59-47.36-27.34L1.5,77.96ZM57.7,72.85c-6.24-3.59-6.24-9.44,0-13.04,6.24-3.6,16.36-3.6,22.6,0,6.24,3.59,6.24,9.44,0,13.04-6.24,3.61-16.35,3.61-22.6,0Z" style="fill:#fff; stroke:#023452; stroke-linejoin:round; stroke-width:2px;"/><polygon points="48.85 123.37 48.85 132.52 136.5 81.92 136.5 72.78 48.85 123.37" style="fill:#678597; stroke:#023452; stroke-linejoin:round; stroke-width:2px;"/><polygon points="48.85 114.51 48.85 123.37 136.5 72.78 136.5 63.91 48.85 114.51" style="fill:#678597; stroke:#023452; stroke-linejoin:round; stroke-width:2px;"/><polygon points="48.85 105.3 48.85 114.51 136.5 63.91 136.5 54.71 48.85 105.3" style="fill:#678597; stroke:#023452; stroke-linejoin:round; stroke-width:2px;"/><path d="M57.7,59.81c-6.24,3.59-6.24,9.44,0,13.04,6.24,3.61,16.36,3.61,22.6,0,6.24-3.59,6.24-9.44,0-13.04-6.24-3.6-16.35-3.6-22.6,0Z" style="fill:#f47d20; stroke:#023452; stroke-linejoin:round; stroke-width:2px;"/><polyline points="99.16 41.95 89.14 36.16 78.93 42.06" style="fill:none; stroke:#023452; stroke-linecap:round; stroke-linejoin:round; stroke-width:2px;"/><polyline points="111.24 48.92 121.26 54.71 111.05 60.6" style="fill:none; stroke:#023452; stroke-linecap:round; stroke-linejoin:round; stroke-width:2px;"/><polyline points="26.89 72.1 16.73 77.96 26.75 83.75" style="fill:none; stroke:#023452; stroke-linecap:round; stroke-linejoin:round; stroke-width:2px;"/><polyline points="59.01 90.64 48.85 96.51 38.83 90.72" style="fill:none; stroke:#023452; stroke-linecap:round; stroke-linejoin:round; stroke-width:2px;"/><path d="M57.7,72.85c-6.24-3.59-6.24-9.44,0-13.04,6.24-3.6,16.36-3.6,22.6,0,6.24,3.59,6.24,9.44,0,13.04-6.24,3.61-16.35,3.61-22.6,0Z" style="fill:none; stroke:#023452; stroke-linecap:round; stroke-linejoin:round; stroke-width:2px;"/><polygon points="48.85 105.3 136.5 54.71 89.14 27.36 1.5 77.96 48.85 105.3" style="fill:none; stroke:#023452; stroke-linecap:round; stroke-linejoin:round; stroke-width:2px;"/><polyline points="136.5 54.71 136.5 81.92 48.85 132.52 1.5 105.18 1.5 77.96" style="fill:none; stroke:#023452; stroke-linecap:round; stroke-linejoin:round; stroke-width:2px;"/><polyline points="136.5 72.78 48.85 123.37 1.5 96.04" style="fill:none; stroke:#023452; stroke-linecap:round; stroke-linejoin:round; stroke-width:2px;"/><polyline points="136.5 63.91 48.85 114.51 1.5 87.17" style="fill:none; stroke:#023452; stroke-linecap:round; stroke-linejoin:round; stroke-width:2px;"/><line x1="48.85" y1="105.3" x2="48.85" y2="132.52" style="fill:none; stroke:#023452; stroke-linecap:round; stroke-linejoin:round; stroke-width:2px;"/><path d="M127.75,90.05v9.19c0,1.67-1.1,3.33-3.3,4.59-4.39,2.54-11.52,2.54-15.91,0-2.2-1.26-3.3-2.93-3.3-4.59v-9.19c0,1.66,1.1,3.32,3.3,4.59,4.4,2.53,11.52,2.53,15.91,0,2.2-1.27,3.3-2.93,3.3-4.59Z" style="fill:#fff; stroke:#023452; stroke-linejoin:round; stroke-width:2px;"/><path d="M127.75,80.85v9.2c0,1.66-1.1,3.32-3.3,4.59-4.39,2.53-11.52,2.53-15.91,0-2.2-1.27-3.3-2.93-3.3-4.59v-9.2c0,1.67,1.1,3.33,3.3,4.6,4.4,2.54,11.52,2.54,15.91,0,2.2-1.27,3.3-2.93,3.3-4.6Z" style="fill:#fff; stroke:#023452; stroke-linejoin:round; stroke-width:2px;"/><path d="M127.75,71.66v9.19c0,1.67-1.1,3.33-3.3,4.6-4.39,2.54-11.52,2.54-15.91,0-2.2-1.27-3.3-2.93-3.3-4.6v-9.19c0,1.66,1.1,3.32,3.3,4.59,4.4,2.53,11.52,2.53,15.91,0,2.2-1.27,3.3-2.93,3.3-4.59Z" style="fill:#fff; stroke:#023452; stroke-linejoin:round; stroke-width:2px;"/><path d="M127.75,65.48v6.18c0,1.66-1.1,3.32-3.3,4.59-4.39,2.53-11.52,2.53-15.91,0-2.2-1.27-3.3-2.93-3.3-4.59v-9.06c0,1.66,1.1,3.32,3.3,4.59,4.4,2.53,11.52,2.53,15.91,0,2.2-1.27,3.3-2.93,3.3-4.59v2.89Z" style="fill:#fff; stroke:#023452; stroke-linejoin:round; stroke-width:2px;"/><path d="M124.45,58c2.2,1.27,3.3,2.93,3.3,4.59s-1.1,3.32-3.3,4.59c-4.39,2.53-11.52,2.53-15.91,0-2.2-1.27-3.3-2.93-3.3-4.59s1.1-3.32,3.3-4.59c4.4-2.53,11.52-2.53,15.91,0Z" style="fill:#fff; stroke:#023452; stroke-linejoin:round; stroke-width:2px;"/><path d="M127.75,62.59c0,1.66-1.1,3.32-3.3,4.59-4.39,2.53-11.52,2.53-15.91,0-2.2-1.27-3.3-2.93-3.3-4.59s1.1-3.32,3.3-4.59c4.4-2.53,11.52-2.53,15.91,0,2.2,1.27,3.3,2.93,3.3,4.59Z" style="fill:none; stroke:#023452; stroke-linecap:round; stroke-linejoin:round; stroke-width:2px;"/><path d="M127.75,71.66c0,1.66-1.1,3.32-3.3,4.59-4.39,2.53-11.52,2.53-15.91,0-2.2-1.27-3.3-2.93-3.3-4.59" style="fill:none; stroke:#023452; stroke-linecap:round; stroke-linejoin:round; stroke-width:2px;"/><path d="M127.75,80.85c0,1.67-1.1,3.33-3.3,4.6-4.39,2.54-11.52,2.54-15.91,0-2.2-1.27-3.3-2.93-3.3-4.6" style="fill:none; stroke:#023452; stroke-linecap:round; stroke-linejoin:round; stroke-width:2px;"/><path d="M127.75,90.05c0,1.66-1.1,3.32-3.3,4.59-4.39,2.53-11.52,2.53-15.91,0-2.2-1.27-3.3-2.93-3.3-4.59" style="fill:none; stroke:#023452; stroke-linecap:round; stroke-linejoin:round; stroke-width:2px;"/><path d="M127.75,62.59v36.65c0,1.67-1.1,3.33-3.3,4.59-4.39,2.54-11.52,2.54-15.91,0-2.2-1.26-3.3-2.93-3.3-4.59v-36.65" style="fill:none; stroke:#023452; stroke-linecap:round; stroke-linejoin:round; stroke-width:2px;"/></svg>