<?xml version="1.0" encoding="UTF-8"?><svg id="a" xmlns="http://www.w3.org/2000/svg" xmlns:xlink="http://www.w3.org/1999/xlink" viewBox="0 0 138 138"><defs><clipPath id="b"><path d="M67.25,34.49c1.14.65,2.96.62,4.07-.04,1.11-.66,1.08-1.73-.06-2.36-1.14-.65-2.96-.62-4.07.04-1.11.66-1.08,1.73.06,2.36" style="fill:none; stroke:#023452; stroke-linejoin:round; stroke-width:2px;"/></clipPath></defs><path d="M52.91,109.6c8.77-5.25,23.21-5.39,32.23-.32,9.03,5.07,9.22,13.42.46,18.67-8.77,5.25-23.21,5.39-32.23.32-9.03-5.07-9.22-13.42-.46-18.67Z" style="fill:#c2ced6; stroke:#023452; stroke-linejoin:round; stroke-width:2px;"/><path d="M92.04,118.71c0,3.33-2.13,6.65-6.44,9.24-8.77,5.25-23.21,5.39-32.23.32-4.59-2.57-6.89-5.99-6.91-9.43v4.52c.03,3.44,2.33,6.87,6.92,9.43,9.03,5.07,23.46,4.91,32.23-.32,4.31-2.58,6.46-5.91,6.44-9.24v-4.52h-.01Z" style="fill:#023452; stroke:#023452; stroke-linejoin:round; stroke-width:2px;"/><g style="isolation:isolate;"><g style="clip-path:url(#b);"><g style="isolation:isolate;"><path d="M67.25,34.49l2.01-1.14-1.39-1.52c-.24.08-.46.18-.67.29-1.11.66-1.08,1.73.06,2.36h0Z" style="fill:#595048; stroke:#023452; stroke-linejoin:round; stroke-width:2px;"/><path d="M67.87,31.84l1.39,1.52,2.79.35c.25-.56,0-1.18-.79-1.61-.93-.52-2.32-.6-3.4-.25h0Z" style="fill:#5b5249; stroke:#023452; stroke-linejoin:round; stroke-width:2px;"/><path d="M72.05,33.7l-2.79-.35-2.01,1.14c1.14.65,2.96.62,4.07-.04.37-.21.6-.48.73-.74h0Z" style="fill:#595048; stroke:#023452; stroke-linejoin:round; stroke-width:2px;"/></g></g><path d="M67.25,34.49c1.14.65,2.96.62,4.07-.04,1.11-.66,1.08-1.73-.06-2.36-1.14-.65-2.96-.62-4.07.04-1.11.66-1.08,1.73.06,2.36" style="fill:none; stroke:#023452; stroke-linejoin:round; stroke-width:2px;"/></g><path d="M72.13,33.28c0,.42-.27.84-.81,1.17-1.11.66-2.93.69-4.07.04-.58-.32-.87-.76-.87-1.19l.13,84.59c0,.44.29.87.87,1.19,1.14.65,2.96.62,4.07-.04.55-.32.81-.74.81-1.17l-.13-84.59Z" style="fill:#678597; stroke:#023452; stroke-linejoin:round;"/><path d="M16.65,67.36c-8.92-4.97-9.21-13.18-.66-18.32,8.55-5.15,22.72-5.29,31.63-.32,8.92,4.97,9.21,13.18.66,18.32-8.55,5.15-22.72,5.29-31.63.32Z" style="fill:#fbcba6; stroke:#023452; stroke-linejoin:round; stroke-width:2px;"/><path d="M47.27,69.48c8.03-4.83,7.75-12.52-.62-17.2-8.37-4.66-21.65-4.53-29.68.29-8.03,4.83-7.75,12.52.62,17.2,8.37,4.66,21.65,4.53,29.68-.29Z" style="fill:#fde5d2; stroke:#023452; stroke-linejoin:round; stroke-width:2px;"/><path d="M11.15,57.98v3c0-3.02,1.94-6.04,5.84-8.38,8.03-4.83,21.31-4.97,29.68-.29,4.31,2.4,6.47,5.6,6.46,8.8v-3c.01-3.2-2.15-6.4-6.44-8.8-8.37-4.66-21.65-4.53-29.68.29-3.89,2.34-5.84,5.36-5.84,8.38h-.01Z" style="fill:#f47d20; stroke:#023452; stroke-linejoin:round; stroke-width:2px;"/><path d="M54.49,58.6v4.12c0,3.21-2.13,6.42-6.23,8.91v.02c-8.55,5.16-22.71,5.3-31.63.33-4.59-2.57-6.91-5.98-6.88-9.4v-4.12h.01c-.01,3.41,2.29,6.83,6.88,9.39,8.9,4.96,23.01,4.83,31.56-.28.02-.01.04-.03.06-.04,4.11-2.49,6.23-5.74,6.23-8.93Z" style="fill:#f6974d; stroke:#023452; stroke-linejoin:round; stroke-width:2px;"/><path d="M32.12,45.72c.18,0,.32-.14.32-.32V10.52c0-.18-.14-.32-.32-.32s-.32.14-.32.32v34.87c0,.18.14.32.32.32Z" style="fill:#023452; stroke:#023452; stroke-linejoin:round; stroke-width:2px;"/><path d="M10.42,58.29c.13,0,.24-.07.29-.18L32.43,10.66c.07-.15,0-.35-.15-.42s-.35,0-.42.15L10.13,57.84c-.07.15,0,.35.15.42.04.01.08.03.13.03h0Z" style="fill:#023452; stroke:#023452; stroke-linejoin:round; stroke-width:2px;"/><path d="M53.84,58.29s.08,0,.13-.03c.15-.07.24-.27.15-.42L32.4,10.4c-.07-.15-.27-.22-.42-.15s-.24.27-.15.42l21.72,47.44c.06.11.17.18.29.18Z" style="fill:#023452; stroke:#023452; stroke-linejoin:round; stroke-width:2px;"/><path d="M89.16,113.51c-9.36-5.22-9.67-13.84-.69-19.24,8.98-5.41,23.85-5.56,33.21-.34,9.36,5.22,9.67,13.84.69,19.24-8.98,5.41-23.85,5.56-33.21.34Z" style="fill:#fbcba6; stroke:#023452; stroke-linejoin:round; stroke-width:2px;"/><path d="M121.31,115.73c8.43-5.07,8.14-13.15-.65-18.06-8.79-4.89-22.73-4.76-31.16.31-8.43,5.07-8.14,13.15.65,18.06,8.79,4.89,22.73,4.76,31.16-.31Z" style="fill:#fde5d2; stroke:#023452; stroke-linejoin:round; stroke-width:2px;"/><path d="M83.38,103.66v3.15c0-3.17,2.03-6.34,6.13-8.8,8.43-5.07,22.38-5.22,31.16-.31,4.53,2.52,6.8,5.88,6.78,9.24v-3.15c.01-3.36-2.26-6.72-6.77-9.24-8.79-4.89-22.73-4.76-31.16.31-4.08,2.46-6.13,5.63-6.13,8.8h-.01Z" style="fill:#f47d20; stroke:#023452; stroke-linejoin:round; stroke-width:2px;"/><path d="M128.89,104.31v4.33c-.01,3.37-2.24,6.74-6.54,9.35v.02c-8.98,5.42-23.84,5.56-33.21.35-4.82-2.7-7.25-6.28-7.22-9.87v-4.33h.01c-.01,3.58,2.4,7.17,7.22,9.86,9.34,5.21,24.16,5.07,33.14-.29.02-.01.04-.03.06-.04,4.32-2.61,6.54-6.03,6.54-9.38Z" style="fill:#f6974d; stroke:#023452; stroke-linejoin:round; stroke-width:2px;"/><path d="M105.41,90.79c.19,0,.34-.15.34-.34v-36.62c0-.19-.15-.34-.34-.34s-.34.15-.34.34v36.62c0,.19.15.34.34.34Z" style="fill:#023452; stroke:#023452; stroke-linejoin:round; stroke-width:2px;"/><path d="M82.62,103.98c.13,0,.25-.07.31-.19l22.8-49.81c.07-.16,0-.37-.16-.44s-.37,0-.44.16l-22.8,49.81c-.07.16,0,.37.16.44.04.01.09.03.13.03h0Z" style="fill:#023452; stroke:#023452; stroke-linejoin:round; stroke-width:2px;"/><path d="M128.21,103.98s.09,0,.13-.03c.16-.07.25-.28.16-.44l-22.8-49.81c-.07-.16-.28-.24-.44-.16s-.25.28-.16.44l22.8,49.81c.06.12.18.19.31.19Z" style="fill:#023452; stroke:#023452; stroke-linejoin:round; stroke-width:2px;"/><path d="M34.13,7.34c.21.63.34,1.26.32,1.87,0,.6-.13,1.1-.34,1.49l68.41,39.49c-.21-.63-.34-1.26-.32-1.87,0-.6.13-1.1.34-1.49L34.13,7.34h0Z" style="fill:#678597; stroke:#023452; stroke-linejoin:round;"/><polygon points="102.54 46.84 104.52 45.69 36.11 6.2 34.13 7.34 102.54 46.84" style="fill:#678597; stroke:#023452; stroke-linejoin:round;"/><path d="M74.18,26.04l-6.45-3.75c.19-.1.36-.11.48-.04l6.45,3.74c-.13-.07-.3-.07-.48.05Z" style="fill:#023452;"/><path d="M74.88,34.92c0,.42-.29.96-.67,1.17l-2.95,1.69v.02l-.51.3c-.25.14-.45.11-.57-.03.02.03.05.05.08.07l-6.44-3.75c-.13-.07-.2-.22-.2-.44l-.03-8.48h0c0-.44.3-.95.68-1.16l3.46-2.01,6.45,3.75c.36-.21.67-.04.67.38l.03,8.49Z" style="fill:#023452;"/><path d="M111.44,50.68c0,1.04-.37,1.78-.97,2.13l-.38.22-.02.02c-.61.48-1.53.49-2.56-.11-1.84-1.07-3.33-3.64-3.33-5.76,0-1.05.37-1.8.97-2.14.04-.02.08-.05.13-.07l.47-.29c.61-.35,1.44-.28,2.37.25h0c1.84,1.07,3.32,3.63,3.32,5.75Z" style="fill:#023452; stroke:#023452; stroke-linejoin:round; stroke-width:2px;"/><path d="M110.27,52.84s0,0,0,0c0,0,0,0,0,0Z" style="fill:#355d75; stroke:#023452; stroke-linejoin:round; stroke-width:2px;"/><path d="M110.85,51.03c0,1.05-.37,1.78-.97,2.13l-1.98,1.16c.12-.07.22-.15.32-.26-.62.6-1.6.66-2.71.02-1.31-.76-2.45-2.3-2.98-3.88h-.01c-.2-.61-.32-1.21-.32-1.8v-.08c0-.6.13-1.11.34-1.49.17-.3.4-.51.68-.66-.02.01-.04.01-.05.02l1.98-1.15c.6-.36,1.45-.3,2.37.23,1.84,1.07,3.33,3.64,3.33,5.76Z" style="fill:#355d75;"/><path d="M108.27,52.53c0,2.11-1.51,2.96-3.34,1.9-1.84-1.07-3.33-3.64-3.33-5.76,0-1.06.38-1.8.99-2.14.6-.34,1.43-.29,2.35.25,1.84,1.06,3.32,3.63,3.33,5.75Z" style="fill:#023452; stroke:#023452; stroke-linejoin:round; stroke-width:2px;"/><path d="M36.18,7.97c0,.86-.3,1.46-.8,1.75l-.31.18-.02.02c-.5.39-1.26.4-2.11-.09-1.51-.88-2.74-2.99-2.74-4.74,0-.86.3-1.48.8-1.76.03-.02.07-.04.11-.06l.39-.24c.5-.29,1.18-.23,1.95.21h0c1.51.88,2.73,2.99,2.73,4.73Z" style="fill:#023452; stroke:#023452; stroke-linejoin:round; stroke-width:2px;"/><path d="M35.22,9.74s0,0,0,0c0,0,0,0,0,0Z" style="fill:#355d75; stroke:#023452; stroke-linejoin:round; stroke-width:2px;"/><path d="M35.7,8.26c0,.86-.3,1.46-.8,1.75l-1.63.95c.1-.06.18-.12.26-.21-.51.49-1.32.54-2.23.02-1.08-.62-2.01-1.89-2.45-3.19h0c-.16-.5-.26-1-.26-1.48v-.07c0-.49.11-.91.28-1.23.14-.25.33-.42.56-.54-.02,0-.03,0-.04.02l1.63-.95c.49-.3,1.19-.25,1.95.19,1.51.88,2.74,2.99,2.74,4.74Z" style="fill:#355d75;"/><path d="M33.57,9.49c0,1.74-1.24,2.43-2.75,1.56-1.51-.88-2.74-2.99-2.74-4.74,0-.87.31-1.48.81-1.76.49-.28,1.18-.24,1.93.21,1.51.87,2.73,2.99,2.74,4.73Z" style="fill:#023452; stroke:#023452; stroke-linejoin:round; stroke-width:2px;"/></svg>