<?xml version="1.0" encoding="UTF-8"?><svg id="a" xmlns="http://www.w3.org/2000/svg" viewBox="0 0 138 138"><path d="M94.56,106.09h-.31c-12.43-.12-34.74-.33-49.08-.47h-.56v4.31s.01.28.01.28h.56s47.79.45,47.79.45h.56c0-.06.01-.13.02-.19,0-.03,0-.06.01-.09,0-.05.01-.1.02-.15.06-.42.14-.83.24-1.23.04-.18.09-.36.14-.54.15-.54.33-1.07.55-1.58.03-.09.07-.17.11-.26.04-.08.07-.17.11-.25h0c.04-.1.08-.19.13-.28h-.3Z" style="fill:#f47d20; stroke:#023452; stroke-linejoin:round; stroke-width:2px;"/><path d="M55.59,64.16c-.07.07-11.73,11.51-17.54,17.21-.08.07-.15.15-.23.22-.08.08-.16.15-.23.23.03.11.05.21.08.32.25,1.08.39,2.21.39,3.37,0,.69-.05,1.37-.14,2.04-.02.15-.04.31-.07.46l.34-.33.33-.32,20.87-20.48s-3.71-2.68-3.78-2.72Z" style="fill:#f47d20; stroke:#023452; stroke-linejoin:round; stroke-width:2px;"/><path d="M100.77,80.6c.03-.1.07-.19.11-.29-.07-.07-.15-.15-.22-.22-.07-.07-.14-.14-.22-.21-7.85-7.7-16.21-15.9-22.02-21.6-.07.04-.14.08-.21.12-.01,0-.03.02-.04.03l-.03.02c-.83.48-2.1,1.22-3.58,2.08-.08.05-.17.1-.25.15l25.07,24.61.28.28.29.28c0-.11,0-.22,0-.33v-.07c0-1.69.3-3.32.83-4.83h0Z" style="fill:#f47d20; stroke:#023452; stroke-linejoin:round; stroke-width:2px;"/><path d="M88.75,33.81s-.03-.01-.04-.02c0,0-.01,0-.02-.01.02.01.04.02.06.03h0Z" style="fill:#678597; stroke:#023452; stroke-linejoin:round; stroke-width:2px;"/><path d="M88.69,33.78s-.01,0-.02,0c-1.18-.64-2.62-.44-3.81.06-.33.14-.65.3-.96.48l-16.16,9.37c-2.22,1.38-4.02,3.44-5.21,5.77l-13.57-6.79c1.18-2.72,3.16-5.11,5.64-6.65,1.87-1,3.54-1.93,5.02-2.78,8.42-4.87,11.01-7.41,13.8-7.41,1.99,0,4.09,1.29,8.5,3.95,1.82,1.1,4.03,2.44,6.78,4.01h0Z" style="fill:#678597; stroke:#023452; stroke-linejoin:round; stroke-width:2px;"/><path d="M62.52,49.74c-.87,1.71-1.52,3.62-1.62,5.55-.03,1.11,0,3.48,0,4.58,0,.55.01,5.22.02,5.65.03.67-.16,1.52.44,1.99-1.83-1.05-4.13-2.37-6-3.45l-7.07-4.07c-.31-.18-.5-.55-.5-1.09l-.03-10.68c0-.15.01-.29.02-.44.11-1.64.53-3.63,1.19-5.13l13.57,7.08h0Z" style="fill:#023452; stroke:#023452; stroke-linejoin:round; stroke-width:2px;"/><path d="M90.82,49.11c0,1.1-.77,2.43-1.72,2.98l-10.43,6.05c-.15.1-.35.2-.51.29-4.17,2.42-12.7,7.37-15.53,9.01-.51.29-.95.32-1.29.08-.53-.38-.42-1.18-.44-1.75v-.39l-.02-6.02c.03-1.19-.1-3.91.09-5.06.51-3.64,2.41-7.09,5.19-9.48.2-.55,16.88-9.94,17.72-10.5,1-.58,2.15-1,3.32-.94h-.1c2.42.14,3.63,1.99,3.67,4.88l.03,10.85h0Z" style="fill:#dadee3; stroke:#023452; stroke-linejoin:round; stroke-width:2px;"/><path d="M61.69,51.38c-.42,1.2-.7,2.46-.79,3.72.06-1.21.34-2.48.79-3.72Z" style="fill:#dadee3; stroke:#023452; stroke-linejoin:round; stroke-width:2px;"/><path d="M67.73,43.68c-1.09.67-2.08,1.52-2.94,2.48.89-1.01,1.89-1.86,2.94-2.48Z" style="fill:#dadee3; stroke:#023452; stroke-linejoin:round; stroke-width:2px;"/><path d="M60.93,66.65c-.04-2.83-.03-8.24-.04-11.04.02,2.8.01,8.22.04,11.04Z" style="fill:#dadee3; stroke:#023452; stroke-linejoin:round; stroke-width:2px;"/><path d="M60.95,66.79s-.02-.09-.02-.14c0,.05.01.09.02.14Z" style="fill:#dadee3; stroke:#023452; stroke-linejoin:round; stroke-width:2px;"/><path d="M87.21,33.38c-.38-.02-.76.01-1.14.08.4-.08.78-.1,1.14-.08Z" style="fill:#dadee3; stroke:#023452; stroke-linejoin:round; stroke-width:2px;"/><path d="M84.25,21.67c0-8.33-6.72-15.08-15.01-15.08-19.91.79-19.9,29.37,0,30.16,8.29,0,15.01-6.75,15.01-15.08Z" style="fill:#dadee3; stroke:#023452; stroke-linejoin:round; stroke-width:2px;"/><polygon points="88.78 33.83 88.78 33.83 88.78 33.83 88.78 33.83" style="fill:#678597; stroke:#023452; stroke-linejoin:round; stroke-width:2px;"/><path d="M134.15,97.54s-.03-.01-.04-.02c0,0-.01,0-.02-.01.02.01.04.02.06.03h0Z" style="fill:#678597; stroke:#023452; stroke-linejoin:round; stroke-width:2px;"/><path d="M134.09,97.51s-.01,0-.02,0c-1.18-.64-2.62-.44-3.81.06-.33.14-.65.3-.96.48l-16.16,9.37c-2.22,1.38-4.02,3.44-5.21,5.77l-13.57-6.79c1.18-2.72,3.16-5.11,5.64-6.65,1.87-1,3.54-1.93,5.02-2.78,8.42-4.87,11.01-7.41,13.8-7.41,1.99,0,4.1,1.29,8.5,3.95,1.82,1.1,4.03,2.44,6.78,4.01h0Z" style="fill:#678597; stroke:#023452; stroke-linejoin:round; stroke-width:2px;"/><path d="M107.92,113.47c-.87,1.71-1.52,3.62-1.62,5.55-.03,1.11,0,3.48,0,4.58,0,.55.01,5.22.02,5.65.03.67-.16,1.52.44,1.99-1.83-1.05-4.13-2.37-6-3.45l-7.07-4.07c-.31-.18-.5-.55-.5-1.09l-.03-10.68c0-.15.01-.29.02-.44.11-1.64.53-3.46,1.19-4.96l13.57,6.91Z" style="fill:#023452; stroke:#023452; stroke-linejoin:round; stroke-width:2px;"/><path d="M136.22,112.84c0,1.1-.76,2.43-1.72,2.98l-10.43,6.05c-.15.1-.35.2-.51.29-4.17,2.42-12.7,7.37-15.53,9.01-.51.29-.95.32-1.29.08-.53-.38-.42-1.18-.44-1.75v-.39l-.02-6.02c.03-1.19-.1-3.91.09-5.06.51-3.64,2.41-7.09,5.19-9.48.2-.55,16.88-9.94,17.72-10.5,1-.58,2.15-1,3.32-.94h-.1c2.42.14,3.63,1.99,3.67,4.88l.03,10.85h0Z" style="fill:#dadee3; stroke:#023452; stroke-linejoin:round; stroke-width:2px;"/><path d="M107.09,115.11c-.42,1.2-.7,2.46-.79,3.72.06-1.21.34-2.48.79-3.72Z" style="fill:#dadee3; stroke:#023452; stroke-linejoin:round; stroke-width:2px;"/><path d="M113.13,107.42c-1.09.67-2.08,1.52-2.94,2.47.89-1.01,1.89-1.86,2.94-2.47Z" style="fill:#dadee3; stroke:#023452; stroke-linejoin:round; stroke-width:2px;"/><path d="M106.32,130.38c-.04-2.83-.03-8.24-.04-11.04.02,2.8.01,8.22.04,11.04Z" style="fill:#dadee3; stroke:#023452; stroke-linejoin:round; stroke-width:2px;"/><path d="M106.34,130.52s-.02-.09-.02-.14c0,.05.01.09.02.14Z" style="fill:#dadee3; stroke:#023452; stroke-linejoin:round; stroke-width:2px;"/><path d="M132.61,97.11c-.38-.02-.76.01-1.14.08.4-.08.78-.1,1.14-.08Z" style="fill:#dadee3; stroke:#023452; stroke-linejoin:round; stroke-width:2px;"/><path d="M129.65,85.4c0-8.33-6.72-15.08-15.01-15.08-19.91.79-19.9,29.37,0,30.16,8.29,0,15.01-6.75,15.01-15.08Z" style="fill:#dadee3; stroke:#023452; stroke-linejoin:round; stroke-width:2px;"/><polygon points="134.18 97.56 134.19 97.56 134.19 97.57 134.18 97.56" style="fill:#678597; stroke:#023452; stroke-linejoin:round; stroke-width:2px;"/><path d="M42.8,97.54s-.03-.01-.04-.02c0,0-.01,0-.02-.01.02.01.04.02.06.03Z" style="fill:#678597; stroke:#023452; stroke-linejoin:round; stroke-width:2px;"/><path d="M42.74,97.51s-.01,0-.02,0c-1.18-.64-2.62-.44-3.81.06-.33.14-.65.3-.96.48l-16.16,9.37c-2.22,1.38-4.02,3.44-5.21,5.77l-13.57-6.79c1.18-2.72,3.16-5.11,5.64-6.65,1.87-1,3.54-1.93,5.02-2.78,8.42-4.87,11.01-7.41,13.8-7.41,1.99,0,4.1,1.29,8.5,3.95,1.82,1.1,4.03,2.44,6.78,4.01h0Z" style="fill:#678597; stroke:#023452; stroke-linejoin:round; stroke-width:2px;"/><path d="M16.58,113.47c-.87,1.71-1.52,3.62-1.62,5.55-.03,1.11,0,3.48,0,4.58,0,.55.01,5.22.02,5.65.03.67-.16,1.52.44,1.99-1.83-1.05-4.13-2.37-6-3.45l-7.07-4.07c-.31-.18-.5-.55-.5-1.09l-.03-10.68c0-.15.01-.29.02-.44.11-1.64.53-3.63,1.19-5.13l13.57,7.08h0Z" style="fill:#023452; stroke:#023452; stroke-linejoin:round; stroke-width:2px;"/><path d="M44.87,112.84c0,1.1-.77,2.43-1.72,2.98l-10.43,6.05c-.15.1-.35.2-.51.29-4.17,2.42-12.7,7.37-15.53,9.01-.51.29-.95.32-1.29.08-.53-.38-.42-1.18-.44-1.75v-.39l-.02-6.02c.03-1.19-.1-3.91.09-5.06.51-3.64,2.41-7.09,5.19-9.48.2-.55,16.88-9.94,17.72-10.5,1-.58,2.15-1,3.32-.94h-.1c2.42.14,3.63,1.99,3.67,4.88l.03,10.85h0Z" style="fill:#dadee3; stroke:#023452; stroke-linejoin:round; stroke-width:2px;"/><path d="M15.75,115.11c-.42,1.2-.7,2.46-.79,3.72.06-1.21.34-2.48.79-3.72Z" style="fill:#dadee3; stroke:#023452; stroke-linejoin:round; stroke-width:2px;"/><path d="M21.79,107.42c-1.09.67-2.08,1.52-2.94,2.47.89-1.01,1.89-1.86,2.94-2.47Z" style="fill:#dadee3; stroke:#023452; stroke-linejoin:round; stroke-width:2px;"/><path d="M14.98,130.38c-.04-2.83-.03-8.24-.04-11.04.02,2.8.01,8.22.04,11.04Z" style="fill:#dadee3; stroke:#023452; stroke-linejoin:round; stroke-width:2px;"/><path d="M15,130.52s-.02-.09-.02-.14c0,.05.01.09.02.14Z" style="fill:#dadee3; stroke:#023452; stroke-linejoin:round; stroke-width:2px;"/><path d="M41.27,97.11c-.38-.02-.76.01-1.14.08.4-.08.78-.1,1.14-.08Z" style="fill:#dadee3; stroke:#023452; stroke-linejoin:round; stroke-width:2px;"/><path d="M38.31,85.4c0-8.33-6.72-15.08-15.01-15.08-19.91.79-19.9,29.37,0,30.16,8.29,0,15.01-6.75,15.01-15.08Z" style="fill:#dadee3; stroke:#023452; stroke-linejoin:round; stroke-width:2px;"/><polygon points="42.84 97.56 42.84 97.56 42.84 97.57 42.84 97.56" style="fill:#678597; stroke:#023452; stroke-linejoin:round; stroke-width:2px;"/><path d="M91.07,38.26c0-2.19-.76-3.84-2.12-4.65-.01-.02-.04-.03-.05-.03-2.7-1.54-4.68-2.74-6.61-3.9-.16-.1-.32-.19-.48-.29-.05.09-.11.18-.17.27-.04.07-.09.14-.13.21,0,0,0,0,0,0,.16.1.32.19.48.29,1.5.91,2.98,1.8,4.94,2.93-.97.01-1.99.35-2.85.81-.11.06-.21.12-.32.18l-16.17,9.38c-2.12,1.24-3.98,3.41-5.18,5.64l-13.1-6.56c1.16-2.56,3.06-4.8,5.42-6.27,1.83-.98,3.34-1.82,4.86-2.69.17-.1.34-.2.51-.3-.08-.06-.16-.13-.23-.19-.08-.06-.15-.13-.23-.19,0,0,0,0,0,0-.17.1-.34.2-.51.29-1.47.85-2.93,1.66-4.69,2.6-3.42,2.14-5.89,5.81-6.7,9.78-.52,1.54-.18,11.45-.25,13.22,0,.35.07.69.26.98h0c.1.15.23.28.38.37l7.01,4.09.25.15c.08.05.16.1.25.15.27.16.57.33.9.52.25.15.51.3.78.46.63.37,1.3.76,1.93,1.12.17.1.34.2.5.29.59.34,1.12.66,1.53.89.49.27.99.17,1.5-.12l11.49-6.66s.22-.13.5-.29c.01,0,.03-.01.04-.02l.28-.16c.1-.06.21-.12.32-.18.22-.13.46-.26.69-.41.12-.07.24-.14.37-.21s.24-.14.36-.21l.35-.2c.06-.03.11-.06.17-.1.27-.15.51-.3.69-.4.03-.01.05-.03.08-.04.04-.02.07-.04.1-.06.03-.02.06-.03.08-.05.01,0,.02-.01.03-.02.02-.01.04-.03.06-.03h0c.12-.07.38-.22.5-.29l10.36-6.01c1.04-.6,1.86-2.02,1.86-3.23l-.03-10.85h0ZM60.16,66.5c-.18-.1-.37-.21-.57-.33-.1-.06-.2-.12-.31-.18-.5-.29-1.07-.62-1.66-.97-.15-.09-.31-.18-.47-.27-.13-.08-.26-.15-.39-.23-.41-.24-.81-.47-1.21-.71-2.6-1.52-5.42-3.16-7.14-4.17-.28-.16-.36-.55-.36-.87l-.03-10.84c0-.19.02-.39.03-.58.11-1.48.47-2.93,1.04-4.31l13.06,6.54c-.82,1.69-1.45,3.68-1.53,5.5-.03.65,0,3.49,0,4.15.02,1.41-.02,6.2.05,7.55l-.5-.29h0ZM88.96,51.85c-2.18,1.27-6.75,3.91-10.49,6.08-.23.14-.46.27-.68.4-.23.13-.46.27-.69.4-.57.33-1.11.64-1.59.93-.02.01-.04.03-.07.04-.17.1-.33.19-.49.29-.06.03-.12.06-.17.1-.09.06-.19.11-.28.16-.08.05-.16.09-.24.14-.13.07-.24.14-.35.21-.01,0-.02.01-.03.02,0,0-.02,0-.02.01l-11.35,6.58c-.37.21-.7.26-.94.12h0c-.53-.3-.33-1.32-.37-1.83,0-.2,0-.59,0-.78,0-.51-.02-6.09-.02-6.41,0-.7-.05-2.94.05-3.59.48-4.31,2.99-8.47,6.66-10.77l16.16-9.37c.21-.12.43-.24.66-.35,1.18-.56,2.72-.84,3.93-.15,0,0,0,0,0,0,1.22.71,1.87,2.19,1.88,4.2l.03,10.84c0,.99-.72,2.24-1.58,2.74h0Z" style="fill:#023452; stroke:#023452; stroke-linejoin:round; stroke-width:2px;"/><path d="M69.24,6.31c-14.21.07-20.51,17.73-10.11,26.87.15.13.3.26.46.39,6.84,5.8,17.67,3.99,22.4-3.41.1-.16.2-.32.3-.48,6.25-9.96-1.21-23.48-13.04-23.36h0ZM81.8,29.38c-.05.09-.11.18-.17.27-.04.07-.08.14-.13.21-4.53,7.05-14.8,8.84-21.41,3.41-.08-.06-.16-.13-.23-.19-.08-.06-.15-.13-.23-.19-10.18-8.74-4.19-25.94,9.6-26.01,11.4-.11,18.58,12.91,12.56,22.51h0Z" style="fill:#023452; stroke:#023452; stroke-linejoin:round; stroke-width:2px;"/><path d="M136.47,101.99c0-2.19-.76-3.84-2.12-4.65-.01-.01-.04-.03-.05-.03-2.7-1.54-4.68-2.73-6.62-3.9-.16-.1-.32-.19-.48-.29-.1.16-.2.32-.3.47,0,0,0,0,0,0,.16.1.32.19.48.29,1.5.91,2.98,1.8,4.94,2.94-.97.01-1.99.35-2.85.81-.11.06-.21.12-.32.18l-16.17,9.37c-2.12,1.24-3.98,3.41-5.18,5.64l-12.78-6.4-.32-.16c.07-.15.14-.3.21-.45,1.18-2.37,2.98-4.44,5.2-5.83,1.84-.98,3.34-1.82,4.86-2.69.17-.1.35-.2.52-.3-.16-.13-.31-.25-.46-.38-.17.1-.34.2-.51.29-1.47.85-2.94,1.66-4.69,2.6-2.39,1.49-4.31,3.73-5.53,6.3-.09.19-.17.37-.25.56-.4.94-.71,1.92-.91,2.92-.07.22-.13.6-.17,1.1-.01.17-.03.36-.04.56-.2,3.34.02,10.13-.04,11.56,0,.35.07.69.26.98h0c.1.15.23.28.38.37l7.01,4.09.25.15c1.47.85,4.45,2.6,5.89,3.44.49.26.99.17,1.5-.12l11.49-6.66c.17-.1,3.82-2.22,4.12-2.39.12-.07.38-.22.5-.29l10.36-6.01c1.04-.61,1.86-2.03,1.85-3.23l-.03-10.85h0ZM105.56,130.23c-2.85-1.66-8.85-5.16-11.75-6.86-.28-.17-.36-.55-.36-.87l-.03-10.84c0-.19.02-.38.03-.58,0-.05,0-.1.01-.15.12-1.43.47-2.84,1.02-4.17l.32.16,12.75,6.38c-.82,1.69-1.45,3.68-1.53,5.5-.03.65,0,3.5,0,4.15.02,1.41-.02,6.2.04,7.55l-.5-.29h0ZM134.37,115.58c-3.28,1.9-11.97,6.94-15.11,8.77l-11.35,6.58c-.37.21-.71.26-.94.12h0c-.52-.3-.33-1.32-.37-1.83,0-.2,0-.58,0-.79,0-.51-.02-6.09-.02-6.41,0-.71-.05-2.94.04-3.59.48-4.31,2.98-8.47,6.66-10.77l16.16-9.37c.21-.12.44-.24.66-.34,1.18-.56,2.72-.84,3.93-.15,0,0,0,0,0,0,1.22.7,1.87,2.19,1.88,4.2l.03,10.84c0,.99-.72,2.24-1.57,2.74h0Z" style="fill:#023452; stroke:#023452; stroke-linejoin:round; stroke-width:2px;"/><path d="M99.95,86.22l-.58-.56c.02,4.05,1.62,8.14,5.16,11.25.17-.1.34-.19.51-.29-3.33-2.86-4.93-6.62-5.09-10.39h0ZM99.95,86.22l-.58-.56c.02,4.05,1.62,8.14,5.16,11.25.17-.1.34-.19.51-.29-3.33-2.86-4.93-6.62-5.09-10.39h0ZM114.64,70.04c-6.9.03-11.93,4.21-14.09,9.55-.08.19-.15.38-.22.57-.55,1.51-.87,3.11-.94,4.72-.01.26-.02.51-.02.77.02,4.05,1.62,8.14,5.16,11.25.15.13.3.26.45.39,6.84,5.8,17.67,3.99,22.4-3.41.1-.15.2-.32.3-.48h0c6.25-9.97-1.21-23.48-13.04-23.36h0ZM127.2,93.12c-.1.16-.19.32-.3.48-4.53,7.05-14.8,8.83-21.41,3.4-.16-.13-.31-.25-.46-.38-3.33-2.86-4.93-6.62-5.09-10.39-.09-2.12.27-4.24,1.03-6.2,2.03-5.24,6.91-9.38,13.66-9.42,11.4-.11,18.58,12.91,12.56,22.51h0ZM99.95,86.22l-.58-.56c.02,4.05,1.62,8.14,5.16,11.25.17-.1.34-.19.51-.29-3.33-2.86-4.93-6.62-5.09-10.39h0ZM99.95,86.22l-.58-.56c.02,4.05,1.62,8.14,5.16,11.25.17-.1.34-.19.51-.29-3.33-2.86-4.93-6.62-5.09-10.39h0Z" style="fill:#023452; stroke:#023452; stroke-linejoin:round; stroke-width:2px;"/><path d="M45.15,110.5v-4.59s-.01-.57-.01-.57v-3.35c-.02-2.19-.77-3.84-2.13-4.65-.01-.01-.04-.03-.05-.03-2.7-1.54-4.68-2.73-6.61-3.9-.16-.1-.32-.19-.48-.29-.1.16-.2.32-.3.47,0,0,0,0,0,0,.16.1.32.19.48.29,1.5.91,2.98,1.8,4.94,2.94-.97.01-1.99.35-2.85.81-.11.06-.21.12-.32.18l-16.17,9.37c-2.13,1.24-3.99,3.41-5.18,5.64l-13.1-6.56c1.16-2.56,3.06-4.8,5.42-6.27,1.84-.98,3.34-1.82,4.86-2.69.17-.1.35-.2.52-.3-.08-.06-.16-.13-.23-.19-.07-.06-.14-.11-.21-.17,0,0-.02-.01-.02-.02-.17.1-.34.2-.51.29-1.47.85-2.94,1.66-4.69,2.6-3.42,2.14-5.89,5.81-6.7,9.78-.52,1.54-.18,11.45-.25,13.22,0,.35.07.69.26.98h0c.1.15.23.28.38.37l7.01,4.09.25.15c1.47.85,4.45,2.6,5.89,3.44.49.26.99.17,1.5-.12l11.49-6.66c.17-.1,3.82-2.22,4.12-2.39.12-.07.38-.22.5-.29l10.36-6.01c1.04-.61,1.86-2.03,1.85-3.23v-2.34s0,0,0,0ZM14.22,130.23c-2.85-1.66-8.84-5.16-11.75-6.86-.28-.17-.36-.55-.36-.87l-.03-10.84c0-.19.02-.38.03-.58.11-1.48.46-2.94,1.04-4.31l13.06,6.54c-.82,1.69-1.45,3.68-1.53,5.5-.03.65,0,3.5,0,4.15.02,1.41-.02,6.2.05,7.55l-.5-.29ZM43.02,115.58c-3.28,1.9-11.97,6.94-15.11,8.77l-11.35,6.58c-.37.21-.71.26-.94.12h0c-.53-.3-.33-1.32-.37-1.83,0-.2,0-.58,0-.79,0-.51-.02-6.09-.02-6.41,0-.71-.05-2.94.04-3.59.48-4.31,2.98-8.47,6.66-10.77l16.16-9.37c.22-.12.44-.24.66-.34,1.18-.56,2.72-.84,3.93-.15,0,0,0,0,0,0,1.23.7,1.87,2.19,1.88,4.2v3.34s.03,5.16.03,5.16v2.35c0,.99-.71,2.24-1.57,2.74h0Z" style="fill:#023452; stroke:#023452; stroke-linejoin:round; stroke-width:2px;"/><path d="M35.57,93.6c-4.53,7.05-14.8,8.83-21.41,3.4-.17.1-.35.2-.52.3,6.84,5.8,17.67,3.99,22.4-3.41-.16-.1-.32-.19-.48-.29ZM35.57,93.6c-4.53,7.05-14.8,8.83-21.41,3.4-.17.1-.35.2-.52.3,6.84,5.8,17.67,3.99,22.4-3.41-.16-.1-.32-.19-.48-.29ZM38.1,81.72c-.05-.21-.11-.41-.17-.62-1.86-6.15-7.44-11.13-14.64-11.06-14.21.07-20.5,17.74-10.11,26.86.15.13.3.26.45.39,6.84,5.8,17.67,3.99,22.4-3.41.1-.15.2-.32.3-.48h0c1.11-1.78,1.79-3.66,2.08-5.57.05-.3.08-.6.11-.89.17-1.77,0-3.54-.43-5.23ZM35.86,93.12c-.1.16-.19.32-.3.48-4.53,7.05-14.8,8.83-21.41,3.4-.08-.06-.16-.13-.23-.19-.07-.06-.14-.11-.21-.17,0,0-.02-.01-.02-.02-10.18-8.74-4.19-25.94,9.6-26.01,7.05-.07,12.48,4.88,14.18,10.94.63,2.24.75,4.63.25,6.97-.33,1.57-.95,3.12-1.87,4.6h0ZM35.57,93.6c-4.53,7.05-14.8,8.83-21.41,3.4-.17.1-.35.2-.52.3,6.84,5.8,17.67,3.99,22.4-3.41-.16-.1-.32-.19-.48-.29ZM35.57,93.6c-4.53,7.05-14.8,8.83-21.41,3.4-.17.1-.35.2-.52.3,6.84,5.8,17.67,3.99,22.4-3.41-.16-.1-.32-.19-.48-.29Z" style="fill:#023452; stroke:#023452; stroke-linejoin:round; stroke-width:2px;"/></svg>