<?xml version="1.0" encoding="UTF-8"?><svg id="a" xmlns="http://www.w3.org/2000/svg" viewBox="0 0 138 138"><path d="M102.3,43.5v90.68c0,2.07-1.46,2.92-3.26,1.88l-62.2-35.91c-1.8-1.04-3.26-3.56-3.26-5.63V3.82c0-2.07,1.45-2.92,3.26-1.88l25.34,14.63c0,1.66.52,3.47,1.4,5.14l-25.92-14.96v88.32l60.57,34.98V41.73l-25.92-14.97c.87-.66,1.4-1.87,1.4-3.53l25.34,14.63c1.79,1.04,3.26,3.56,3.26,5.64Z" style="fill:#678597; stroke:#023452; stroke-linejoin:round; stroke-width:2px;"/><path d="M98.23,41.73v88.33l-60.57-34.98V6.76l25.92,14.96c1.06,2.03,2.62,3.83,4.37,4.84,1.74,1.01,3.31,1.01,4.36.21l25.92,14.97Z" style="fill:#fff; stroke:#023452; stroke-linejoin:round;"/><path d="M80.58,27.2l-6.87-3.97c0,1.66-.52,2.87-1.4,3.53-1.06.8-2.62.8-4.36-.21-1.75-1.01-3.32-2.81-4.37-4.84-.87-1.67-1.4-3.48-1.4-5.14l-6.87-3.97c1.62-5.35,6.66-7.03,12.63-3.58,5.97,3.45,11.01,10.95,12.63,18.17Z" style="fill:#f47d20; stroke:#023452; stroke-linejoin:round;"/><polyline points="72.31 26.76 98.23 41.73 98.23 130.06 37.65 95.08 37.65 6.76 63.57 21.72" style="fill:none; stroke:#023452; stroke-linecap:round; stroke-linejoin:round; stroke-width:2px;"/><polyline points="58.13 40.96 58.13 47.47 47.33 41.23 47.33 28.75 56.27 33.92" style="fill:none; stroke:#023452; stroke-linecap:round; stroke-linejoin:round; stroke-width:2px;"/><polyline points="49.75 35.05 52.75 40.27 59.89 36.15" style="fill:none; stroke:#023452; stroke-linecap:round; stroke-linejoin:round; stroke-width:2px;"/><line x1="65.27" y1="41.51" x2="90.88" y2="56.29" style="fill:none; stroke:#023452; stroke-linecap:round; stroke-linejoin:round; stroke-width:2px;"/><line x1="65.27" y1="48.15" x2="80.69" y2="57.04" style="fill:none; stroke:#023452; stroke-linecap:round; stroke-linejoin:round; stroke-width:2px;"/><polyline points="58.13 61.97 58.13 68.48 47.33 62.24 47.33 49.77 56.27 54.93" style="fill:none; stroke:#023452; stroke-linecap:round; stroke-linejoin:round; stroke-width:2px;"/><polyline points="49.75 56.07 52.75 61.28 59.89 57.16" style="fill:none; stroke:#023452; stroke-linecap:round; stroke-linejoin:round; stroke-width:2px;"/><line x1="65.27" y1="62.52" x2="90.88" y2="77.31" style="fill:none; stroke:#023452; stroke-linecap:round; stroke-linejoin:round; stroke-width:2px;"/><line x1="65.27" y1="69.16" x2="80.69" y2="78.06" style="fill:none; stroke:#023452; stroke-linecap:round; stroke-linejoin:round; stroke-width:2px;"/><polyline points="58.13 82.99 58.13 89.49 47.33 83.26 47.33 70.78 56.27 75.95" style="fill:none; stroke:#023452; stroke-linecap:round; stroke-linejoin:round; stroke-width:2px;"/><polyline points="49.75 77.09 52.75 82.29 59.89 78.18" style="fill:none; stroke:#023452; stroke-linecap:round; stroke-linejoin:round; stroke-width:2px;"/><line x1="65.27" y1="83.54" x2="90.88" y2="98.32" style="fill:none; stroke:#023452; stroke-linecap:round; stroke-linejoin:round; stroke-width:2px;"/><line x1="65.27" y1="90.18" x2="80.69" y2="99.08" style="fill:none; stroke:#023452; stroke-linecap:round; stroke-linejoin:round; stroke-width:2px;"/><path d="M80.58,27.2c-1.62-7.23-6.67-14.72-12.63-18.17-5.97-3.45-11.02-1.77-12.63,3.58" style="fill:none; stroke:#023452; stroke-linecap:round; stroke-linejoin:round; stroke-width:2px;"/><path d="M55.31,12.61l6.87,3.97c0,1.66.53,3.47,1.4,5.14,1.06,2.03,2.62,3.83,4.37,4.84,1.74,1.01,3.31,1.01,4.36.21.87-.66,1.4-1.87,1.4-3.53l25.34,14.63c1.79,1.04,3.26,3.56,3.26,5.64v90.68c0,2.07-1.46,2.92-3.26,1.88l-62.2-35.91c-1.8-1.04-3.26-3.56-3.26-5.63V3.82c0-2.07,1.45-2.92,3.26-1.88l18.47,10.66Z" style="fill:none; stroke:#023452; stroke-linecap:round; stroke-linejoin:round; stroke-width:2px;"/><g id="b"><path d="M62.55,134.7l-6.13,1.38,1.37-6.33s.02.08.03.12c.54,2.11,2.66,4.27,4.73,4.83Z" style="fill:#f47d20; stroke:#023452; stroke-linejoin:round;"/><path d="M72.02,129.48l37.22-37.22c.66.31,1.33.55,2,.73.33.09.65.15.96.2,2.14.34,3.84-.09,4.92-1.17l-37.22,37.22c-.12.12-.26.24-.39.35-1.07.84-2.63,1.14-4.53.83-.31-.05-.63-.12-.96-.21-.67-.18-1.34-.42-2-.73Z" style="fill:#dadee3; stroke:#023452; stroke-linejoin:round;"/><path d="M62.78,120.11l37.22-37.22c.52,1.21,1.23,2.4,2.08,3.52.52.69,1.1,1.36,1.72,1.98l-37.22,37.22c-.62-.62-1.19-1.29-1.72-1.98-.85-1.12-1.56-2.31-2.08-3.52Z" style="fill:#fff; stroke:#023452; stroke-linejoin:round;"/><path d="M72.02,129.48c.66.31,1.33.55,2,.73.33.09.65.16.96.21,1.89.31,3.45,0,4.53-.83-1.11,1.09-2.51,1.86-4.04,2.2l-12.92,2.91c-2.07-.56-4.19-2.72-4.73-4.83,0-.04-.02-.08-.03-.12l2.78-12.83c.34-1.57,1.12-3.01,2.26-4.15l.3-.3c-1.18,1.18-1.59,3.09-1.06,5.5.03.12.06.25.1.38.16.58.36,1.17.62,1.76.52,1.21,1.23,2.4,2.08,3.52.53.69,1.1,1.36,1.72,1.98.8.81,1.66,1.54,2.56,2.19.92.67,1.89,1.24,2.87,1.68Z" style="fill:#fff; stroke:#023452; stroke-linejoin:round;"/><path d="M109.24,92.27l-37.22,37.22c-.98-.44-1.95-1.01-2.87-1.68-.9-.65-1.76-1.38-2.56-2.19l37.22-37.22c.8.81,1.66,1.54,2.56,2.19.92.67,1.89,1.24,2.87,1.68Z" style="fill:#f47d20; stroke:#023452; stroke-linejoin:round;"/><path d="M111.61,84.41c.43,1.59-.51,2.54-2.11,2.11-1.59-.43-3.22-2.06-3.65-3.65-.42-1.59.52-2.54,2.11-2.11,1.59.43,3.22,2.06,3.65,3.65Z" style="fill:#f47d20; stroke:#023452; stroke-linejoin:round;"/><path d="M117.11,92.03c-1.08,1.08-2.78,1.52-4.92,1.17-.31-.05-.63-.12-.96-.2-.67-.18-1.34-.42-2-.73-.98-.44-1.95-1.01-2.87-1.68-.9-.65-1.76-1.39-2.56-2.19-.62-.62-1.2-1.29-1.72-1.98-.85-1.12-1.56-2.31-2.08-3.52-.25-.58-.46-1.17-.62-1.75-.04-.13-.07-.26-.09-.38-.57-2.4-.12-4.33,1.06-5.5,1.24-1.24,3.29-1.66,5.88-.96,5.17,1.38,10.47,6.69,11.86,11.86.69,2.58.27,4.64-.97,5.88ZM109.5,86.52c1.6.43,2.54-.52,2.11-2.11-.43-1.59-2.06-3.22-3.65-3.65-1.59-.43-2.53.52-2.11,2.11.43,1.59,2.06,3.22,3.65,3.65Z" style="fill:#fff; stroke:#023452; stroke-linejoin:round;"/><path d="M62.06,117.98c-.53-2.41-.12-4.32,1.06-5.5l37.22-37.22c-1.18,1.18-1.63,3.1-1.06,5.5.03.12.06.25.09.38.16.58.37,1.17.62,1.75l-37.22,37.22c-.25-.58-.46-1.17-.62-1.76-.04-.13-.07-.25-.1-.38Z" style="fill:#678597; stroke:#023452; stroke-linejoin:round;"/><path d="M99.28,80.76c.03.12.06.25.09.38.16.58.37,1.17.62,1.75.52,1.21,1.23,2.4,2.08,3.52.52.69,1.1,1.36,1.72,1.98.8.81,1.66,1.54,2.56,2.19.92.67,1.89,1.23,2.87,1.68.66.3,1.33.55,2,.73.33.09.65.15.96.2,2.14.34,3.84-.09,4.92-1.17,1.24-1.24,1.66-3.29.97-5.88-1.38-5.17-6.69-10.48-11.86-11.86-2.59-.69-4.64-.28-5.88.96-1.18,1.18-1.63,3.1-1.06,5.5Z" style="fill:none; stroke:#023452; stroke-linecap:round; stroke-linejoin:round; stroke-width:2px;"/><path d="M111.61,84.41c-.43-1.59-2.06-3.22-3.65-3.65-1.59-.43-2.53.52-2.11,2.11.43,1.59,2.06,3.22,3.65,3.65,1.6.43,2.54-.52,2.11-2.11Z" style="fill:none; stroke:#023452; stroke-linecap:round; stroke-linejoin:round; stroke-width:2px;"/><path d="M57.79,129.75s.02.08.03.12c.54,2.11,2.66,4.27,4.73,4.83" style="fill:none; stroke:#023452; stroke-linecap:round; stroke-linejoin:round; stroke-width:2px;"/><path d="M100.34,75.25l-37.22,37.22c-1.18,1.18-1.59,3.09-1.06,5.5.03.12.06.25.1.38.16.58.37,1.17.62,1.76.52,1.21,1.23,2.4,2.08,3.52.53.69,1.1,1.36,1.72,1.98.8.81,1.66,1.54,2.56,2.19.92.67,1.89,1.23,2.87,1.68.66.3,1.33.55,2,.73.33.09.65.16.96.21,1.89.31,3.46.01,4.53-.83.14-.11.27-.22.39-.35l37.22-37.22" style="fill:none; stroke:#023452; stroke-linecap:round; stroke-linejoin:round; stroke-width:2px;"/><path d="M63.12,112.48l-.3.3c-1.14,1.14-1.92,2.58-2.26,4.15l-4.15,19.16,19.05-4.29c1.52-.34,2.93-1.1,4.04-2.2.02-.02.37-.37.37-.37" style="fill:none; stroke:#023452; stroke-linecap:round; stroke-linejoin:round; stroke-width:2px;"/><line x1="100" y1="82.89" x2="62.78" y2="120.11" style="fill:none; stroke:#023452; stroke-linecap:round; stroke-linejoin:round; stroke-width:2px;"/><line x1="103.8" y1="88.39" x2="66.58" y2="125.61" style="fill:none; stroke:#023452; stroke-linecap:round; stroke-linejoin:round; stroke-width:2px;"/><line x1="109.24" y1="92.27" x2="72.02" y2="129.48" style="fill:none; stroke:#023452; stroke-linecap:round; stroke-linejoin:round; stroke-width:2px;"/></g></svg>