<?xml version="1.0" encoding="UTF-8"?><svg id="a" xmlns="http://www.w3.org/2000/svg" viewBox="0 0 138 138"><path d="M90.41,24.19v9.16c0,1.08-.29,2.2-.84,3.3,0,0-.01,0-.01,0-.16.32-.34.64-.55.96-.19.29-.4.57-.63.85-.59.75-1.31,1.45-2.12,2.07-.97.77-2.07,1.44-3.25,1.99-3.71-.64-7.37-.78-10.82-.39-1.54.17-3,.46-4.38.85-.23-.11-.46-.23-.67-.35-.82-.47-1.53-1.02-2.1-1.63-1.23-1.3-1.88-2.87-1.85-4.56v-9.2s0,.09,0,.13c0,.11,0,.22,0,.33v.04c.01.14.02.28.05.41.02.15.05.29.08.44.24,1.1.78,2.12,1.59,3.02.06.07.12.13.18.19.18.19.36.36.56.52.1.09.21.18.32.28.15.11.31.23.47.34.22.15.46.3.7.44.34.19.7.37,1.08.54.16.08.32.15.49.21.34.14.7.26,1.07.37.33.1.67.19,1.02.26.07.02.14.03.21.04.46.1.92.18,1.38.23.13.02.26.03.4.04.29.03.58.05.87.06.15.01.3.02.45.01.14,0,.29,0,.43,0,1.8,0,3.62-.26,5.36-.74h.01c.22-.06.43-.13.65-.19.32-.11.64-.22.95-.33.07-.03.13-.05.19-.07.25-.1.5-.2.74-.3.31-.14.61-.28.9-.42.08-.04.16-.08.24-.12.21-.11.42-.22.62-.33.19-.11.38-.22.56-.33h0c.58-.36,1.13-.75,1.65-1.16.52-.41,1-.86,1.43-1.33.43-.46.82-.95,1.16-1.46h0c.92-1.38,1.38-2.8,1.38-4.19Z" style="fill:#355d75; stroke:#023452; stroke-linejoin:round; stroke-width:2px;"/><path d="M89.03,28.37h0s.04.03.04.03c.76-1.17,1.21-2.37,1.34-3.54v-.67c0,1.39-.46,2.81-1.38,4.18ZM89.03,28.38c-.34.51-.73,1-1.16,1.46.44-.46.82-.95,1.16-1.46ZM86.44,31.17c-.52.41-1.07.8-1.65,1.16.58-.35,1.14-.74,1.65-1.16ZM84.78,32.33c-1.46.89-3.11,1.6-4.85,2.09,1.74-.48,3.39-1.19,4.85-2.09ZM79.92,34.42c-1.72.48-3.54.74-5.33.74,1.79,0,3.6-.26,5.33-.74ZM74.59,35.16c-.6,0-1.19-.03-1.78-.08.59.06,1.18.08,1.78.08ZM69.8,34.51c-.98-.3-1.87-.68-2.64-1.12.77.45,1.66.83,2.64,1.12ZM63.19,27.45c0,.24.03.48.07.71-.05-.3-.07-.6-.07-.91v.2Z" style="fill:#678597; stroke:#023452; stroke-linejoin:round; stroke-width:2px;"/><path d="M90.41,24.86v-.67c0,1.39-.46,2.81-1.38,4.18h0c-.34.52-.73,1.01-1.16,1.47-.43.47-.91.92-1.43,1.33-.52.41-1.07.8-1.65,1.16,0,0-.01,0-.01,0-1.46.89-3.11,1.6-4.85,2.09h0c-2.3.64-4.75.89-7.11.66-.14-.01-.27-.02-.4-.04-.46-.05-.92-.13-1.38-.23-.07-.01-.14-.02-.21-.04-.35-.07-.69-.16-1.02-.26-.98-.3-1.87-.68-2.64-1.12-.24-.14-.48-.29-.7-.44-.16-.11-.32-.23-.47-.34-.11-.1-.22-.19-.32-.28-.2-.16-.38-.33-.56-.52-.06-.06-.12-.12-.18-.19-.81-.9-1.35-1.92-1.59-3.02-.03-.15-.06-.29-.08-.44-.05-.27-.06-.55-.06-.83-.02-1.41.41-2.9,1.37-4.37,1.55-2.38,4.24-4.35,7.55-5.56,3.5-1.28,7.3-1.59,10.69-.82,1.4.3,2.66.78,3.71,1.4,1.5.86,2.63,2.01,3.3,3.35.54,1.11.74,2.31.59,3.53Z" style="fill:#f47d20; stroke:#023452; stroke-linejoin:round; stroke-width:2px;"/><path d="M63.19,27.25s0,.05,0,.08c0,.04,0,.08,0,.12v-.2Z" style="fill:#f47d20; stroke:#023452; stroke-linejoin:round; stroke-width:2px;"/><path d="M111.03,30.72v.51c-.06.47-.2.95-.44,1.43.05-.11.09-.23.13-.34.2-.54.31-1.07.31-1.6Z" style="fill:#355d75; stroke:#023452; stroke-linejoin:round; stroke-width:2px;"/><path d="M111.03,31.23v5.43c-.69.27-1.35.6-1.97.96-3.22,1.87-4.61,4.31-3.98,6.36.01.04.02.08.04.13.02.04.04.09.06.13.01.03.02.05.03.08.01.05.03.09.05.14.15.31.35.6.59.89.1.11.2.21.31.31.03.03.05.06.08.08.07.07.15.13.24.2.01.02.02.02.03.04-.51.3-1.04.58-1.6.82-.49.23-.99.43-1.51.62h-.01c-1.02.35-2.1.63-3.21.81-.37.06-.74.11-1.1.16h-.03c-.85-.49-1.71-.96-2.58-1.4s-1.75-.85-2.64-1.23c-1.78-.76-3.58-1.41-5.39-1.95h-.01c-.04-.25-.06-.5-.05-.75v-9.25c0,.21.02.42.05.62.02.15.06.3.1.45,0,.05.03.1.04.15.04.13.09.26.16.39.09.22.21.44.35.65.07.09.14.18.21.27.03.04.06.07.09.11.06.07.11.14.18.21.02.03.05.06.09.09.07.08.15.16.24.23.16.14.33.28.52.43.19.14.39.27.61.39.21.13.45.24.69.35.05.03.09.05.14.07.37.17.77.32,1.18.44.12.04.24.07.37.1.37.11.76.2,1.16.26.58.1,1.18.17,1.79.19.51.04,1.04.04,1.57,0,.37,0,.75-.04,1.13-.08h0c.38-.03.77-.09,1.16-.15,2.91-.48,5.63-1.59,7.66-3.14.13-.1.26-.2.38-.32.13-.1.25-.2.36-.31.16-.14.3-.28.44-.42l.04-.04s.02-.02.02-.03c.17-.17.33-.34.46-.51t.02-.02s.02-.03.03-.04c.15-.17.28-.35.4-.52.15-.22.28-.44.4-.65.06-.11.11-.22.16-.33.24-.48.38-.96.44-1.43Z" style="fill:#355d75; stroke:#023452; stroke-linejoin:round; stroke-width:2px;"/><path d="M111.03,31.23v-.51c0,.53-.11,1.06-.31,1.6-.04.11-.08.23-.13.34-.05.11-.1.22-.16.33-.12.21-.25.43-.4.65-.12.17-.25.35-.4.52-.01.01-.02.03-.03.04t-.02.02c-.14.17-.29.34-.46.51,0,.01,0,.02-.02.03l-.04.04c-.14.14-.28.28-.44.42-.11.11-.23.21-.36.31-.13.11-.25.21-.39.31-2.03,1.55-4.75,2.66-7.66,3.14-.39.06-.77.12-1.15.16h0c-.38.04-.76.07-1.13.08-.53.03-1.06.03-1.57,0-.61-.02-1.21-.09-1.79-.19-.4-.06-.79-.15-1.16-.26-.13-.03-.25-.06-.37-.1-.41-.12-.81-.27-1.18-.44-.05-.02-.09-.04-.14-.07-.24-.11-.48-.22-.69-.35-.22-.12-.42-.25-.61-.39-.19-.15-.36-.29-.52-.43-.09-.07-.17-.15-.24-.23-.03-.04-.05-.07-.08-.1-.07-.07-.12-.13-.18-.2-.03-.04-.07-.07-.1-.11-.07-.09-.14-.18-.21-.27-.14-.21-.26-.43-.35-.65-.06-.13-.11-.26-.16-.39-.01-.05-.03-.1-.04-.15-.04-.15-.08-.3-.1-.45-.03-.2-.05-.41-.05-.62v-.07c.03-1.36.73-2.78,2.03-4.07.35-.36.75-.71,1.19-1.04,2.03-1.56,4.75-2.67,7.66-3.15,3.12-.51,6.11-.25,8.37.77.29.13.56.27.8.4,1.97,1.14,2.84,2.8,2.6,4.58Z" style="fill:#f47d20; stroke:#023452; stroke-linejoin:round; stroke-width:2px;"/><path d="M126.77,40.42v-.33c0,.18-.02.36-.05.55-.02.15-.05.3-.09.46-.04.12-.08.24-.12.36-.07.19-.15.37-.25.56-.06.11-.12.22-.19.32-.06.1-.12.21-.19.31s-.14.2-.22.3c-.02.04-.06.08-.09.11-.03.04-.06.08-.09.11-.1.12-.21.24-.32.36-.1.12-.22.23-.34.35-.18.17-.37.33-.57.49-.13.11-.27.21-.42.32-.18.13-.37.26-.58.39-.18.13-.39.26-.6.38-.34.2-.69.38-1.05.56-.36.18-.74.33-1.11.48-.19.08-.37.14-.56.21-.19.07-.39.13-.58.19-.02.02-.04.03-.06.04-.35.1-.73.22-1.08.31h-.07c-.39.11-.79.2-1.19.27-.3.06-.63.11-.94.16-.06.01-.11.01-.16.02-.08.01-.17.03-.23.03-.36.04-.72.08-1.08.09-.14.01-.28.02-.43.02-.1.02-.2.02-.29.01-.14.01-.29.01-.43.01-.33,0-.66,0-.99-.02-.27,0-.54-.03-.8-.06-.54-.05-1.05-.14-1.55-.25-.26-.05-.51-.11-.75-.19-.49-.13-.95-.31-1.38-.51-.21-.1-.42-.21-.62-.31-.16-.1-.3-.19-.44-.29-.12-.08-.23-.17-.34-.25h-.01s-.02-.02-.03-.04c-.06-.04-.11-.09-.17-.14-.03-.02-.05-.04-.07-.06-.03-.02-.05-.05-.08-.08-.11-.1-.21-.2-.31-.31-.24-.29-.44-.58-.59-.89-.02-.05-.04-.09-.05-.14-.01-.03-.02-.05-.03-.08-.02-.04-.04-.09-.06-.13-.02-.05-.03-.09-.04-.13-.63-2.05.76-4.49,3.98-6.36.62-.36,1.28-.69,1.97-.96,4.51-1.86,10.13-1.95,13.38-.07h0c1.73,1,2.5,2.36,2.36,3.83Z" style="fill:#f47d20; stroke:#023452; stroke-linejoin:round; stroke-width:2px;"/><path d="M126.77,40.09v5.97c-2.48.12-5.08.74-7.32,1.84-3.86,1.86-5.48,4.61-4.39,6.79.15.33.39.64.66.93.23.23.49.46.8.67.16.09.29.17.43.27.11.06.21.11.3.15-.84.18-1.69.3-2.54.35-.17.02-.33.03-.49.03h-.01c-1.76.1-3.45-.07-4.92-.49h-.02c-.42-.55-.89-1.08-1.41-1.62-.16-.18-.34-.36-.53-.53-.72-.72-1.52-1.42-2.41-2.13h0s0-.05,0-.07v-9.26c0,.34.06.67.17.99.01.04.02.08.04.13.02.04.04.09.06.13.01.03.02.05.03.08.01.05.03.09.05.14.15.31.35.6.59.89.1.11.2.21.31.31.03.03.05.06.08.08.07.07.15.13.24.2.01.02.02.02.03.04h0c.11.08.22.17.34.25.14.1.28.19.44.29.2.1.41.21.62.31.43.2.89.38,1.38.51.24.08.49.14.75.19.5.11,1.01.2,1.55.25.26.03.53.05.8.06.46.03.94.03,1.42.01.09.01.19.01.29-.01.14.01.28,0,.43-.02.36-.01.72-.05,1.08-.09.06,0,.15-.02.23-.03.05,0,.1,0,.16-.02.31-.04.62-.1.94-.16.4-.07.8-.16,1.19-.27h.07c.35-.09.73-.21,1.08-.31.02-.01.03-.02.06-.04.19-.06.39-.12.58-.19.18-.07.37-.13.56-.21.37-.15.75-.3,1.11-.48s.71-.36,1.05-.56c.21-.12.42-.25.6-.38.21-.13.4-.26.57-.39.16-.11.29-.21.43-.32.19-.16.38-.32.56-.49.13-.12.25-.23.34-.35.12-.12.23-.24.33-.36.04-.04.06-.07.08-.11.04-.03.07-.07.09-.11.08-.1.16-.2.23-.3.14-.21.27-.42.37-.63.06-.09.1-.18.14-.27.05-.11.08-.23.13-.35.04-.1.08-.2.11-.3v-.06c.02-.07.04-.14.05-.2.01-.07.02-.13.03-.2.04-.19.06-.37.06-.55Z" style="fill:#355d75; stroke:#023452; stroke-linejoin:round; stroke-width:2px;"/><path d="M135.96,51.39c.03-.11.05-.21.06-.32v-.26c0,.19-.02.38-.06.58ZM135.79,51.98c.08-.19.14-.39.17-.59-.04.19-.1.39-.19.59h.02ZM116.52,56.29c-.31-.21-.57-.44-.8-.67.23.24.48.46.8.67Z" style="fill:#678597; stroke:#023452; stroke-linejoin:round; stroke-width:2px;"/><path d="M136.02,51.07s-.02.12-.06.32c-.04.19-.17.59-.17.59-.61,1.51-2.2,2.95-4.48,4.06-2.28,1.11-5,1.76-7.68,1.86-.21.01-.42.01-.63.01-.26,0-.51-.01-.76-.02-.3-.01-.59-.03-.88-.07-.25-.02-.49-.05-.73-.09-.26-.03-.5-.08-.74-.13h-.02c-.25-.05-.48-.11-.71-.17s-.46-.13-.68-.21c-.2-.06-.39-.13-.57-.21-.02-.01-.04-.02-.06-.03-.03-.01-.06-.02-.08-.03-.18-.07-.35-.16-.52-.24-.09-.04-.19-.09-.3-.15-.14-.1-.27-.18-.43-.27-.31-.21-.57-.44-.8-.67-.27-.29-.51-.6-.66-.93-1.09-2.18.53-4.93,4.39-6.79,2.24-1.1,4.84-1.72,7.32-1.84,2.7-.14,5.26.29,7.03,1.31.15.11.29.17.44.28,1.33.91,1.95,2.12,1.78,3.42Z" style="fill:#f47d20; stroke:#023452; stroke-linejoin:round; stroke-width:2px;"/><path d="M136.02,53.87v6.06c0,.07,0,.14-.01.22-2.71-1.5-7.48-1.83-11.85-.68-2.5.67-4.56,1.72-5.75,2.98-.87.92-1.23,1.92-1.06,2.85.04.15.08.29.13.44.06.15.12.31.22.46-.02,0-.02-.01-.02-.01-.12-.05-.25-.11-.37-.18h-.01c-.13-.06-.26-.13-.39-.2-.14-.08-.29-.17-.41-.26-.01,0-.01,0-.03,0,0-.01-.02-.01-.02-.02t-.02-.02c-1.18-.81-1.75-1.86-1.72-2.95v-9.25c0,.13,0,.26.03.38.01.13.03.25.07.37.04.12.06.24.12.36.03.09.07.19.13.28.15.33.39.64.66.93.23.23.49.46.8.67.16.09.29.17.43.27.11.06.21.11.3.15.17.1.34.18.52.24.02.01.05.02.08.03.02.01.04.02.06.03.17.08.36.15.57.21.22.08.45.15.68.21s.46.12.71.17h.02c.24.05.48.1.74.13.24.04.48.07.73.09.29.04.58.06.88.07.25.01.5.02.76.02.21,0,.42,0,.63-.01,2.68-.1,5.4-.75,7.68-1.86,2.28-1.11,3.87-2.55,4.48-4.06,0,0,.13-.4.17-.59.04-.2.06,2.67.06,2.48Z" style="fill:#355d75; stroke:#023452; stroke-linejoin:round; stroke-width:2px;"/><path d="M137.99,64.05s.02-.03.02-.04c.03-.08.05-.16.07-.24.03-.09.05-.18.06-.27v-.32c0,.29-.05.58-.15.87ZM121.69,68.65c2.71.73,6.29.72,9.64-.16.31-.08.61-.17.91-.27-.3.09-.6.18-.92.26-3.34.88-6.93.89-9.63.17ZM118,66.63c.13.28-1.02-.28.94.85h0c.07.04.13.09.21.13-.07-.04-.14-.09-.21-.14-.38-.26-.7-.53-.95-.84Z" style="fill:#678597; stroke:#023452; stroke-linejoin:round; stroke-width:2px;"/><path d="M138.15,63.41s-.01.06-.01.09v-.32c0,.29-.05.58-.15.87-.17.49-.48.98-.92,1.45-1.04,1.1-2.74,2.06-4.83,2.72-.3.09-.6.18-.92.26-3.34.88-6.93.89-9.63.17-.88-.22-1.67-.53-2.32-.91-.07-.04-.14-.09-.21-.13-.07-.04-.14-.09-.21-.14-.38-.26-.7-.53-.95-.84t-.01-.02s-.02-.03-.03-.04c-.06-.06-.1-.12-.14-.18,0-.01-.02-.02-.02-.02-.04-.06-.07-.11-.1-.17-.1-.15-.16-.31-.22-.46-.05-.15-.09-.29-.13-.44-.17-.93.19-1.93,1.06-2.85,1.19-1.26,3.25-2.31,5.75-2.98,4.37-1.15,9.14-.82,11.85.68.04.02.07.04.11.06.57.35,1.07.73,1.41,1.17.5.63.71,1.32.62,2.03Z" style="fill:#f47d20; stroke:#023452; stroke-linejoin:round; stroke-width:2px;"/><path d="M138.14,63.18v9.19c-.02.79-.38,1.61-1.11,2.38-1.19,1.26-3.24,2.31-5.74,2.99-4.43,1.16-9.28.8-11.96-.75-.57-.33-1.07-.73-1.41-1.17-.43-.56-.64-1.13-.62-1.74v-9.25c0,.16.01.32.05.47.05.31.16.6.33.89.04.06.07.12.12.18,0,0,.01.01.02.02.03.06.08.12.13.18.01.01.62.64,1,.9.07.05.14.1.21.14.07.04.14.09.21.13.65.38,1.44.69,2.32.91,2.7.72,6.29.71,9.63-.17.32-.08.62-.17.92-.26,2.09-.66,3.79-1.62,4.83-2.72.44-.47.75-.96.92-1.45.1-.29.15-.58.15-.87Z" style="fill:#355d75; stroke:#023452; stroke-linejoin:round; stroke-width:2px;"/><path d="M105.62,79.38c-16.53,10.63-31.49,17.93-53.28,27.66-7.74,3.47-14.77,5.27-21.49,5.52-7.28.29-14.02-1.34-20.03-4.81-4.98-2.87-7.64-6.57-7.64-10.5v9.25c-.04,3.95,2.62,7.62,7.6,10.5,6.01,3.47,12.76,5.09,20.03,4.81,6.7-.25,13.73-2.07,21.49-5.52,21.82-9.73,36.75-17.03,53.28-27.66,7.28-4.71,10.9-9.88,10.92-15.07v-9.25c0,5.21-3.62,10.36-10.88,15.07h0Z" style="fill:#355d75; stroke:#023452; stroke-linejoin:round; stroke-width:2px;"/><path d="M114.71,57.91c-.15-.28-.32-.54-.49-.82h-.01c-1.91-2.99-5.01-5.92-9.3-8.72-.49-.33-.98-.65-1.51-.95,0-.01-.01-.01-.01-.01-.39-.25-.8-.49-1.22-.73-4.36-2.52-9.04-4.42-13.79-5.63-.71-.19-1.41-.36-2.12-.51-5.06-1.08-10.14-1.38-14.93-.83-2.24.26-4.35.69-6.29,1.3-4.89,1.51-8.76,4.08-11.2,7.49-2.39,3.33-3.18,6.3-3.88,8.91-.94,3.5-1.67,6.26-5.86,8.69l-30.42,17.68c-5.92,3.45-9.6,7.66-10.36,11.88-.1.54-.15,1.08-.15,1.62,0,.48.04.96.12,1.43.08.48.2.96.37,1.43.08.24.17.47.28.7.06.16.14.32.22.47.03.07.07.15.11.22,0,.01,0,.02.01.03.24.45.52.9.84,1.33.32.45.68.89,1.09,1.32.2.21.4.42.62.62.22.21.44.41.68.61h0s0,0,0,0c.15.13.31.25.47.38.09.07.18.14.27.21.12.09.25.19.37.28.13.1.26.19.39.28.17.12.35.25.54.37.2.13.41.26.61.39.21.13.42.25.64.38,1.04.6,2.11,1.15,3.19,1.64.36.16.73.32,1.09.47.73.3,1.48.58,2.23.83.37.13.75.25,1.13.36.76.23,1.52.43,2.3.61.78.18,1.56.33,2.35.45,2.5.41,5.09.56,7.74.45,4.62-.17,9.39-1.08,14.43-2.75.92-.31,1.84-.64,2.78-.99,1.4-.54,2.83-1.13,4.28-1.78.68-.3,1.36-.61,2.02-.9,2.01-.9,3.96-1.78,5.85-2.64,1.9-.87,3.74-1.72,5.54-2.55,1.8-.84,3.56-1.67,5.28-2.49.57-.28,1.14-.55,1.71-.82,8.48-4.1,16.09-8.09,23.7-12.59,3.04-1.79,6.08-3.67,9.18-5.66.5-.33.99-.65,1.46-.99.47-.33.92-.66,1.35-1,.22-.17.44-.34.64-.51.12-.09.23-.18.34-.28.15-.12.3-.25.45-.38.18-.15.35-.3.52-.46.34-.3.67-.61.98-.92.63-.61,1.2-1.24,1.7-1.87l.02-.02c.25-.31.48-.61.7-.93.17-.23.34-.47.49-.71.31-.47.59-.95.83-1.43.12-.24.23-.47.34-.71h0c.07-.17.14-.34.2-.5.07-.16.13-.32.18-.48.06-.16.11-.32.16-.48.05-.17.1-.33.14-.49.05-.16.09-.32.12-.48.01-.01.01-.02.01-.03.09-.4.16-.8.2-1.2.02-.2.04-.39.05-.59.14-2.34-.45-4.69-1.78-7.01ZM102.4,77.69c-16.3,10.5-31.11,17.72-52.71,27.35v.02c-14.41,6.42-25.8,6.72-35.84.92-11.11-6.42-6.28-15.07,2.89-20.42l30.42-17.68c5.17-3.02,6.09-6.45,7.07-10.07.69-2.6,1.41-5.29,3.6-8.35,2.16-3.02,5.63-5.26,9.98-6.47,1.38-.39,2.84-.68,4.38-.85,3.45-.39,7.11-.25,10.82.39,1.8.3,3.61.73,5.42,1.28h.01c1.81.54,3.61,1.19,5.39,1.95.89.38,1.77.79,2.64,1.23s1.73.9,2.58,1.39h0s.01.01.02.01c.02.01.04.02.06.03,2.2,1.28,4.13,2.57,5.78,3.89.89.7,1.69,1.42,2.41,2.14.19.17.37.35.53.53.52.54.99,1.07,1.41,1.61h.01s0,.01,0,.01c5.56,7.12,3.31,14.47-6.89,21.09Z" style="fill:#678597; stroke:#023452; stroke-linejoin:round; stroke-width:2px;"/><path d="M109.29,56.6h-.02c-.42-.55-.89-1.08-1.41-1.62-.17-.17-.34-.35-.53-.53-.72-.72-1.52-1.42-2.41-2.13h0c-1.65-1.33-3.58-2.62-5.78-3.9-.02-.01-.04-.02-.06-.03h-.03c-.85-.49-1.71-.96-2.58-1.4-.87-.43-1.75-.84-2.64-1.23-1.78-.76-3.58-1.41-5.39-1.95h-.01c-1.81-.55-3.62-.98-5.42-1.28-3.71-.64-7.37-.78-10.82-.39-1.54.17-3,.46-4.38.85-4.35,1.21-7.82,3.45-9.98,6.47-2.19,3.06-2.91,5.75-3.6,8.35-.98,3.62-1.9,7.05-7.07,10.07l-30.42,17.68c-9.17,5.35-14,14-2.89,20.42,10.04,5.8,21.43,5.5,35.84-.92v-.02c21.6-9.63,36.41-16.85,52.71-27.35,10.2-6.62,12.45-13.97,6.89-21.09ZM54.88,75.47l-.19-.1-1.69-.97c-.27-.16-.51-.32-.71-.51-.11-.08-.2-.17-.28-.27-.69-.71-.88-1.57-.5-2.4.14-.29.33-.56.58-.8.24-.25.53-.47.87-.67.69-.41,1.55-.69,2.55-.85l4.88-.76-1.24-2.66,8.87,2.96-5.08,5.14-1.24-2.66-4.89.76h-.05v.04s-.12,0-.12,0c-.2.06-.28.17-.33.25-.05.11-.05.27.2.4l6.97,4.02-3.49,2.03-5.11-2.95ZM81.73,77.1h0l-1.83,4.02-.67,1.46c-.52,1.15-2.01,2.01-4,2.32-1.97.3-4.02,0-5.48-.85l-3.6-2.06-3.35,1.95-.04-5.92h10.21l-3.35,1.94,3.6,2.06s.04,0,.04.02l.13.08c.59.34,1.28.54,2,.62-.7-.09-1.39-.29-1.96-.62l-.14-.08c.24.12.49.12.66.1.17-.02.42-.1.49-.29l2.51-5.5,4.78.75v-.02s0,.02,0,.02ZM79.72,75.88l-5.13-5.14,4.59.71,1.31-2.83v-.04c.05-.17-.08-.29-.21-.37v.02c-.14-.07-.37-.15-.69-.11l-9.48,1.47-1.31-2.77,9.48-1.48c1.98-.3,4.03,0,5.48.84v.02c1.46.85,2.01,2.03,1.5,3.18l-1.31,2.84,4.6.71-8.83,2.95Z" style="fill:#e7ebef; stroke:#023452; stroke-linejoin:round; stroke-width:2px;"/><path d="M79.89,81.12l-.67,1.46c-.52,1.15-2.01,2.01-4,2.32-1.97.3-4.02,0-5.48-.85l-3.6-2.06-3.35,1.95-.04-5.92h10.21l-3.35,1.94,3.6,2.06s.04,0,.04.02l.13.08c.59.34,1.28.54,2,.62.55.06,1.11.06,1.65-.02,1.29-.18,2.43-.75,2.82-1.6h.04Z" style="fill:#678597;"/><path d="M54.65,75.34l.23.13-.19-.1s-.03-.02-.04-.03Z" style="fill:#023452;"/><path d="M56.77,71.72h-.13s.08-.03.12-.04v.04Z" style="fill:#023452;"/><path d="M63.48,76.39l-3.49,2.03-5.11-2.95c-.1-.06-.19-.11-.28-.17h0c-.8-.58-1.02-1.3-.75-1.95.31-.75,1.28-1.4,2.76-1.63h.04c-.2.06-.28.17-.33.25-.05.11-.05.27.2.4l6.97,4.02Z" style="fill:#678597;"/><path d="M68.02,68.44l-5.08,5.14-1.24-2.66-4.89.76h-.23c-1.46.24-2.43.91-2.74,1.67-.28.65-.06,1.37.75,1.95h0s.03.03.05.04c0,.01.03.02.04.03l-1.69-.97c-.27-.16-.51-.32-.71-.51-.11-.08-.2-.17-.28-.27-.13-.14-.23-.28-.32-.43-.06-.1-.12-.19-.16-.29-.02-.04-.03-.07-.04-.11-.09-.22-.14-.45-.14-.69,0,0,0-.02,0-.02,0,0,0,0,0,0,0-.14.01-.28.04-.42,0-.01,0-.03.01-.04.03-.13.05-.26.11-.39.14-.29.33-.56.58-.8.24-.25.53-.47.87-.67.69-.41,1.55-.69,2.55-.85l4.88-.76-1.24-2.66,8.87,2.96Z" style="fill:#678597;"/><path d="M76.94,76.35l4.78.75-1.83,4.02c-.39.86-1.55,1.43-2.86,1.6-.54.08-1.1.08-1.65.02-.7-.09-1.39-.29-1.96-.62l-.14-.08c.24.12.49.12.66.1.17-.02.42-.1.49-.29l2.51-5.5Z" style="fill:#678597;"/><polygon points="81.73 77.08 81.73 77.1 81.72 77.1 81.73 77.08" style="fill:#023452;"/><path d="M80.52,68.48l-.03.1c.05-.17-.08-.29-.21-.37v.02c-.14-.07-.37-.15-.69-.11l-9.48,1.47-1.31-2.77,9.48-1.48-2.52.4c1.45-.23,2.83.04,3.75.58.92.53,1.4,1.32,1.01,2.16Z" style="fill:#678597;"/><path d="M88.55,72.93l-8.83,2.95-5.13-5.14,4.59.71,1.31-2.83v-.04l.03-.1c.39-.84-.09-1.63-1.01-2.16-.92-.54-2.3-.81-3.75-.58l2.52-.4c1.98-.3,4.03,0,5.48.84v.02c1.46.85,2.01,2.03,1.5,3.18l-1.31,2.84,4.6.71Z" style="fill:#678597;"/></svg>