<?xml version="1.0" encoding="UTF-8"?><svg id="a" xmlns="http://www.w3.org/2000/svg" viewBox="0 0 138 138"><polygon points="127.99 95.47 136.5 100.06 69 136.5 1.5 100.06 10.02 95.46 10.02 97.11 69 128.95 127.99 97.11 127.99 95.47" style="fill:#f47d20; stroke:#023452; stroke-linejoin:round; stroke-width:2px;"/><path d="M111.39,92.88c-2.16.47-4.77.3-6.71-.75-1.22-.66-1.84-1.53-1.84-2.39v-22.82l12.51-6.64v29.46c0,.63-.3,1.19-.81,1.68-.05.05-.11.1-.17.15-.22.18-.47.35-.75.51-.14.08-.29.15-.44.22-.33.14-.67.28-1.05.39-.24.07-.49.13-.75.19Z" style="fill:#c2ced6; stroke:#023452; stroke-linejoin:round; stroke-width:2px;"/><path d="M49.4,46.96l-9.81-14.15s1.37-.73,1.42-.75c.03-.02.07-.04.1-.05.02-.01.05-.03.08-.04.02-.01.03-.02.05-.03.04-.02.08-.04.13-.07.02,0,.04-.01.05-.03.12-.06,27.16-14.39,28.81-15.29.04-.02.07-.04.1-.06,0,0,12.06-6.39,12.32-6.53.05-.02.1-.05.15-.08,2.34-1.25,15.74-8.36,15.79-8.38l29.49,42.53-58.98,31.31-19.69-28.38Z" style="fill:#fff; stroke:#023452; stroke-linejoin:round; stroke-width:2px;"/><path d="M85.76,102.43c-.23-.11-.44-.22-.65-.34-.27-.16-.51-.35-.71-.54-.51-.49-.82-1.05-.82-1.68v-22.72l12.51-6.64v29.36c0,.87-.62,1.73-1.84,2.39-1.94,1.05-4.55,1.23-6.71.75-.19-.04-.37-.08-.54-.13-.45-.13-.87-.27-1.25-.44Z" style="fill:#c2ced6; stroke:#023452; stroke-linejoin:round; stroke-width:2px;"/><path d="M82.63,9.96c-.26.14-.52.27-.78.42.26-.14.53-.27.78-.42Z" style="fill:#fff; stroke:#023452; stroke-linejoin:round;"/><polygon points="69.08 84.84 69.08 75.33 128.06 44.03 128.06 53.54 102.84 66.92 102.84 66.93 83.58 77.14 83.58 77.15 69.08 84.84" style="fill:#023452; stroke:#023452; stroke-linejoin:round; stroke-width:2px;"/><path d="M70.64,16.33l-.32.17c.11-.05.21-.11.32-.17Z" style="fill:#fff; stroke:#023452; stroke-linejoin:round; stroke-width:2px;"/><path d="M64.59,82.41s-.04-.02-.06-.04c.02.01.05.02.06.04Z" style="fill:#c0c3ca; stroke:#023452; stroke-linejoin:round; stroke-width:2px;"/><path d="M63.7,81.94c.29.15,1.05.57,1.14.62.19.1.29.15.29.15.02.01.04.02.06.04,0,0,.02,0,.02.01.06.03.12.06.18.1.54.3,2.14,1.15,3.04,1.64.04.02.07.04.1.06.3.16.51.27.54.29l6.39-3.39v29c0,2.98-6.74,4.51-10.68,2.39-1.22-.66-1.83-1.53-1.83-2.39v-28.91s.03,0,.04.01c.05.04.11.06.16.09.19.1.37.2.54.29Z" style="fill:#fff; stroke:#023452; stroke-linejoin:round; stroke-width:2px;"/><path d="M61.53,118.03l-.46-.25c.15.08.3.17.46.25Z" style="fill:#fff; stroke:#023452; stroke-linejoin:round; stroke-width:2px;"/><path d="M38.32,40.14l22.93,33.05L15.41,48.44c4.24-1.53,22.89-8.29,22.92-8.3ZM40.98,52.83c0-1.58-1.19-3.5-2.66-4.29-1.46-.79-2.64-.15-2.64,1.43s1.18,3.5,2.64,4.29c1.47.8,2.66.15,2.66-1.43Z" style="fill:#c2ced6; stroke:#023452; stroke-linejoin:round; stroke-width:2px;"/><path d="M56.5,115.32l-.54-.3.54.3Z" style="fill:#fff; stroke:#023452; stroke-linejoin:round; stroke-width:2px;"/><path d="M53.77,25.28c-.18.1-.36.19-.53.29.18-.1.36-.2.53-.29Z" style="fill:#fff; stroke:#023452; stroke-linejoin:round; stroke-width:2px;"/><path d="M49.4,46.96l.46.65c-.15-.22-.3-.44-.46-.65Z" style="fill:#fff; stroke:#023452; stroke-linejoin:round; stroke-width:2px;"/><path d="M48.2,28.24c.17-.08.32-.17.48-.25-.17.08-.32.18-.48.25Z" style="fill:#fff; stroke:#023452; stroke-linejoin:round; stroke-width:2px;"/><path d="M45.68,72.21c.16.08,8.79,4.74,9.47,5.11v22.54c0,.87-.61,1.73-1.83,2.39-2.44,1.32-6.4,1.32-8.85,0-1.22-.65-1.83-1.52-1.83-2.39v-29.29c.44.24,2.88,1.56,3.03,1.64Z" style="fill:#fff; stroke:#023452; stroke-linejoin:round; stroke-width:2px;"/><path d="M41.41,31.84s-.04.02-.05.03c.02,0,.03-.02.05-.03Z" style="fill:#fff; stroke:#023452; stroke-linejoin:round; stroke-width:2px;"/><path d="M41.23,31.94s.08-.05.13-.07c-.05.03-.09.05-.13.07Z" style="fill:#fff; stroke:#023452; stroke-linejoin:round; stroke-width:2px;"/><path d="M41.17,31.97s-.05.03-.08.04c.02-.02.05-.03.08-.04Z" style="fill:#fff; stroke:#023452; stroke-linejoin:round; stroke-width:2px;"/><path d="M47.52,28.6c-2.39,1.27-5.99,3.18-6.11,3.25-.02,0-.04.02-.05.03-.05.02-.08.04-.13.07-.02,0-.04.01-.05.03-.03.01-.05.02-.08.04-.03.01-.07.03-.1.05-.05.02-.1.05-.14.08-.08.04-1.26.66-1.27.67l-29.44,10.67c1.59-.84,58.92-31.28,58.95-31.29L98.57,1.5s-13.45,7.14-15.79,8.38c-.05.03-.1.06-.15.08-.26.14-.52.28-.78.42-1.35.72-11.43,6.07-11.53,6.12-.03.02-.06.04-.1.06-1.65.9-22.47,11.93-22.7,12.04Z" style="fill:#fff; stroke:#023452; stroke-linejoin:round; stroke-width:2px;"/><path d="M38.32,48.55c1.47.79,2.66,2.71,2.66,4.29s-1.19,2.22-2.66,1.43c-1.46-.79-2.64-2.71-2.64-4.29s1.18-2.22,2.64-1.43Z" style="fill:#f47d20;"/><path d="M34.72,91.57l-.23.17.23-.17Z" style="fill:#fff; stroke:#023452; stroke-linejoin:round; stroke-width:2px;"/><path d="M34.16,91.95c.07-.04.14-.08.2-.13l-.2.13Z" style="fill:#fff; stroke:#023452; stroke-linejoin:round; stroke-width:2px;"/><path d="M30.99,64.28c.24.13.49.27.74.4-.25-.13-.5-.27-.74-.4Z" style="fill:#fff; stroke:#023452; stroke-linejoin:round; stroke-width:2px;"/><path d="M23.18,83.12v-23.05s11.64,6.28,12.51,6.75v22.92c0,.63-.32,1.19-.82,1.68-.05.05-.11.1-.16.15l-.23.17-.14.09c-.06.04-.13.08-.2.13-.07.04-.14.08-.2.12-.14.08-.29.15-.44.22-.33.14-.68.29-1.05.39-.25.07-.5.13-.75.19-2.15.47-4.77.3-6.71-.75-1.22-.66-1.83-1.53-1.83-2.39v-6.62Z" style="fill:#fff; stroke:#023452; stroke-linejoin:round; stroke-width:2px;"/><path d="M61.25,73.19l-22.93-33.05s-18.68,6.77-22.92,8.3l45.85,24.75ZM52.39,75.83c-1.98-1.09-14.48-7.81-16.7-9h0s-25.59-13.83-25.59-13.83v-9.51s0,0,.02,0h.03s29.44-10.68,29.44-10.68l29.5,42.53v9.51s-.24-.13-.54-.29c-.03-.02-.06-.04-.1-.06-.9-.49-3.16-1.71-3.22-1.74,0,0-.02,0-.02-.01-.02-.01-.05-.02-.06-.04,0,0-.11-.05-.29-.15-.09-.05-.17-.09-.26-.14-.02-.01-.04-.02-.06-.04-.03-.01-.06-.03-.08-.04-.21-.11-1.09-.59-1.29-.69-.05-.03-.11-.06-.16-.09,0,0-.02-.01-.04-.01-.38-.21-.81-.43-1.26-.68-.1-.05-1.85-1.01-2.76-1.49,0,0-.02,0-.02,0-.79-.43-6.3-3.4-6.53-3.53Z" style="fill:#fff; stroke:#023452; stroke-linejoin:round; stroke-width:2px;"/><path d="M16.38,93.66s.07.04.09.05c-.03-.02-.06-.04-.09-.05Z" style="fill:#c0c3ca; stroke:#023452; stroke-linejoin:round;"/><path d="M16.11,93.52c-.06-.03-.12-.06-.17-.09.05.03.11.06.17.09Z" style="fill:#fff; stroke:#023452; stroke-linejoin:round;"/><path d="M15.88,93.4s.03.01.05.03c-.02,0-.04-.02-.05-.03Z" style="fill:#fff; stroke:#023452; stroke-linejoin:round;"/><path d="M13.67,92.2c.05.03.1.06.15.08-.04-.02-.09-.05-.15-.08Z" style="fill:#c0c3ca; stroke:#023452; stroke-linejoin:round;"/><path d="M48.24,110.86c-.68-.36-32.35-17.46-32.36-17.47-.04-.02-.07-.04-.1-.06-.08-.04-.15-.08-.22-.12-.15-.08-.28-.15-.41-.22-.09-.06-.17-.1-.26-.14-.08-.04-.16-.08-.24-.13-.36-.19-.56-.3-.56-.31-.07-.04-.14-.07-.2-.11h0s-.04-.03-.05-.04c-.05-.03-.1-.06-.15-.08-.13-.07-.56-.3-.62-.33h0s-.11-.06-.21-.11c-.08-.04-.15-.08-.23-.13-.08-.04-.14-.08-.22-.12h0c-.11-.06-1.96-1.06-2.36-1.28l13.16-7.11v6.62c0,.86.61,1.72,1.83,2.39,1.94,1.05,4.56,1.22,6.71.75.26-.06.51-.12.75-.19.37-.11.72-.25,1.05-.39.15-.07.29-.14.44-.22.07-.04.14-.08.2-.12l.33-.22.23-.17c.05-.05.11-.1.16-.15.5-.49.82-1.04.82-1.68v-13.38l6.96-3.75v27.25c0,.87.61,1.73,1.83,2.39,2.45,1.32,6.41,1.32,8.85,0,1.22-.65,1.83-1.52,1.83-2.39v-22.54c.21.11,2.97,1.61,3.76,2.03,0,0,.02,0,.02,0,.9.49,3.64,1.96,4.02,2.18v28.91c0,.86.61,1.72,1.83,2.39,3.94,2.13,10.68.6,10.68-2.39v-29l8.11-4.3v22.72c0,.63.31,1.19.82,1.68.2.19.44.37.71.54.2.12.41.24.65.34.38.17.8.32,1.25.44.17.05.35.09.54.13,2.16.47,4.77.3,6.71-.75,1.22-.65,1.84-1.52,1.84-2.39v-26.86l6.75,3.65v13.09c0,.86.62,1.72,1.84,2.39,1.93,1.05,4.55,1.22,6.71.75.26-.06.5-.12.75-.19.38-.11.72-.25,1.05-.39.16-.07.3-.14.44-.22.28-.15.54-.33.75-.51.06-.05.11-.1.17-.15.51-.48.81-1.04.81-1.68v-6.33l12.63,6.81-58.99,31.84c-.15-.08-18.48-9.98-20.76-11.21Z" style="fill:#c0c3ca; stroke:#023452; stroke-linejoin:round; stroke-width:2px;"/><path d="M10.15,43.47h-.02s0,0,.02,0Z" style="fill:#fff; stroke:#023452; stroke-linejoin:round;"/><path d="M61.53,118.03c.61.33,7.32,3.96,7.47,4.03l58.99-31.84v6.88l-58.99,31.84-58.98-31.84v-6.88c.4.22,2.25,1.22,2.36,1.28h0c.08.04.14.08.22.12.08.04.15.09.23.13.1.05.18.09.21.11h0c.07.04.14.08.2.11.13.07.29.16.42.23.06.04.11.06.15.08.02,0,.04.02.05.03h0c.06.04.14.08.2.11,0,0,.2.12.56.31.08.04.16.08.24.13.08.04.17.08.26.14.14.07.56.3.63.34.03.01.06.04.1.06.02,0,.04.02.05.03.05.03.11.06.17.09.08.04.17.09.27.15.03.01.06.03.09.05l.05.02c.06.04.12.06.18.1.12.07,44.84,24.2,44.84,24.2Z" style="fill:#fff; stroke:#023452; stroke-linejoin:round; stroke-width:2px;"/><polyline points="127.99 95.47 136.5 100.06 69 136.5 1.5 100.06 10.02 95.46" style="fill:none; stroke:#023452; stroke-linejoin:round; stroke-width:2px;"/><line x1="115.35" y1="83.41" x2="127.99" y2="90.23" style="fill:none; stroke:#023452; stroke-linecap:round; stroke-linejoin:round; stroke-width:2px;"/><line x1="96.09" y1="73.01" x2="102.84" y2="76.66" style="fill:none; stroke:#023452; stroke-linecap:round; stroke-linejoin:round; stroke-width:2px;"/><line x1="61.11" y1="80.54" x2="61.4" y2="80.7" style="fill:none; stroke:#023452; stroke-linecap:round; stroke-linejoin:round; stroke-width:2px;"/><path d="M58.94,79.37c.14.07.27.15.41.23" style="fill:none; stroke:#023452; stroke-linecap:round; stroke-linejoin:round; stroke-width:2px;"/><line x1="35.69" y1="76.37" x2="42.65" y2="72.61" style="fill:none; stroke:#023452; stroke-linecap:round; stroke-linejoin:round; stroke-width:2px;"/><line x1="34.49" y1="91.73" x2="34.72" y2="91.57" style="fill:none; stroke:#023452; stroke-linecap:round; stroke-linejoin:round; stroke-width:2px;"/><path d="M34.16,91.95c.07-.04.14-.08.2-.13" style="fill:none; stroke:#023452; stroke-linecap:round; stroke-linejoin:round; stroke-width:2px;"/><line x1="10.02" y1="90.23" x2="23.18" y2="83.12" style="fill:none; stroke:#023452; stroke-linecap:round; stroke-linejoin:round; stroke-width:2px;"/><path d="M13.82,92.28c-.05-.03-.1-.06-.15-.08" style="fill:none; stroke:#023452; stroke-linecap:round; stroke-linejoin:round; stroke-width:2px;"/><line x1="15.78" y1="93.34" x2="15.71" y2="93.3" style="fill:none; stroke:#023452; stroke-linecap:round; stroke-linejoin:round; stroke-width:2px;"/><path d="M16.11,93.52c-.06-.03-.12-.06-.17-.09-.02,0-.04-.02-.05-.03" style="fill:none; stroke:#023452; stroke-linecap:round; stroke-linejoin:round; stroke-width:2px;"/><path d="M16.47,93.71s-.05-.03-.09-.05" style="fill:none; stroke:#023452; stroke-linecap:round; stroke-linejoin:round; stroke-width:2px;"/><path d="M18,94.54c-.11-.06-.21-.12-.32-.17" style="fill:none; stroke:#023452; stroke-linecap:round; stroke-linejoin:round; stroke-width:2px;"/><line x1="56.5" y1="115.32" x2="55.96" y2="115.03" style="fill:none; stroke:#023452; stroke-linecap:round; stroke-linejoin:round; stroke-width:2px;"/><line x1="61.53" y1="118.03" x2="61.07" y2="117.79" style="fill:none; stroke:#023452; stroke-linecap:round; stroke-linejoin:round; stroke-width:2px;"/><path d="M127.99,90.23v6.88l-58.99,31.84-58.98-31.84v-6.88c.4.22,2.25,1.22,2.36,1.28h0c.08.04.14.08.22.12.08.04.15.09.23.13.1.05.18.09.21.11h0c.07.04.14.08.2.11.13.07.29.16.42.23.06.04.11.06.15.08.02,0,.04.02.05.03h0c.06.04.14.08.2.11,0,0,.2.12.56.31.08.04.16.08.24.13.08.04.17.08.26.14.14.07.56.3.63.34.03.01.06.04.1.06.02,0,.03.01.05.03.05.03.11.06.17.09.08.04.17.09.27.15.03.01.06.03.09.05l.05.02c.06.04.12.06.18.1.12.07,52.16,28.16,52.31,28.24l58.99-31.84Z" style="fill:none; stroke:#023452; stroke-linecap:round; stroke-linejoin:round; stroke-width:2px;"/><path d="M64.53,82.38s.04.02.06.04h.02" style="fill:none; stroke:#023452; stroke-linecap:round; stroke-linejoin:round; stroke-width:2px;"/><line x1="63.61" y1="81.89" x2="63.7" y2="81.94" style="fill:none; stroke:#023452; stroke-linecap:round; stroke-linejoin:round; stroke-width:2px;"/><path d="M75.47,81.45v29c0,2.98-6.74,4.51-10.68,2.39-1.22-.66-1.83-1.53-1.83-2.39v-28.91" style="fill:none; stroke:#023452; stroke-linecap:round; stroke-linejoin:round; stroke-width:2px;"/><path d="M55.16,77.32v22.54c0,.87-.61,1.73-1.83,2.39-2.44,1.32-6.4,1.32-8.85,0-1.22-.65-1.83-1.52-1.83-2.39v-29.29" style="fill:none; stroke:#023452; stroke-linecap:round; stroke-linejoin:round; stroke-width:2px;"/><path d="M30.99,64.28c.24.13.49.27.74.4" style="fill:none; stroke:#023452; stroke-linecap:round; stroke-linejoin:round; stroke-width:2px;"/><path d="M26.98,62.12c.23.12.47.25.71.38" style="fill:none; stroke:#023452; stroke-linecap:round; stroke-linejoin:round; stroke-width:2px;"/><path d="M23.82,60.42c.05.03.11.06.17.08" style="fill:none; stroke:#023452; stroke-linecap:round; stroke-linejoin:round; stroke-width:2px;"/><path d="M35.69,66.83v22.91c0,.63-.32,1.19-.82,1.68-.05.05-.11.1-.16.15l-.23.17-.33.22c-.07.04-.14.08-.2.12-.14.08-.29.15-.44.22-.33.14-.68.29-1.05.39-.25.07-.5.13-.75.19-2.15.47-4.77.3-6.71-.75-1.22-.66-1.83-1.53-1.83-2.39v-29.67" style="fill:none; stroke:#023452; stroke-linecap:round; stroke-linejoin:round; stroke-width:2px;"/><path d="M96.09,70.5v29.36c0,.87-.62,1.73-1.84,2.39-1.94,1.05-4.55,1.23-6.71.75-.19-.04-.37-.08-.54-.13-.45-.13-.87-.27-1.25-.44-.23-.11-.44-.22-.65-.34-.27-.16-.51-.35-.71-.54-.51-.49-.82-1.05-.82-1.68v-22.72" style="fill:none; stroke:#023452; stroke-linecap:round; stroke-linejoin:round; stroke-width:2px;"/><path d="M115.35,60.28v29.46c0,.63-.3,1.19-.81,1.68-.05.05-.11.1-.17.15-.22.18-.47.35-.75.51-.14.08-.29.15-.44.22-.33.14-.67.28-1.05.39-.24.07-.49.13-.75.19-2.16.47-4.77.3-6.71-.75-1.22-.66-1.84-1.53-1.84-2.39v-22.82" style="fill:none; stroke:#023452; stroke-linecap:round; stroke-linejoin:round; stroke-width:2px;"/><path d="M62.21,65.43c.08.12.17.23.24.35" style="fill:none; stroke:#023452; stroke-linecap:round; stroke-linejoin:round; stroke-width:2px;"/><path d="M59.74,61.87c.15.21.29.42.44.63" style="fill:none; stroke:#023452; stroke-linecap:round; stroke-linejoin:round; stroke-width:2px;"/><path d="M57.89,59.2c.2.27.38.54.56.8" style="fill:none; stroke:#023452; stroke-linecap:round; stroke-linejoin:round; stroke-width:2px;"/><path d="M49.4,46.96c.16.22.31.44.46.65" style="fill:none; stroke:#023452; stroke-linecap:round; stroke-linejoin:round; stroke-width:2px;"/><path d="M69.08,84.84s-.24-.13-.54-.29c-.03-.02-.06-.04-.1-.06-.9-.49-3.16-1.71-3.22-1.74,0,0-.02,0-.02-.01-.02-.01-.05-.02-.06-.04,0,0-.11-.05-.29-.15-.09-.05-.17-.09-.26-.14-.02-.01-.04-.02-.06-.04-.03-.01-.06-.03-.08-.04-.21-.11-1.09-.59-1.29-.69-.05-.03-.11-.06-.16-.09,0,0-.02-.01-.04-.01-.38-.21-.81-.43-1.26-.68-.1-.05-1.85-1.01-2.76-1.49,0,0-.02,0-.02,0-.79-.43-21.01-11.34-23.23-12.53h0c-.87-.48-12.5-6.75-12.51-6.76" style="fill:none; stroke:#023452; stroke-linecap:round; stroke-linejoin:round; stroke-width:2px;"/><path d="M10.14,43.48s0,0,.02,0c1.59-.84,58.92-31.28,58.95-31.29L98.57,1.5" style="fill:none; stroke:#023452; stroke-linecap:round; stroke-linejoin:round; stroke-width:2px;"/><path d="M23.18,60.07l-13.08-7.07v-9.51s0,0,.02,0" style="fill:none; stroke:#023452; stroke-linecap:round; stroke-linejoin:round; stroke-width:2px;"/><polyline points="39.59 32.81 10.15 43.47 10.12 43.48" style="fill:none; stroke:#023452; stroke-linecap:round; stroke-linejoin:round; stroke-width:2px;"/><path d="M41.17,31.97s-.05.03-.08.04" style="fill:none; stroke:#023452; stroke-linecap:round; stroke-linejoin:round; stroke-width:2px;"/><path d="M41.41,31.84s-.04.02-.05.03c-.05.03-.09.05-.13.07" style="fill:none; stroke:#023452; stroke-linecap:round; stroke-linejoin:round; stroke-width:2px;"/><path d="M48.68,27.98c-.16.08-.32.17-.48.25" style="fill:none; stroke:#023452; stroke-linecap:round; stroke-linejoin:round; stroke-width:2px;"/><path d="M53.77,25.28c-.17.09-.35.19-.53.29" style="fill:none; stroke:#023452; stroke-linecap:round; stroke-linejoin:round; stroke-width:2px;"/><line x1="70.64" y1="16.33" x2="70.32" y2="16.49" style="fill:none; stroke:#023452; stroke-linecap:round; stroke-linejoin:round; stroke-width:2px;"/><path d="M82.63,9.96c-.26.14-.52.27-.78.42" style="fill:none; stroke:#023452; stroke-linecap:round; stroke-linejoin:round; stroke-width:2px;"/><path d="M69.08,75.33l-29.5-42.53s1.37-.73,1.42-.75c.03-.02.07-.04.1-.05.02-.02.05-.03.08-.04.02-.01.03-.02.05-.03.05-.03.08-.05.13-.07.02,0,.03-.02.05-.03.12-.06,27.16-14.39,28.81-15.29.04-.02.07-.04.1-.06.11-.05.21-.11.32-.17.13-.07.28-.14.42-.22,1.98-1.06,11.32-6,11.57-6.15.05-.02.1-.05.15-.08,2.34-1.25,15.74-8.36,15.79-8.38l29.49,42.53" style="fill:none; stroke:#023452; stroke-linecap:round; stroke-linejoin:round; stroke-width:2px;"/><polygon points="128.06 44.03 128.06 53.54 102.84 66.92 102.84 66.93 83.58 77.14 83.58 77.15 69.08 84.84 69.08 75.33 128.06 44.03" style="fill:none; stroke:#023452; stroke-linecap:round; stroke-linejoin:round; stroke-width:2px;"/><path d="M61.25,73.19l-22.93-33.05s-18.68,6.77-22.92,8.3l45.85,24.75Z" style="fill:none; stroke:#023452; stroke-linecap:round; stroke-linejoin:round; stroke-width:2px;"/></svg>