<?xml version="1.0" encoding="UTF-8"?><svg id="a" xmlns="http://www.w3.org/2000/svg" viewBox="0 0 138 138"><path d="M73.64,105.42c-3.41.14-6.83.14-10.23-.04-11.81-.58-23.28-3.02-32.32-7.32-6.65-3.14-11.19-6.94-13.6-10.97-1.38-2.29-2.06-4.66-2.06-7.05v-21.72c.12,6.41,5.38,12.79,15.67,17.7,20.94,9.95,54.85,9.95,75.79,0,10.46-4.97,15.69-11.49,15.69-17.99v22.02c0,2.4-.68,4.77-2.06,7.05-2.44,4.03-6.98,7.82-13.62,10.97-9.28,4.42-21.11,6.87-33.24,7.37Z" style="fill:#c2ced6; stroke:#023452; stroke-linejoin:round;"/><path d="M122.57,26.97v22.06c0,1.5-.27,3-.83,4.49-.32.85-.73,1.7-1.24,2.54-2.41,4.03-6.95,7.82-13.62,10.97-20.94,9.94-54.85,9.94-75.79,0-6.65-3.15-11.19-6.94-13.6-10.97-.51-.84-.93-1.7-1.25-2.56-.55-1.48-.82-2.97-.82-4.47v-21.75c.02,1.09.21,2.2.54,3.29.33,1.11.78,2.18,1.42,3.25v.02c2.39,4.07,6.98,7.93,13.7,11.14,20.94,9.94,54.85,9.94,75.79,0,10.46-4.97,15.69-11.49,15.69-18.01Z" style="fill:#c2ced6; stroke:#023452; stroke-linejoin:round;"/><path d="M121.74,53.52c.55,1.49.83,2.99.83,4.5,0,6.51-5.22,13.02-15.69,17.99-20.94,9.95-54.85,9.95-75.79,0-10.29-4.9-15.54-11.28-15.67-17.7v-.3c-.02-1.52.25-3.03.82-4.52.32.86.74,1.72,1.25,2.56,2.41,4.03,6.96,7.82,13.6,10.97,20.94,9.94,54.85,9.94,75.79,0,6.68-3.15,11.21-6.94,13.62-10.97.51-.84.92-1.69,1.24-2.54Z" style="fill:#023452; stroke:#023452; stroke-linejoin:round;"/><path d="M106.88,8.95c10.46,5,15.69,11.49,15.69,18.02s-5.22,13.04-15.69,18.01c-20.94,9.94-54.85,9.94-75.79,0-6.73-3.2-11.31-7.07-13.7-11.14v-.02c-.64-1.07-1.09-2.14-1.42-3.25-.33-1.09-.52-2.2-.54-3.29v-.31c-.03-6.52,5.22-13.05,15.67-18.02C52.03-.98,85.95-.98,106.88,8.95Z" style="fill:#fff; stroke:#023452; stroke-linejoin:round;"/><path d="M15.43,58.32c.12,6.41,5.38,12.79,15.67,17.7,20.94,9.95,54.85,9.95,75.79,0,10.46-4.97,15.69-11.49,15.69-17.99,0-1.51-.28-3.02-.83-4.5" style="fill:none; stroke:#023452; stroke-linecap:round; stroke-linejoin:round; stroke-width:2px;"/><path d="M16.25,53.5c-.57,1.49-.84,3-.82,4.52v22.02c0,2.4.68,4.77,2.06,7.05,2.41,4.03,6.96,7.82,13.6,10.97,9.04,4.31,20.52,6.72,32.32,7.32,3.4.17,6.82.18,10.23.04,12.13-.5,23.96-2.95,33.24-7.37,6.65-3.14,11.19-6.94,13.62-10.97,1.38-2.29,2.06-4.66,2.06-7.05v-22.02" style="fill:none; stroke:#023452; stroke-linecap:round; stroke-linejoin:round; stroke-width:2px;"/><path d="M15.43,27.29c.02,1.09.21,2.2.54,3.29.33,1.11.78,2.18,1.42,3.25v.02c2.39,4.07,6.98,7.93,13.7,11.14,20.94,9.94,54.85,9.94,75.79,0,10.46-4.97,15.69-11.49,15.69-18.01s-5.22-13.02-15.69-18.02C85.95-.98,52.03-.98,31.1,8.95c-10.44,4.97-15.7,11.49-15.67,18.02" style="fill:none; stroke:#023452; stroke-linecap:round; stroke-linejoin:round; stroke-width:2px;"/><path d="M15.43,26.97v22.06c0,1.5.27,2.99.82,4.47.32.86.74,1.72,1.25,2.56,2.41,4.03,6.96,7.82,13.6,10.97,20.94,9.94,54.85,9.94,75.79,0,6.68-3.15,11.21-6.94,13.62-10.97.51-.84.92-1.69,1.24-2.54.56-1.49.83-2.98.83-4.49v-22.06" style="fill:none; stroke:#023452; stroke-linecap:round; stroke-linejoin:round; stroke-width:2px;"/><path d="M25.35,53.47c1.7,1.12,3.61,2.2,5.75,3.21,1.31.63,2.68,1.21,4.1,1.76" style="fill:none; stroke:#f47d20; stroke-linecap:round; stroke-linejoin:round; stroke-width:5px;"/><path d="M25.35,83.47c1.7,1.13,3.61,2.2,5.75,3.21,1.31.63,2.68,1.21,4.09,1.76" style="fill:none; stroke:#f47d20; stroke-linecap:round; stroke-linejoin:round; stroke-width:5px;"/><path d="M73.64,136.4c-3.41.14-6.83.14-10.23-.04-11.81-.58-23.28-3.02-32.32-7.32-6.65-3.14-11.19-6.94-13.6-10.97-1.38-2.29-2.06-4.66-2.06-7.05v-21.72c.12,6.41,5.38,12.79,15.67,17.7,20.94,9.95,54.85,9.95,75.79,0,10.46-4.97,15.69-11.49,15.69-17.99v22.02c0,2.4-.68,4.77-2.06,7.05-2.44,4.03-6.98,7.82-13.62,10.97-9.28,4.42-21.11,6.87-33.24,7.37Z" style="fill:#c2ced6; stroke:#023452; stroke-linejoin:round;"/><path d="M121.74,84.49c.55,1.49.83,2.99.83,4.5,0,6.51-5.22,13.02-15.69,17.99-20.94,9.95-54.85,9.95-75.79,0-10.29-4.9-15.54-11.28-15.67-17.7v-.3c-.02-1.52.25-3.03.82-4.52.32.86.74,1.72,1.25,2.56,2.41,4.03,6.96,7.82,13.6,10.97,20.94,9.94,54.85,9.94,75.79,0,6.68-3.15,11.21-6.94,13.62-10.97.51-.84.92-1.69,1.24-2.54Z" style="fill:#023452; stroke:#023452; stroke-linejoin:round;"/><path d="M15.43,89.29c.12,6.41,5.38,12.79,15.67,17.7,20.94,9.95,54.85,9.95,75.79,0,10.46-4.97,15.69-11.49,15.69-17.99,0-1.51-.28-3.02-.83-4.5" style="fill:none; stroke:#023452; stroke-linecap:round; stroke-linejoin:round; stroke-width:2px;"/><path d="M16.25,84.48c-.57,1.49-.84,3-.82,4.52v22.02c0,2.4.68,4.77,2.06,7.05,2.41,4.03,6.96,7.82,13.6,10.97,9.04,4.31,20.52,6.72,32.32,7.32,3.4.17,6.82.18,10.23.04,12.13-.5,23.96-2.95,33.24-7.37,6.65-3.14,11.19-6.94,13.62-10.97,1.38-2.29,2.06-4.66,2.06-7.05v-22.02" style="fill:none; stroke:#023452; stroke-linecap:round; stroke-linejoin:round; stroke-width:2px;"/><path d="M25.35,114.45c1.7,1.13,3.61,2.2,5.75,3.21,1.31.63,2.68,1.21,4.09,1.76" style="fill:none; stroke:#f47d20; stroke-linecap:round; stroke-linejoin:round; stroke-width:5px;"/></svg>