<?xml version="1.0" encoding="UTF-8"?><svg id="a" xmlns="http://www.w3.org/2000/svg" viewBox="0 0 138 138"><path d="M137.34,101.14c4.72-30.32-11.31-70.44-35.79-89.59C90.03,2.53,78.7-.23,69.43,2.52h0s-.08.03-.08.03c-1.04.31-2.05.7-3.03,1.15l-12.89,4.89,1.89,4.81c-3.17,4.78-5.48,10.93-6.64,18.37-4.72,30.32,11.31,70.44,35.79,89.59,5.73,4.48,11.41,7.4,16.82,8.89l2.05,5.22,12.9-4.98c1.44-.4,2.83-.94,4.17-1.61l.08-.03h0c8.46-4.26,14.67-13.71,16.85-27.7Z" style="fill:#023452; stroke:#023452; stroke-linejoin:round; stroke-width:2px;"/><path d="M124.01,106.24c-4.72,30.32-28.39,39.37-52.87,20.22-24.48-19.16-40.51-59.27-35.79-89.59C40.07,6.53,63.74-2.52,88.22,16.64c24.48,19.16,40.51,59.27,35.79,89.59Z" style="fill:#dadee3; stroke:#023452; stroke-linejoin:round; stroke-width:2px;"/><path d="M114.78,99.01c-3.73,24.01-22.47,31.17-41.86,16-19.38-15.17-32.07-46.92-28.33-70.93,3.73-24.01,22.47-31.17,41.86-16,19.38,15.17,32.07,46.92,28.33,70.93Z" style="fill:#fff; stroke:#023452; stroke-linecap:round; stroke-linejoin:round; stroke-width:2px;"/><path d="M105.54,91.78c-2.75,17.69-16.56,22.97-30.84,11.79-14.28-11.18-23.63-34.57-20.88-52.26,2.75-17.69,16.56-22.97,30.84-11.79,14.28,11.18,23.63,34.57,20.88,52.26Z" style="fill:#dadee3; stroke:#023452; stroke-linejoin:round; stroke-width:2px;"/><path d="M96.31,84.56c-1.77,11.37-10.65,14.77-19.83,7.58-9.18-7.18-15.19-22.23-13.42-33.6,1.77-11.37,10.65-14.77,19.83-7.58,9.18,7.18,15.19,22.23,13.42,33.6Z" style="fill:#fff; stroke:#023452; stroke-linecap:round; stroke-linejoin:round; stroke-width:2px;"/><path d="M87.07,77.33c-.79,5.05-4.73,6.56-8.81,3.37s-6.75-9.88-5.97-14.93c.79-5.05,4.73-6.56,8.81-3.37,4.08,3.19,6.75,9.88,5.97,14.93Z" style="fill:#f47d20; stroke:#023452; stroke-linejoin:round; stroke-width:2px;"/><polygon points="29.85 89.88 29.96 89.73 25.55 82.42 6.65 89.07 9.63 96.89 3.17 108.03 22.06 101.38 29.85 89.88" style="fill:#f47d20; stroke:#023452; stroke-linejoin:round; stroke-width:2px;"/><polyline points="79.59 72.65 71.76 75.36 64.64 77.83 55.7 80.93 46.42 84.14 29.85 89.88 9.63 96.89" style="fill:none; stroke:#023452; stroke-linecap:round; stroke-linejoin:round; stroke-width:2px;"/></svg>