<?xml version="1.0" encoding="UTF-8"?><svg id="a" xmlns="http://www.w3.org/2000/svg" viewBox="0 0 2931.95 1019.84"><path d="M529.15,745.14l145.1.86c9.09.05,13.95,8.55,13.68,15.76-.3,8.03-6.26,14.8-15.52,14.81l-157.13.21c-30.73,78.36-35.68,168.94,40.77,220.38,6.71,4.51.24,16.6-5.29,19.28-7.91,3.84-16.01,4.48-24.28,1.56-19.58-6.93-37.1-17.19-53.19-30.3-62.17-50.63-57.72-130.6-33.29-200.13,44.59-122.32,145.3-241.2,243.8-326.75-51.2-133.22-117.92-267.56-215.08-371.56-.58-3.17-1.97-5.91-.6-8.12,1.07-1.73,6.43-1.95,8.71.15,41.34,38.07,76.89,80.63,110.85,126.22,50.98,69.85,92.79,143.36,129.61,224.84,49.83-41.2,101.26-77.79,155.72-113.1-2.22-15.42,2.73-28.86,14.43-36.21s26.42-7.45,38.92,2.05l42-25.57c-10.29-22.95-1.74-47.24,17.36-58.52,20.61-12.16,45.96-6.98,60.78,13.25,13.76-7.46,26.51-13.56,38.77-22.21-15.72-29.25-4.66-62.93,21.69-77.78,28.32-15.95,63.33-6,79.59,23.94l49.56-25.03c-19.57-38.58-5.58-82.88,30.12-103.21s80.92-8.68,102.57,25.52c22.18,35.06,12.81,81.46-21.37,104.73-34.04,23.18-81.11,16.21-106.59-19.6l-50.51,27.79c7.06,26.7-4.4,52.7-27.16,65.53-22.69,12.8-50.03,8.38-69.72-10l-40.29,24.86c3.03,19.35-3.42,37.24-18.25,47.47-15.84,10.93-36.05,11.43-53.63-1.02-13.96,9.35-30.39,17.81-42.42,29.69-1.38,11.99-2.77,25.03-13.29,31.92s-22.81,9.73-36.43,2.51c-54.48,40.09-106.66,82.99-155.43,131.34,32.68,81.73,62.94,170.78,72.57,258.19,3.08,26.15-4.56,52.09-23.19,70.35-19.61,19.23-51.46,13.23-51.76,2.35-.39-13.88,26.81-10.78,26.43-46.89-.69-66.83-34.37-181.32-57.7-248.36l-56.04,64.15c13.9,4.03,42.66-6.41,43.91,15.42.57,9.9-6.91,16.77-17.4,16.78l-52.06.04-38.75,54.2,92.82.37c9.81.04,15.89,7.85,15.41,16.38-.51,9.01-7.61,14.53-17.43,14.51l-110.78-.16c-11.03,17.82-20.93,34.59-30.58,57.09Z" style="fill:#f47d20;"/><path d="M97.65,584.41l160.69-.22c7.94-.01,14.41-2.9,22.54-2.19l-12.7,31.6-205.06-.39c-11.15-.02-23.56-4.31-30.05-12.73-6.85-8.89-7.81-22.44-5.26-33.63l28.5-124.8c7.07-30.97,26.44-52.71,60.24-52.74l159.77-.13c11.77,0,22.48,3.61,30.84,10.84,7.17,8.87,10,20.63,7.48,32.24l-18.72,86.39-195.67.09c-4.92,18.45-9.03,35.79-12.28,54.11-1.08,6.07,2.05,11.26,9.67,11.57ZM240.93,489.4l13.55-59.41c.26-3.33-.13-6.38-1.82-8.17-1.84-1.95-4.76-3.77-8.32-3.77h-107.86c-7.02,0-14.38,4.59-15.92,11.46l-13.51,60.24,133.88-.34Z" style="fill:#404040;"/><path d="M391.38,614.07l-74.35-.84c4.97-15.69,10.95-28.79,14.35-44.53l55.33-256.13c3.11-14.38,4.21-26.83,4.44-41.58l70.01.21-65.9,304.95c-2.79,12.89-4.11,23.63-3.89,37.91Z" style="fill:#404040;"/><path d="M1063.55,426.44c-9.17.37-15.55,6.83-17.39,14.99l-28.71,127.09c-3.46,15.33-5.64,29.56-6.17,44.96l-70.67-.08c6.92-11.9,10.32-24.16,13.48-37.86l34.06-147.66c3.12-13.54,4.52-25.79,5.36-39.02l57.98.5c.22,5.01-1.99,9.19,1.66,14.34,8.56-9.04,18.65-14.54,31.3-14.56l61.96-.11c5.5,8.21,9.78,16.26,13.95,25.06l-13.53,15.44c-27.4-3.33-54.25-4.26-83.26-3.08Z" style="fill:#404040;"/><path d="M502.89,613.49h-69.91s11.87-35.15,11.87-35.15l33.05-142.77c3.69-15.93,5.23-30.71,5.8-46.58l65.61.21-43.48,193.57c-2.3,10.22-3.13,18.92-2.95,30.72Z" style="fill:#404040;"/><path d="M883.86,613.82l-70.38-.64c4.09-13.22,9.75-24.34,12.77-37.46l32.58-141.13c3.56-15.43,5.27-29.82,5.36-45.46l65.77-.09-42.86,190.95c-1.46,11.04-4.79,18.87-3.23,33.82Z" style="fill:#404040;"/><path d="M2525.62,593.35c9.8-46.83,26.27-88.98,31.26-138.51l-104.14,168.91-61.57.48-17.93-177.38-38.53,147.58c-2.68,10.26-1.56,19.44.52,29.93l-55.08-.41c9.07-11.89,13.31-22.41,16.62-35.73l41.73-167.62c2.79-11.19,2.74-20.9.4-31.66l121.97.21,13.62,127.76,79.47-127.67,119.27-.1c-5.65,10.99-11.41,19.92-14.43,31.95l-40.67,162.42c-3.4,13.59-4.71,25.73-3.52,40.64l-106.11-.25c8.02-8.68,14.45-17.79,17.12-30.54Z" style="fill:#404040;"/><path d="M2681.76,623.6c-10.34-.08-19.04-4.77-23.76-9.73-14.46-15.18-1.07-56.81,6.25-76.67,8.19-22.19,27.51-35,51.4-35.14l95.8-.56c5.52-.03,7.93-3.99,10.28-5.72,3.1-2.27,4.06-15.08-1.83-15.37-37.44-1.87-74.31-1.03-111.72-.35-9.19.17-16.7,3.8-23.86,9.16,3.29-16.49,10.62-28.5,16.43-45.32l177.17.23c11.37.02,23.42,5.65,28.7,12.1,25.88,31.63-26.88,124.87-17.55,167.76l-87.05-.31c-3.99-.6-.95-9.33-3.04-13.25-10.04,8.28-20.35,13.93-33.99,13.82l-83.23-.66ZM2797.47,585.55c7.88-16.45,11.68-29.69,13.18-47.6-17.67,1.95-37.51-5.35-52.23,3.44-12.88,7.69-13.16,31.17-13.12,44.37,18.84,4.3,34.16,3.81,52.16-.2Z" style="fill:#404040;"/><path d="M1633.31,527.51c-31-9.29-67.41-5.51-101.04-5.21-5.45,20.76-11.23,39.18-14.46,61.12l74.33.64c15.83.14,30.46-1.73,43.03-6.88-6.7,19.14-12.09,32.14-19.95,46.48l-204.55-.3c7.05-13.63,12.37-25.11,15.88-39.18l39.2-157.47c3.14-12.63,3.99-24.02,3.08-37.56l202.04.37-4.28,44.14c-12.73-2.88-24.05-5.59-36.78-5.5l-74.51.55-12.61,52.84c25.63,1.49,49.6,4.03,73.99.5l29.41-4.26c-3.49,17.06-6.82,33.58-12.78,49.71Z" style="fill:#404040;"/><path d="M2184.71,624.16l-103.56,1.03c7.63-13.79,13.96-28.74,18.31-46.49l36.6-149.4c-24.44-1.74-60.84-4.82-74.6,10.02,3.63-18.34,11.6-31.95,18.26-50.12l223.29-.2-4.33,50.26c-11.4-15.56-50.84-11.37-71.79-9.99l-40.13,160.74c-2.76,11.04-2.39,21.22-2.05,34.17Z" style="fill:#404040;"/><path d="M1882.01,577.71l-19.82,46.66-204.78-.29c7.48-8.8,12.8-16.68,15.52-27.54l43.83-174.78c2.77-11.06,2.15-21.08,2.42-33.31l105.3.12c-7.74,8.6-12.89,16.55-15.6,27.39l-41.91,167.38,72.42,1.27c13.85-.23,23.66-1.13,42.63-6.91Z" style="fill:#404040;"/><path d="M1995.2,624.88l-106.37-1.11c8.55-9.14,12.55-18.56,16.09-29.99l43.06-172.55c2.71-10.87,2.48-20.63,1.66-32.14l102.59.12c-6.22,12.48-11.7,22.92-14.96,36.12l-42.12,170.29c-1.71,10.87-2.22,20.43.05,29.26Z" style="fill:#404040;"/><path d="M522.57,278.72c19.08-3.38,35.1,10.15,37.49,27.07,2.54,17.92-8.97,34.29-27.39,37.1-16.55,2.52-33.4-8.69-36.6-25.82-3.22-17.21,7.14-34.92,26.5-38.35Z" style="fill:#404040;"/></svg>