<?xml version="1.0" encoding="UTF-8"?><svg xmlns="http://www.w3.org/2000/svg" xmlns:xlink="http://www.w3.org/1999/xlink" viewBox="0 0 900 750"><defs><clipPath id="s"><rect x="0" y="0" width="16" height="19" style="fill:none;"/></clipPath><pattern id="r" x="0" y="0" width="16" height="19" patternTransform="translate(2435.96 -6663.38) scale(.4)" patternUnits="userSpaceOnUse" viewBox="0 0 16 19"><rect width="16" height="19" style="fill:none;"/><g style="clip-path:url(#s);"><polygon points="16 22.18 10.5 19 16 15.82 21.5 19 16 22.18" style="fill:#95989b;"/><polygon points="0 22.18 -5.5 19 0 15.82 5.5 19 0 22.18" style="fill:#95989b;"/><polygon points="8 12.68 2.5 9.5 8 6.32 13.5 9.5 8 12.68" style="fill:#9aaeba;"/><polygon points="16 3.18 10.5 0 16 -3.18 21.5 0 16 3.18" style="fill:#95989b;"/><polygon points="0 3.18 -5.5 0 0 -3.18 5.5 0 0 3.18" style="fill:#95989b;"/></g></pattern><pattern id="v" patternTransform="translate(2432.5 -6661.58) scale(.4)" xlink:href="#r"/><pattern id="y" patternTransform="translate(2432.5 -6661.58) scale(.4)" xlink:href="#r"/><pattern id="ab" patternTransform="translate(2432.5 -6661.58) scale(.4)" xlink:href="#r"/><pattern id="ai" patternTransform="translate(2432.5 -6661.58) scale(.4)" xlink:href="#r"/><pattern id="al" patternTransform="translate(2432.5 -6661.58) scale(.4)" xlink:href="#r"/><pattern id="ao" patternTransform="translate(2432.5 -6661.58) scale(.4)" xlink:href="#r"/><pattern id="at" patternTransform="translate(2432.5 -6661.58) scale(.4)" xlink:href="#r"/><pattern id="bc" patternTransform="translate(2432.5 -6661.58) scale(.4)" xlink:href="#r"/><clipPath id="bg"><rect id="bh" x="0" y="0" width="16" height="19" style="fill:none;"/></clipPath><pattern id="bf" x="0" y="0" width="16" height="19" patternTransform="translate(2432.5 -6661.58) scale(.4)" patternUnits="userSpaceOnUse" viewBox="0 0 16 19"><rect x="0" y="0" width="16" height="19" style="fill:none;"/><g style="clip-path:url(#bg);"><polygon points="16 22.18 10.5 19 16 15.82 21.5 19 16 22.18" style="fill:#95989b;"/><polygon points="0 22.18 -5.5 19 0 15.82 5.5 19 0 22.18" style="fill:#95989b;"/><polygon points="8 12.68 2.5 9.5 8 6.32 13.5 9.5 8 12.68" style="fill:#95989b;"/><polygon points="16 3.18 10.5 0 16 -3.18 21.5 0 16 3.18" style="fill:#95989b;"/><polygon points="0 3.18 -5.5 0 0 -3.18 5.5 0 0 3.18" style="fill:#95989b;"/></g></pattern></defs><g style="isolation:isolate;"><g id="a"><polyline id="b" points="479.5 359.44 470.92 367.95 462.25 349.57 453.68 358.08 445 339.7 436.43 348.21" style="fill:none; stroke:#3d3d3d; stroke-linecap:round; stroke-linejoin:round; stroke-width:3px;"/><polyline id="c" points="179.63 483.12 171.06 491.63 162.39 473.24 153.81 481.75 145.14 463.37 136.57 471.88" style="fill:none; stroke:#3d3d3d; stroke-linecap:round; stroke-linejoin:round; stroke-width:3px;"/><polyline id="d" points="560.65 702.54 569.22 711.05 577.89 692.67 586.46 701.18 595.14 682.8 603.71 691.3" style="fill:none; stroke:#3d3d3d; stroke-linecap:round; stroke-linejoin:round; stroke-width:3px;"/><path id="e" d="M808.49,277.27c0-4.56-3.7-8.26-8.26-8.26s-8.26,3.7-8.26,8.26,3.7,8.26,8.26,8.26,8.26-3.7,8.26-8.26Z" style="fill:#fff; stroke:#3d3d3d; stroke-linecap:round; stroke-linejoin:round; stroke-width:3px;"/><path id="f" d="M530.48,334.85c0-4.56-3.7-8.26-8.26-8.26s-8.26,3.7-8.26,8.26,3.7,8.26,8.26,8.26,8.26-3.7,8.26-8.26Z" style="fill:#fff; stroke:#3d3d3d; stroke-linecap:round; stroke-linejoin:round; stroke-width:3px;"/><path id="g" d="M800.05,580.43c0-5.57-4.52-10.08-10.09-10.08s-10.08,4.51-10.08,10.08,4.51,10.08,10.08,10.08,10.09-4.52,10.09-10.08Z" style="fill:#fff; stroke:#3d3d3d; stroke-linecap:round; stroke-linejoin:round; stroke-width:3px;"/><g id="h"><line x1="375.06" y1="557.07" x2="390.43" y2="548.19" style="fill:none; stroke:#3d3d3d; stroke-linecap:round; stroke-linejoin:round; stroke-width:3px;"/><line x1="390.43" y1="557.07" x2="375.06" y2="548.19" style="fill:none; stroke:#3d3d3d; stroke-linecap:round; stroke-linejoin:round; stroke-width:3px;"/></g><g id="i"><line x1="636.19" y1="475.38" x2="651.57" y2="466.5" style="fill:none; stroke:#3d3d3d; stroke-linecap:round; stroke-linejoin:round; stroke-width:3px;"/><line x1="651.57" y1="475.38" x2="636.19" y2="466.5" style="fill:none; stroke:#3d3d3d; stroke-linecap:round; stroke-linejoin:round; stroke-width:3px;"/></g><g id="j"><line x1="117.91" y1="134.28" x2="133.29" y2="125.4" style="fill:none; stroke:#3d3d3d; stroke-linecap:round; stroke-linejoin:round; stroke-width:3px;"/><line x1="133.29" y1="134.28" x2="117.91" y2="125.4" style="fill:none; stroke:#3d3d3d; stroke-linecap:round; stroke-linejoin:round; stroke-width:3px;"/></g><g id="k"><g id="l"><path d="M638.83,173.44l.5,17.12-26.07-13.98-.96-32.82,19.35,10.37" style="fill:none; stroke:#3d3d3d; stroke-linecap:round; stroke-linejoin:round; stroke-width:3px;"/><polyline points="617.92 159.47 624.69 172.1 639.48 158.71" style="fill:none; stroke:#3d3d3d; stroke-linecap:round; stroke-linejoin:round; stroke-width:3px;"/></g></g><g id="m"><g id="n"><path d="M709.2,622.32c-6.93,4.29-14.07,8.71-14.07,8.71l-27-14.51,26.97-16.69,20.04,10.77" style="fill:none; stroke:#3d3d3d; stroke-linecap:round; stroke-linejoin:round; stroke-width:3px;"/><polyline points="689.92 609.3 689.14 617.57 722.92 615.15" style="fill:none; stroke:#3d3d3d; stroke-linecap:round; stroke-linejoin:round; stroke-width:3px;"/></g></g><g id="o"><g id="p"><path d="M60.86,170.76l.5,16.54-26.07,16.13-.96-31.7,19.35-11.97" style="fill:none; stroke:#3d3d3d; stroke-linecap:round; stroke-linejoin:round; stroke-width:3px;"/><polyline points="39.95 180.95 46.72 185.75 61.51 155.29" style="fill:none; stroke:#3d3d3d; stroke-linecap:round; stroke-linejoin:round; stroke-width:3px;"/></g></g><g id="q"><path id="t" d="M259.65,281.25l26.65,4.18c5.83.91,7.97,3.15,4.75,5.01l-111.81,64.55c-1.46.84-3.76,1.45-6.39,1.8-.07.01-.14.02-.2.02-3.12.39-6.67.38-9.79-.11l-12.11-1.9-48.9-7.66c-5.83-.91-7.95-3.16-4.73-5.01l111.81-64.55c1.41-.82,3.61-1.42,6.14-1.76l.24-.03c3.18-.41,6.81-.41,9.99.09l34.35,5.38Z" style="fill:url(#r);"/><path d="M116.04,287.54c.6-1.21.96-2.54.96-3.75,0-2.84-2-3.99-4.46-2.58-2.46,1.42-4.46,4.88-4.46,7.73s2,4,4.46,2.58c1.41-.82,2.68-2.31,3.5-3.98ZM146.54,251.78c-.72-1-2.03-1.26-3.57-.47-2.46,1.24-4.57,4.62-4.72,7.55-.09,1.69.49,2.85,1.48,3.3.71.32,1.65.27,2.69-.25,2.46-1.25,4.57-4.63,4.73-7.55.05-1.1-.17-1.97-.61-2.58ZM216.69,247.26v19.57c0,4.28-2.6,9.25-5.81,11.11l-111.81,64.56c-1.46.84-2.78.89-3.81.3-.03-.01-.05-.03-.07-.05-1.19-.72-1.94-2.36-1.94-4.65v-96.28c0-4.28,2.61-9.25,5.82-11.11l111.81-64.56c1.41-.82,2.7-.89,3.71-.36l.09.05c1.24.71,2.01,2.37,2.01,4.7v76.71ZM170.35,246.94c2.47-1.41,4.46-4.88,4.46-7.72s-1.99-4-4.46-2.58c-2.46,1.42-4.45,4.88-4.45,7.73s1.99,3.99,4.45,2.56Z" style="fill:#fff;"/><path d="M207.85,161.9l6.74,3.89c-1-.53-2.29-.46-3.71.36l-111.81,64.56c-3.21,1.85-5.82,6.83-5.82,11.11v96.28c0,2.29.74,3.93,1.94,4.65l-6.76-3.89c-1.24-.71-2.02-2.37-2.02-4.71v-96.27c0-4.28,2.61-9.25,5.82-11.11l111.82-64.56c1.44-.84,2.77-.9,3.8-.3Z" style="fill:#023452;"/><path d="M174.81,239.23c0,2.84-1.99,6.3-4.46,7.72-2.46,1.42-4.45.27-4.45-2.56s1.99-6.3,4.45-7.73c2.47-1.42,4.46-.27,4.46,2.58Z" style="fill:#678597;"/><path d="M146.54,251.78c.44.61.66,1.48.61,2.58-.16,2.92-2.27,6.3-4.73,7.55-1.04.52-1.98.58-2.69.25-.98-.45-1.57-1.61-1.48-3.3.15-2.93,2.26-6.31,4.72-7.55,1.54-.79,2.85-.53,3.57.47Z" style="fill:#678597;"/><path d="M117.01,283.79c0,1.2-.37,2.53-.96,3.75-.82,1.66-2.08,3.16-3.5,3.98-2.46,1.42-4.46.27-4.46-2.58s2-6.3,4.46-7.73c2.46-1.41,4.46-.26,4.46,2.58Z" style="fill:#678597;"/><path d="M95.19,342.74l-6.76-3.89c-1.24-.71-2.02-2.37-2.02-4.71v-96.27c0-4.28,2.61-9.25,5.82-11.11l111.82-64.56c1.44-.84,2.77-.9,3.8-.3l6.74,3.89.09.05" style="fill:none; stroke:#3d3d3d; stroke-linecap:round; stroke-linejoin:round; stroke-width:3px;"/><path d="M214.68,165.85c1.24.71,2.01,2.37,2.01,4.7v96.28c0,4.28-2.6,9.25-5.81,11.11l-111.81,64.56c-1.46.84-2.78.89-3.81.3-.03-.01-.05-.03-.07-.05-1.19-.72-1.94-2.36-1.94-4.65v-96.28c0-4.28,2.61-9.25,5.82-11.11l111.81-64.56c1.41-.82,2.7-.89,3.71-.36" style="fill:none; stroke:#3d3d3d; stroke-linecap:round; stroke-linejoin:round; stroke-width:3px;"/><path d="M116.04,287.54c2.13.32,4.62-.08,8.07-2.07,7-4.05,10.59-13.94,15.61-23.31" style="fill:none; stroke:#3d3d3d; stroke-linecap:round; stroke-linejoin:round; stroke-width:3px;"/><path d="M146.54,251.78c2.17-2.51,4.65-4.73,7.61-6.44,4.08-2.36,7.83-1.81,11.85-2.11" style="fill:none; stroke:#3d3d3d; stroke-linecap:round; stroke-linejoin:round; stroke-width:3px;"/><path d="M174.74,240.27c9.21-6.06,13.27-17.66,15.9-29.2" style="fill:none; stroke:#3d3d3d; stroke-linecap:round; stroke-linejoin:round; stroke-width:3px;"/><path d="M117.01,283.79c0,1.2-.37,2.53-.96,3.75-.82,1.66-2.08,3.16-3.5,3.98-2.46,1.42-4.46.27-4.46-2.58s2-6.3,4.46-7.73c2.46-1.41,4.46-.26,4.46,2.58Z" style="fill:none; stroke:#3d3d3d; stroke-linecap:round; stroke-linejoin:round; stroke-width:3px;"/><path d="M146.54,251.78c.44.61.66,1.48.61,2.58-.16,2.92-2.27,6.3-4.73,7.55-1.04.52-1.98.58-2.69.25-.98-.45-1.57-1.61-1.48-3.3.15-2.93,2.26-6.31,4.72-7.55,1.54-.79,2.85-.53,3.57.47Z" style="fill:none; stroke:#3d3d3d; stroke-linecap:round; stroke-linejoin:round; stroke-width:3px;"/><path d="M174.81,239.23c0,2.84-1.99,6.3-4.46,7.72-2.46,1.42-4.45.27-4.45-2.56s1.99-6.3,4.45-7.73c2.47-1.42,4.46-.27,4.46,2.58Z" style="fill:none; stroke:#3d3d3d; stroke-linecap:round; stroke-linejoin:round; stroke-width:3px;"/><polyline points="185.26 217.1 190.64 211.07 193.16 215.83" style="fill:none; stroke:#3d3d3d; stroke-linecap:round; stroke-linejoin:round; stroke-width:3px;"/><line x1="190.7" y1="194.5" x2="190.7" y2="197.59" style="fill:none; stroke:#3d3d3d; stroke-linecap:round; stroke-linejoin:round; stroke-width:3px;"/><line x1="196.51" y1="191.15" x2="196.51" y2="194.24" style="fill:none; stroke:#3d3d3d; stroke-linecap:round; stroke-linejoin:round; stroke-width:3px;"/><line x1="202.31" y1="187.8" x2="202.31" y2="190.88" style="fill:none; stroke:#3d3d3d; stroke-linecap:round; stroke-linejoin:round; stroke-width:3px;"/></g><g id="u"><path id="w" d="M759.94,533.6c-40.83,23.57-107.25,23.57-148.08,0l-258.05-148.99c-25.69-14.83-67.49-14.83-93.17,0-25.69,14.83-25.69,38.96,0,53.79l49.96,28.85c43.54,25.14,43.54,66.05,0,91.19l-31.69,18.3-34.04-19.65,31.69-18.3c24.77-14.3,24.78-37.58,0-51.88l-49.96-28.85c-44.46-25.67-44.46-67.43,0-93.1,44.46-25.67,116.79-25.67,161.25,0l258.05,148.99c22.06,12.73,57.94,12.73,80,0s22.06-33.45,0-46.19l-46.13-26.63c-30.18-17.42-30.18-45.78,0-63.2,11.41-6.59,11.41-17.31,0-23.9l-102.31-59.07,34.04-19.65,102.31,59.07c30.18,17.42,30.18,45.78,0,63.2-11.41,6.59-11.41,17.31,0,23.9l46.13,26.63c40.82,23.57,40.82,61.92,0,85.49Z" style="fill:url(#v);"/><path d="M745.82,524.91c-40.83,23.57-107.25,23.57-148.08,0l-258.05-148.99c-25.69-14.83-67.49-14.83-93.17,0-25.69,14.83-25.69,38.96,0,53.79l49.96,28.85c43.54,25.14,43.54,66.05,0,91.19l-31.69,18.3-34.04-19.65,31.69-18.3c24.77-14.3,24.78-37.58,0-51.88l-49.96-28.85c-44.46-25.67-44.46-67.43,0-93.1,44.46-25.67,116.79-25.67,161.25,0l258.05,148.99c22.06,12.73,57.94,12.73,80,0,22.06-12.73,22.06-33.45,0-46.19l-46.13-26.63c-30.18-17.42-30.18-45.78,0-63.2,11.41-6.59,11.41-17.31,0-23.9l-102.31-59.07,34.04-19.65,102.31,59.07c30.18,17.42,30.18,45.78,0,63.2-11.41,6.59-11.41,17.31,0,23.9l46.13,26.63c40.82,23.57,40.82,61.92,0,85.49Z" style="fill:#fff; stroke:#3d3d3d; stroke-linecap:round; stroke-linejoin:round; stroke-width:2.5px;"/></g><g id="x"><path id="z" d="M166.41,639.47c-.57,1.54-1.3,3.84-1.3,5.88,0,5.3,5.06,5.25,10.47,5.25,13.21,0,115.37-14.28,115.37-65.64,0-.7-.02-1.4-.07-2.11-.37-1.5-.83-3.01-1.4-4.51l-.84-2.22-1.52.88c-6.49-6.96-16.85-7.08-27.02-7.08-.34,0-.68,0-1.01,0h-.03c-49.77,0-82.06,50.16-92.66,69.54Z" style="fill:url(#y);"/><path d="M287.93,573.78l1.5,1.83-13.39,7.73c-11.86-11.53-30.4-11.67-50.42-.1-20.02,11.56-38.55,33.09-50.41,58.31l-13.39,7.73,1.5-3.56c2.5-5.95,5.34-11.77,8.44-17.37,4.62-8.35,9.85-16.25,15.55-23.51,6.13-7.85,12.8-14.95,19.82-21.08,5.95-5.2,12.15-9.71,18.49-13.36,2.6-1.5,5.19-2.84,7.74-4,9.43-4.31,18.45-6.35,26.65-6.12h0c6.47.19,12.42,1.77,17.66,4.75l.2.12c3.74,2.16,7.12,5.04,10.05,8.62Z" style="fill:#023452;"/><path d="M217.15,530.1l60.52,34.95c-5.24-2.98-11.19-4.57-17.66-4.75h0l-60.71-35.05c6.54.19,12.56,1.8,17.85,4.86Z" style="fill:#819aa9;"/><path d="M199.3,525.24l60.71,35.05c-8.2-.23-17.22,1.8-26.65,6.12l-60.73-35.06c9.44-4.31,18.46-6.35,26.67-6.11Z" style="fill:#ccd6dc;"/><path d="M172.63,531.35l60.73,35.06c-2.55,1.16-5.14,2.5-7.74,4-6.33,3.65-12.53,8.16-18.49,13.36l-60.74-35.06c5.96-5.2,12.16-9.71,18.5-13.36,2.6-1.5,5.19-2.83,7.74-4Z" style="fill:#e6ebee;"/><path d="M146.39,548.71l60.74,35.06c-7.02,6.13-13.69,13.23-19.82,21.08h0s-60.72-35.07-60.72-35.07c6.13-7.84,12.8-14.94,19.81-21.07Z" style="fill:#fff;"/><path d="M187.3,604.84h0c-5.71,7.28-10.94,15.17-15.55,23.52h0l-60.73-35.06c4.63-8.36,9.86-16.26,15.56-23.52l60.72,35.06Z" style="fill:#fff;"/><path d="M171.75,628.36h0c-3.11,5.6-5.94,11.41-8.44,17.37l-1.5,3.56-60.73-35.06,1.49-3.56c2.5-5.95,5.34-11.77,8.44-17.37l60.73,35.06Z" style="fill:#fff;"/><path d="M260.01,560.29c-8.2-.23-17.22,1.8-26.65,6.12-2.55,1.16-5.14,2.5-7.74,4-6.33,3.65-12.53,8.16-18.49,13.36-7.02,6.13-13.69,13.23-19.82,21.08-5.71,7.27-10.94,15.16-15.55,23.51-3.11,5.6-5.94,11.41-8.44,17.37l-1.5,3.56,13.39-7.73c11.86-25.23,30.39-46.75,50.41-58.31,20.02-11.57,38.56-11.43,50.42.1l13.39-7.73-1.5-1.83c-2.93-3.58-6.31-6.46-10.05-8.62" style="fill:none; stroke:#3d3d3d; stroke-linecap:round; stroke-linejoin:round; stroke-width:3px;"/><path d="M277.67,565.05c-5.24-2.98-11.19-4.57-17.66-4.75" style="fill:none; stroke:#3d3d3d; stroke-linecap:round; stroke-linejoin:round; stroke-width:3px;"/><path d="M161.81,649.29l-60.73-35.06,1.49-3.56c2.5-5.95,5.34-11.77,8.44-17.37,4.63-8.36,9.86-16.26,15.56-23.52,6.13-7.84,12.8-14.94,19.81-21.07,5.96-5.2,12.16-9.71,18.5-13.36,2.6-1.5,5.19-2.83,7.74-4,9.44-4.31,18.46-6.35,26.67-6.11,6.54.19,12.56,1.8,17.85,4.86l60.52,34.95.2.12" style="fill:none; stroke:#3d3d3d; stroke-linecap:round; stroke-linejoin:round; stroke-width:3px;"/><polyline points="171.75 628.36 111.02 593.3 111.01 593.3" style="fill:none; stroke:#3d3d3d; stroke-linecap:round; stroke-linejoin:round; stroke-width:3px;"/><polyline points="187.3 604.84 126.58 569.78 126.57 569.78" style="fill:none; stroke:#3d3d3d; stroke-linecap:round; stroke-linejoin:round; stroke-width:3px;"/><line x1="207.13" y1="583.78" x2="146.39" y2="548.71" style="fill:none; stroke:#3d3d3d; stroke-linecap:round; stroke-linejoin:round; stroke-width:3px;"/><line x1="233.36" y1="566.41" x2="172.63" y2="531.35" style="fill:none; stroke:#3d3d3d; stroke-linecap:round; stroke-linejoin:round; stroke-width:3px;"/><polyline points="260.02 560.29 260.01 560.29 199.3 525.24 199.28 525.23" style="fill:none; stroke:#3d3d3d; stroke-linecap:round; stroke-linejoin:round; stroke-width:3px;"/></g><g id="aa"><polygon id="ac" points="350.93 480.44 402.36 509.83 427.2 511.23 475.83 483.24 446.79 467.84 350.93 480.44" style="fill:url(#ab);"/><path d="M451.09,420.66v59.67c0,.75-.4,1.45-1.05,1.83l-45.97,26.54c-1.7.98-4.48.98-6.18,0l-7.93-4.58c-.85-.49-1.28-1.14-1.28-1.79v-62.51h0c0,.64.43,1.29,1.27,1.79l1.84,1.06,6.09,3.51c1.7.98,4.48.98,6.18,0l41.4-23.9,4.22-2.44c.63-.36,1.4.09,1.4.81Z" style="fill:#e6ebee;"/><path d="M445.46,422.28l-41.4,23.9c-1.7.98-4.48.98-6.18,0l-6.09-3.51,44.72-25.84.46.28,8.48,5.18Z" style="fill:#fff;"/><path d="M436.98,412.51v4.6l-.46-.28-44.72,25.84-1.84-1.06c-.85-.49-1.27-1.14-1.27-1.79s.43-1.3,1.27-1.79l39.41-22.75h0s6.21-3.59,6.21-3.59c.63-.36,1.4.09,1.4.81Z" style="fill:#023452;"/><path d="M429.36,415.28h0s-39.41,22.75-39.41,22.75c-.85.49-1.27,1.14-1.27,1.79h0v52.67l-6.34,3.66c-1.7.98-4.48.98-6.18,0l-7.93-4.58c-.85-.49-1.28-1.14-1.28-1.78v-62.51h0c0,.64.42,1.29,1.27,1.78l1.57.91h0l6.35,3.67c1.7.98,4.48.98,6.18,0l41.4-23.9,4.22-2.44c.63-.36,1.41.09,1.41.81v7.17Z" style="fill:#023452;"/><path d="M423.73,409.74l-41.4,23.9c-1.7.98-4.48.98-6.18,0l-6.35-3.67,45.1-26.29.35.24,8.48,5.82Z" style="fill:#fff;"/><path d="M415.25,399.96v3.96l-.35-.24-45.1,26.29h0l-1.57-.91c-.85-.49-1.27-1.14-1.27-1.78s.42-1.3,1.27-1.79l41.27-23.83,4.35-2.51c.63-.36,1.41.09,1.41.81Z" style="fill:#023452;"/><path d="M366.95,427.28v54.82l-4.47,2.59c-1.7.98-4.48.98-6.18,0l-7.93-4.58c-.86-.5-1.28-1.14-1.28-1.79v-62.51h0c0,.65.43,1.29,1.28,1.78l1.35.78h0l6.57,3.8c1.7.98,4.48.98,6.18,0l41.39-23.9,4.22-2.44c.63-.36,1.41.09,1.41.81v5.02l-41.27,23.83c-.85.49-1.27,1.14-1.27,1.79h0Z" style="fill:#e6ebee;"/><path d="M403.87,398.27l-41.39,23.9c-1.7.98-4.48.98-6.18,0l-6.57-3.8,44.85-26.16.82.53,8.48,5.53Z" style="fill:#fff;"/><path d="M395.39,388.5v4.25l-.82-.53-44.85,26.16h0l-1.35-.78c-.85-.49-1.28-1.13-1.28-1.78s.43-1.29,1.28-1.79l45.62-26.34c.63-.36,1.41.09,1.41.81Z" style="fill:#023452;"/><path d="M349.72,418.37l6.57,3.8c1.7.98,4.48.98,6.18,0l41.39-23.9,4.22-2.44c.63-.36,1.41.09,1.41.81v5.02" style="fill:none; stroke:#3d3d3d; stroke-linecap:round; stroke-linejoin:round; stroke-width:3px;"/><path d="M395.39,392.74v-4.25c0-.72-.78-1.18-1.41-.81l-45.62,26.34c-.85.49-1.28,1.14-1.28,1.79s.43,1.29,1.28,1.78l1.35.78" style="fill:none; stroke:#3d3d3d; stroke-linecap:round; stroke-linejoin:round; stroke-width:3px;"/><path d="M366.95,482.1l-4.47,2.59c-1.7.98-4.48.98-6.18,0l-7.93-4.58c-.86-.5-1.28-1.14-1.28-1.79v-62.51" style="fill:none; stroke:#3d3d3d; stroke-linecap:round; stroke-linejoin:round; stroke-width:3px;"/><polyline points="403.87 398.27 395.39 392.74 394.57 392.21 349.72 418.37 349.71 418.37" style="fill:none; stroke:#3d3d3d; stroke-linecap:round; stroke-linejoin:round; stroke-width:3px;"/><path d="M369.8,429.97l6.35,3.67c1.7.98,4.48.98,6.18,0l41.4-23.9,4.22-2.44c.63-.36,1.41.09,1.41.81v7.17" style="fill:none; stroke:#3d3d3d; stroke-linecap:round; stroke-linejoin:round; stroke-width:3px;"/><path d="M415.25,403.92v-3.96c0-.72-.78-1.17-1.41-.81l-4.35,2.51-41.27,23.83c-.85.49-1.27,1.14-1.27,1.79s.42,1.29,1.27,1.78l1.57.91" style="fill:none; stroke:#3d3d3d; stroke-linecap:round; stroke-linejoin:round; stroke-width:3px;"/><path d="M388.68,492.49l-6.34,3.66c-1.7.98-4.48.98-6.18,0l-7.93-4.58c-.85-.49-1.28-1.14-1.28-1.78v-62.51h0" style="fill:none; stroke:#3d3d3d; stroke-linecap:round; stroke-linejoin:round; stroke-width:3px;"/><polyline points="423.73 409.74 415.25 403.92 414.9 403.68 369.8 429.97 369.8 429.97" style="fill:none; stroke:#3d3d3d; stroke-linecap:round; stroke-linejoin:round; stroke-width:3px;"/><path d="M436.98,417.1v-4.6c0-.72-.78-1.17-1.4-.81l-6.21,3.58h0s-39.41,22.75-39.41,22.75c-.85.49-1.27,1.14-1.27,1.79s.43,1.29,1.27,1.79l1.84,1.06,6.09,3.51c1.7.98,4.48.98,6.18,0l41.4-23.9,4.22-2.44c.63-.36,1.4.09,1.4.81v59.67c0,.75-.4,1.45-1.05,1.83l-45.97,26.54c-1.7.98-4.48.98-6.18,0l-7.93-4.58c-.85-.49-1.28-1.14-1.28-1.79v-62.51" style="fill:none; stroke:#3d3d3d; stroke-linecap:round; stroke-linejoin:round; stroke-width:3px;"/><polyline points="445.46 422.28 436.98 417.1 436.52 416.82 391.8 442.67" style="fill:none; stroke:#3d3d3d; stroke-linecap:round; stroke-linejoin:round; stroke-width:3px;"/></g><g id="ad"><g id="ae"><polygon points="563.39 134.98 563.39 225.89 484.64 271.35 484.64 180.44 563.39 134.98" style="fill:#023452;"/><polygon points="563.39 134.98 484.64 180.44 405.91 134.98 484.64 89.52 563.39 134.98" style="fill:#fff;"/><polygon points="484.64 180.44 484.64 271.35 405.91 225.89 405.91 134.98 484.64 180.44" style="fill:#fff;"/><polygon points="405.91 134.98 484.64 89.52 563.39 134.98 484.64 180.44 405.91 134.98" style="fill:none; stroke:#3d3d3d; stroke-linecap:round; stroke-linejoin:round; stroke-width:3px;"/><line x1="484.64" y1="180.44" x2="484.64" y2="271.35" style="fill:none; stroke:#3d3d3d; stroke-linecap:round; stroke-linejoin:round; stroke-width:3px;"/><polyline points="405.91 134.98 405.91 225.89 484.64 271.35 563.39 225.89 563.39 134.98" style="fill:none; stroke:#3d3d3d; stroke-linecap:round; stroke-linejoin:round; stroke-width:3px;"/></g><path d="M439.93,106.32c-1.09-.63-2.18-1.25-3.27-1.87-13.07-7.44-26.25-14.68-42-23.33,35.43-19.1,59.42-32.43,89.05-51.42,32.06,19.97,53.28,32.01,89.05,51.42-15.32,8.45-27.99,15.52-40.43,22.64-1.12.64-2.24,1.28-3.36,1.92-13.98,8.03-27.93,16.3-45.26,26.85-16.53-10.32-30.21-18.46-43.78-26.22Z" style="fill:#ccd6dc;"/><path d="M528.97,117.7v8.77c0,6.58-4.35,13.15-13.02,18.18-17.4,10.04-45.6,10.04-62.98,0-8.69-5.03-13.04-11.6-13.04-18.18v-8.77c0,6.58,4.35,13.15,13.04,18.18,17.37,10.04,45.58,10.04,62.98,0,8.67-5.03,13.02-11.6,13.02-18.18Z" style="fill:#023452;"/><path d="M528.97,105.69v12.01c0,6.58-4.35,13.15-13.02,18.18-17.4,10.04-45.6,10.04-62.98,0-8.69-5.03-13.04-11.6-13.04-18.18v-11.38c13.57,7.76,27.25,15.9,43.78,26.22,17.33-10.55,31.28-18.82,45.26-26.85Z" style="fill:#819aa9;"/><path d="M394.66,109.28l5.35,12.5.04.09,1.23,2.86c.62,1.33.03,2.81-1.77,3.84-1.34.77-3.09,1.16-4.85,1.16s-3.5-.39-4.85-1.16c-1.8-1.04-2.39-2.52-1.76-3.84l1.26-2.95,5.35-12.5Z" style="fill:#fff;"/><path d="M439.93,106.31h0v20.16c0,6.58,4.35,13.15,13.04,18.18,17.37,10.04,45.58,10.04,62.98,0,8.67-5.03,13.02-11.6,13.02-18.18v-20.77" style="fill:none; stroke:#3d3d3d; stroke-linecap:round; stroke-linejoin:round; stroke-width:3px;"/><path d="M439.93,117.7c0,6.58,4.35,13.15,13.04,18.18,17.37,10.04,45.58,10.04,62.98,0,8.67-5.03,13.02-11.6,13.02-18.18" style="fill:none; stroke:#3d3d3d; stroke-linecap:round; stroke-linejoin:round; stroke-width:3px;"/><path d="M394.66,81.13c15.75,8.65,28.94,15.88,42,23.33,1.09.62,2.18,1.24,3.27,1.87,13.57,7.76,27.25,15.9,43.78,26.22,17.33-10.55,31.28-18.82,45.26-26.85,1.12-.64,2.24-1.28,3.36-1.92,12.45-7.12,25.12-14.19,40.43-22.64-35.77-19.42-56.99-31.46-89.05-51.42-29.63,19-53.62,32.33-89.05,51.42Z" style="fill:none; stroke:#3d3d3d; stroke-linecap:round; stroke-linejoin:round; stroke-width:3px;"/><polyline points="394.66 81.13 394.66 109.28 394.66 109.89" style="fill:none; stroke:#3d3d3d; stroke-linecap:round; stroke-linejoin:round; stroke-width:3px;"/><path d="M400,121.78l-5.35-12.5-5.35,12.5-1.26,2.95c-.63,1.33-.04,2.81,1.76,3.84,1.35.77,3.09,1.16,4.85,1.16s3.51-.39,4.85-1.16c1.8-1.04,2.39-2.52,1.77-3.84l-1.23-2.86" style="fill:none; stroke:#3d3d3d; stroke-linecap:round; stroke-linejoin:round; stroke-width:3px;"/></g><g id="af"><g id="ag"><polygon points="612.33 248.91 612.33 267.1 560.6 296.97 560.6 278.77 612.33 248.91" style="fill:#678597;"/><polygon points="612.33 248.91 560.6 278.77 544.85 269.68 596.58 239.81 612.33 248.91" style="fill:#fff;"/><polygon points="596.58 221.62 596.58 239.81 544.85 269.68 544.85 251.49 596.58 221.62" style="fill:#678597;"/><polygon points="596.58 221.62 544.85 251.49 529.09 242.39 580.81 212.52 596.58 221.62" style="fill:#fff;"/><polygon points="580.81 194.33 580.81 212.52 529.09 242.39 529.09 224.19 580.81 194.33" style="fill:#678597;"/><polygon points="580.81 194.33 529.09 224.19 500.25 207.54 551.97 177.68 580.81 194.33" style="fill:#fff;"/><polygon points="560.6 278.77 560.6 296.97 544.85 287.87 529.09 278.77 500.25 262.12 500.25 207.54 529.09 224.19 529.09 242.39 544.85 251.49 544.85 269.68 560.6 278.77" style="fill:#e6ebee;"/><polygon points="544.85 269.68 544.85 251.49 529.09 242.39 529.09 224.19 500.25 207.54 500.25 262.12 529.09 278.77 544.85 287.87 560.6 296.97 560.6 278.77 544.85 269.68" style="fill:none; stroke:#3d3d3d; stroke-linecap:round; stroke-linejoin:round; stroke-width:3px;"/><polyline points="500.25 207.54 551.97 177.68 580.81 194.33 580.81 212.52 596.58 221.62 596.58 239.81 612.33 248.91 612.33 267.1 560.6 296.97" style="fill:none; stroke:#3d3d3d; stroke-linecap:round; stroke-linejoin:round; stroke-width:3px;"/><line x1="529.09" y1="224.19" x2="580.81" y2="194.33" style="fill:none; stroke:#3d3d3d; stroke-linecap:round; stroke-linejoin:round; stroke-width:3px;"/><line x1="544.85" y1="251.49" x2="596.58" y2="221.62" style="fill:none; stroke:#3d3d3d; stroke-linecap:round; stroke-linejoin:round; stroke-width:3px;"/><line x1="560.6" y1="278.77" x2="612.33" y2="248.91" style="fill:none; stroke:#3d3d3d; stroke-linecap:round; stroke-linejoin:round; stroke-width:3px;"/><line x1="544.85" y1="269.68" x2="596.58" y2="239.81" style="fill:none; stroke:#3d3d3d; stroke-linecap:round; stroke-linejoin:round; stroke-width:3px;"/><line x1="529.09" y1="242.39" x2="580.81" y2="212.52" style="fill:none; stroke:#3d3d3d; stroke-linecap:round; stroke-linejoin:round; stroke-width:3px;"/></g></g><g id="ah"><polygon id="aj" points="760.44 252.88 730.12 253.81 713.92 238.92 706.27 255.86 664.3 266.17 694.88 274.38 700.42 287.09 723.89 276.05 752.09 282.65 749.96 279.51 741.01 266.29 760.44 252.88" style="fill:url(#ai);"/><polygon points="653.75 218.9 669.72 244.69 664.92 266.16 683.41 264.32 701.77 287.72 697.24 260.78 713.39 253.77 692.09 238.97 683.71 211.24 682.05 214.66 675.07 229.02 653.75 218.9" style="fill:#f47d20;"/><polygon points="653.75 218.9 675.07 229.02 682.05 214.66 670.67 209.26 653.75 218.9" style="fill:#fff;"/><polygon points="683.71 211.24 692.09 238.97 709 229.33 700.62 201.6 683.71 211.24" style="fill:#ccd6dc;"/><polygon points="692.09 238.97 713.39 253.77 714.49 253.14 730.3 244.13 709 229.33 692.09 238.97" style="fill:#fff;"/><polygon points="697.24 260.78 701.77 287.72 718.69 278.07 714.49 253.14 713.39 253.77 697.24 260.78" style="fill:#023452;"/><polygon points="653.75 218.9 669.72 244.69 664.92 266.16 683.41 264.32 701.77 287.72 697.24 260.78 713.39 253.77 692.09 238.97 683.71 211.24 682.05 214.66 675.07 229.02 653.75 218.9" style="fill:none; stroke:#3d3d3d; stroke-linecap:round; stroke-linejoin:round; stroke-width:3px;"/><polyline points="683.71 211.24 700.62 201.6 709 229.33 730.3 244.13 714.49 253.14 713.39 253.77" style="fill:none; stroke:#3d3d3d; stroke-linecap:round; stroke-linejoin:round; stroke-width:3px;"/><polyline points="714.49 253.14 718.69 278.07 701.77 287.72" style="fill:none; stroke:#3d3d3d; stroke-linecap:round; stroke-linejoin:round; stroke-width:3px;"/><polyline points="682.05 214.66 670.67 209.26 653.75 218.9" style="fill:none; stroke:#3d3d3d; stroke-linecap:round; stroke-linejoin:round; stroke-width:3px;"/><line x1="709" y1="229.33" x2="692.09" y2="238.97" style="fill:none; stroke:#3d3d3d; stroke-linecap:round; stroke-linejoin:round; stroke-width:3px;"/></g><g id="ak"><path id="am" d="M842.68,380.44c-4.81-3.61-12.38-3.28-18.14-3.1-7.45.23-10.33,7.48-8.6,12.92-.66.35-1.32.69-1.98,1.04-5.97,3.18-11.78,6.57-17.16,10.68-2.59,1.97-5.14,4.01-7.43,6.33-1.97,2-3.47,4.79-6.03,5.93-5.02,2.22-10.75.86-15.9,1.54-4.09.54-6.34,3.31-5.69,7.47,1.76,11.17,18.18,10.71,26.46,8.67,6.08-1.5,9.6-5.46,13.81-9.72,3.71-3.75,7.84-6.79,12.33-9.54,4.46-2.73,9.11-5.14,13.75-7.55,4.65-2.42,10.24-4.59,14.19-8.09,4.81-4.25,6.04-12.32.38-16.57Z" style="fill:url(#al);"/><path d="M830.09,338.92v47.03l-13.49,7.79v-47.03l13.49-7.79Z" style="fill:#023452;"/><polygon points="830.09 338.92 816.59 346.72 806.66 340.99 820.16 333.2 830.09 338.92" style="fill:#023452;"/><path d="M816.59,346.72v47.03c-2.79,1.8-6.93,3.24-12.35,9.13-5.28,5.73-9.14,7.25-17.56,12.07h0c.19-1.26-.03-2.64-.55-4.09l-1.07-2.82.44-.26c1.69-.98,2.15-2.89,1.56-4.43l-3.36-8.83-3.37-8.84-3.28-8.64-.08-.21c-.39-1.04-1.27-1.91-2.56-2.2-2.7-.6-5.48-.41-8.12,1.12l19.09-11.02c-2.24-11.84-5.39-28.09,1.29-39.41,1.73-3,4.4-4.32,5.98-3.5.03,0,.06.03.09.04.65.38,1.11,1.13,1.22,2.31.67,6.98,2.34,14.11,6.33,19.01h0c2.03,2.52,4.69,4.44,8.11,5.46,3.82,1.15,7.79-1.77,8.19-1.93Z" style="fill:#e6ebee;"/><path d="M766.29,375.76c2.64-1.53,5.43-1.72,8.12-1.12,1.29.28,2.16,1.16,2.56,2.2l.08.21c.47,1.5-.02,3.29-1.63,4.22l-6.28,3.62c-4.52,2.61-12.43,3.99-17.52,2.87-4.64-1.02-7.38-3.08-8.23-5.32-.88-2.31.23-4.82,3.35-6.62l28.13-16.24.58-.57c-2.24-11.91-5.37-28.11,1.3-39.42,1.76-3.06,4.49-4.36,6.07-3.45,0,0,.03.02.03.02h0s0,.02,0,.02c0,0,.02,0,.03,0,.02.02.03.03.05.03t.02,0s.03.02.04.03c.03.02.04.03.07.03t0,0h0s0,0,0,0,0,0,.02,0c0,0,.02,0,.02,0h0s.02.02.03.03c.02,0,.03.02.03.02.82.47,3.23,1.86,9.45,5.46-1.59-.82-4.25.5-5.98,3.5-6.68,11.32-3.53,27.57-1.29,39.41l-19.09,11.02Z" style="fill:#fff;"/><path d="M787.04,403.36c.58,1.54.13,3.45-1.56,4.43l-.44.26-5.84,3.37c-4.52,2.61-12.42,3.99-17.52,2.87-4.61-1.01-7.34-3.05-8.22-5.28l-.02-.04-3.36-8.84c.85,2.25,3.6,4.31,8.23,5.33,5.1,1.12,13.01-.27,17.52-2.88l6.28-3.62c1.69-.97,2.15-2.88,1.56-4.42l3.36,8.83Z" style="fill:#e6ebee;"/><path d="M786.12,410.86c.52,1.45.74,2.83.55,4.09-.29,1.94-1.52,3.61-4.02,4.87-19.38,9.7-25.48-1.23-26.72-4.37l-2.46-6.46c.88,2.23,3.61,4.27,8.22,5.28,5.1,1.12,13.01-.26,17.52-2.87l5.84-3.37,1.07,2.82Z" style="fill:#e6ebee;"/><path d="M783.69,394.52c.58,1.54.13,3.45-1.56,4.42l-6.28,3.62c-4.52,2.61-12.42,3.99-17.52,2.88-4.64-1.02-7.38-3.08-8.23-5.33l-3.37-8.84h0c.85,2.25,3.6,4.31,8.23,5.33,5.1,1.12,13-.26,17.52-2.87l6.28-3.62c1.69-.98,2.15-2.89,1.55-4.43l3.37,8.84Z" style="fill:#e6ebee;"/><path d="M780.32,385.68c.59,1.54.14,3.45-1.55,4.43l-6.28,3.62c-4.52,2.61-12.42,3.98-17.52,2.87-4.64-1.02-7.38-3.08-8.23-5.33h0l-3.36-8.83h0c.85,2.24,3.6,4.3,8.23,5.32,5.09,1.12,13-.26,17.52-2.87l6.28-3.62c1.61-.94,2.1-2.72,1.63-4.22l3.28,8.64Z" style="fill:#e6ebee;"/><path d="M800.29,343.19c2.03,2.52,4.69,4.44,8.11,5.46,3.82,1.15,7.79-1.77,8.19-1.93v47.03" style="fill:none; stroke:#3d3d3d; stroke-linecap:round; stroke-linejoin:round; stroke-width:3px;"/><path d="M792.74,321.86c.65.38,1.11,1.13,1.22,2.31.67,6.98,2.34,14.11,6.33,19.01" style="fill:none; stroke:#3d3d3d; stroke-linecap:round; stroke-linejoin:round; stroke-width:3px;"/><path d="M761.72,378.39l4.57-2.64,19.09-11.02c-2.24-11.84-5.39-28.09,1.29-39.41,1.73-3,4.4-4.32,5.98-3.5" style="fill:none; stroke:#3d3d3d; stroke-linecap:round; stroke-linejoin:round; stroke-width:3px;"/><path d="M782.81,316.14s.03.02.03.02h0s0,.02,0,.02c0,0,.02,0,.03,0,.02.02.03.03.05.03t.02,0s.03.02.04.03c.03.02.04.03.07.03t0,0h0s0,0,0,0,0,0,.02,0c0,0,.02,0,.02,0h0s.02.02.03.03c.02,0,.03.02.03.02.82.47,3.23,1.86,9.45,5.46.03,0,.06.03.09.04" style="fill:none; stroke:#3d3d3d; stroke-linecap:round; stroke-linejoin:round; stroke-width:3px;"/><path d="M782.81,316.14c-1.58-.91-4.31.39-6.07,3.45-6.67,11.31-3.54,27.51-1.3,39.42" style="fill:none; stroke:#3d3d3d; stroke-linecap:round; stroke-linejoin:round; stroke-width:3px;"/><line x1="806.66" y1="340.99" x2="816.59" y2="346.72" style="fill:none; stroke:#3d3d3d; stroke-linecap:round; stroke-linejoin:round; stroke-width:3px;"/><path d="M800.28,343.19h0c3.17.03,5.85-1.96,6.37-2.21h0" style="fill:none; stroke:#3d3d3d; stroke-linecap:round; stroke-linejoin:round; stroke-width:3px;"/><path d="M786.68,414.95c8.42-4.82,12.28-6.34,17.56-12.07,5.43-5.9,9.56-7.33,12.35-9.13l13.49-7.79v-47.03l-9.92-5.73-13.5,7.79" style="fill:none; stroke:#3d3d3d; stroke-linecap:round; stroke-linejoin:round; stroke-width:3px;"/><line x1="816.59" y1="346.72" x2="830.09" y2="338.92" style="fill:none; stroke:#3d3d3d; stroke-linecap:round; stroke-linejoin:round; stroke-width:3px;"/><path d="M777.04,377.04c.47,1.5-.02,3.29-1.63,4.22l-6.28,3.62c-4.52,2.61-12.43,3.99-17.52,2.87-4.64-1.02-7.38-3.08-8.23-5.32-.88-2.31.23-4.82,3.35-6.62l28.13-16.24" style="fill:none; stroke:#3d3d3d; stroke-linecap:round; stroke-linejoin:round; stroke-width:3px;"/><path d="M766.29,375.76c2.64-1.53,5.43-1.72,8.12-1.12,1.29.28,2.16,1.16,2.56,2.2" style="fill:none; stroke:#3d3d3d; stroke-linecap:round; stroke-linejoin:round; stroke-width:3px;"/><path d="M776.97,376.84l.08.21,3.28,8.64c.59,1.54.14,3.45-1.55,4.43l-6.28,3.62c-4.52,2.61-12.42,3.98-17.52,2.87-4.64-1.02-7.38-3.08-8.23-5.33" style="fill:none; stroke:#3d3d3d; stroke-linecap:round; stroke-linejoin:round; stroke-width:3px;"/><path d="M780.32,385.68l3.37,8.84c.58,1.54.13,3.45-1.56,4.42l-6.28,3.62c-4.52,2.61-12.42,3.99-17.52,2.88-4.64-1.02-7.38-3.08-8.23-5.33" style="fill:none; stroke:#3d3d3d; stroke-linecap:round; stroke-linejoin:round; stroke-width:3px;"/><path d="M783.69,394.52l3.36,8.83c.58,1.54.13,3.45-1.56,4.43l-.44.26-5.84,3.37c-4.52,2.61-12.42,3.99-17.52,2.87-4.61-1.01-7.34-3.05-8.22-5.28" style="fill:none; stroke:#3d3d3d; stroke-linecap:round; stroke-linejoin:round; stroke-width:3px;"/><path d="M785.04,408.04l1.07,2.82c.52,1.45.74,2.83.55,4.09-.29,1.94-1.52,3.61-4.02,4.87-19.38,9.7-25.48-1.23-26.72-4.37l-2.46-6.46-.02-.04-3.36-8.84-3.37-8.84-3.36-8.83" style="fill:none; stroke:#3d3d3d; stroke-linecap:round; stroke-linejoin:round; stroke-width:3px;"/></g><g id="an"><path id="ap" d="M622.77,623.25l-33.27-19.21c-2.63,1.57-5.22,3.19-7.81,4.74-34.52,18.08-67.81,34.92-101.73,50.99l39.78,22.97c2.73,1.59,7.51,1.39,10.67-.44,1.04-.6,5.9-3.4,12.88-7.43,24.61-14.2,75.59-43.64,78.72-45.45,1.71-.98,2.6-2.25,2.61-3.46v-.17c-.04-.95-.66-1.86-1.84-2.54Z" style="fill:url(#ao);"/><path d="M601.59,614.18v.17c-.01,1.2-.89,2.46-2.61,3.46-3.13,1.8-54.11,31.23-78.71,45.44-6.98,4.04-11.84,6.85-12.88,7.44-3.16,1.82-7.94,2.02-10.67.44l-95.98-55.41c-1.25-.72-1.86-1.68-1.84-2.68h0v-9.48c0,1.01.61,1.94,1.84,2.65l95.98,55.41c2.73,1.59,7.51,1.39,10.67-.44,1.04-.6,5.9-3.4,12.88-7.43,24.61-14.2,75.59-43.64,78.71-45.45,1.71-.98,2.6-2.25,2.61-3.46v9.34Z" style="fill:#023452;"/><path d="M601.59,604.67v.17c-.01,1.2-.89,2.47-2.61,3.46-3.13,1.81-54.11,31.25-78.71,45.45l-44.23-25.55c2.3-1.33,2.3-3.49-.01-4.82-2.3-1.34-6.04-1.34-8.35-.01l-53.29-30.76c24.35-14.06,74.45-42.99,78.71-45.45,3.05-1.76,7.84-2.07,10.68-.44l95.97,55.41c1.18.68,1.8,1.59,1.84,2.54ZM532.02,611.79c12.41-7.17,12.41-18.79,0-25.95-12.41-7.17-32.54-7.17-44.95,0-12.41,7.16-12.43,18.79-.01,25.95,12.43,7.17,32.55,7.17,44.96,0Z" style="fill:#fff;"/><path d="M532.02,585.83c12.41,7.17,12.41,18.79,0,25.95-12.41,7.17-32.54,7.17-44.96,0-12.41-7.17-12.4-18.8.01-25.95,12.41-7.17,32.54-7.17,44.95,0ZM519.55,605.43c.87.12,1.66-.33,1.46-.84l-5.95-15.03c-.21-.54-1.37-.74-2.05-.34l-20.08,11.6c-.68.39-.34,1.06.59,1.18l26.04,3.43Z" style="fill:#f47d20;"/><path d="M521.01,604.59c.2.51-.59.96-1.46.84l-26.04-3.43c-.93-.12-1.27-.8-.59-1.18l20.08-11.6c.68-.4,1.84-.2,2.05.34l5.95,15.03Z" style="fill:#023452;"/><path d="M476.03,628.2l44.23,25.55c-6.98,4.03-11.84,6.84-12.88,7.43-3.16,1.83-7.94,2.03-10.67.44l-95.98-55.41c-1.24-.71-1.84-1.65-1.84-2.65h0v-.02c-.01-1.21.88-2.49,2.61-3.49,1.1-.63,5.95-3.43,12.88-7.43l53.29,30.76c-2.31,1.34-2.3,3.5,0,4.83,2.31,1.34,6.05,1.34,8.36,0Z" style="fill:#819aa9;"/><path d="M476.02,623.38c2.31,1.33,2.31,3.49.01,4.82-2.31,1.34-6.05,1.34-8.36,0-2.3-1.33-2.31-3.49,0-4.83,2.31-1.33,6.05-1.33,8.35.01Z" style="fill:#fff;"/><path d="M398.9,603.55h0c-.01-1.23.88-2.5,2.61-3.5,1.1-.63,5.95-3.43,12.88-7.43,24.35-14.06,74.45-42.99,78.71-45.45,3.05-1.76,7.84-2.07,10.68-.44l95.97,55.41c1.18.68,1.8,1.59,1.84,2.54v9.51" style="fill:none; stroke:#3b3d3d; stroke-linecap:round; stroke-linejoin:round; stroke-width:3px;"/><path d="M601.59,604.84c-.01,1.2-.89,2.47-2.61,3.46-3.13,1.81-54.11,31.25-78.71,45.45-6.98,4.03-11.84,6.84-12.88,7.43-3.16,1.83-7.94,2.03-10.67.44l-95.98-55.41c-1.24-.71-1.84-1.65-1.84-2.65" style="fill:none; stroke:#3b3d3d; stroke-linecap:round; stroke-linejoin:round; stroke-width:3px;"/><path d="M532.02,611.79c12.41-7.17,12.41-18.79,0-25.95-12.41-7.17-32.54-7.17-44.95,0-12.41,7.16-12.43,18.79-.01,25.95,12.43,7.17,32.55,7.17,44.96,0Z" style="fill:none; stroke:#3b3d3d; stroke-linecap:round; stroke-linejoin:round; stroke-width:3px;"/><path d="M493.51,601.99l26.04,3.43c.87.12,1.66-.33,1.46-.84l-5.95-15.03c-.21-.54-1.37-.74-2.05-.34l-20.08,11.6c-.68.39-.34,1.06.59,1.18Z" style="fill:none; stroke:#3b3d3d; stroke-linecap:round; stroke-linejoin:round; stroke-width:3px;"/><line x1="414.38" y1="592.61" x2="467.67" y2="623.37" style="fill:none; stroke:#3b3d3d; stroke-linecap:round; stroke-linejoin:round; stroke-width:3px;"/><line x1="476.03" y1="628.2" x2="520.27" y2="653.75" style="fill:none; stroke:#3b3d3d; stroke-linecap:round; stroke-linejoin:round; stroke-width:3px;"/><path d="M476.03,628.2c2.3-1.33,2.3-3.49-.01-4.82-2.3-1.34-6.04-1.34-8.35-.01-2.31,1.34-2.3,3.5,0,4.83,2.31,1.34,6.05,1.34,8.36,0Z" style="fill:none; stroke:#3b3d3d; stroke-linecap:round; stroke-linejoin:round; stroke-width:3px;"/><path d="M398.9,603.55h0v9.48h0c-.01,1.02.6,1.98,1.84,2.69l95.98,55.41c2.73,1.58,7.51,1.38,10.67-.44,1.04-.6,5.9-3.4,12.88-7.44,24.61-14.2,75.59-43.64,78.71-45.44,1.71-.99,2.6-2.25,2.61-3.46" style="fill:none; stroke:#3b3d3d; stroke-linecap:round; stroke-linejoin:round; stroke-width:3px;"/></g><g id="aq"><path id="ar" d="M620.48,549.59c.41.79-.03,1.67-1.38,2.46l-59.28,34.22c-2.7,1.56-8.06,2.12-11.96,1.26l-37.72-8.36c-1.9-.42-3.12-1.11-3.53-1.87l-.03-.07c-.11-.18-.15-.37-.15-.57,0-.63.5-1.29,1.53-1.88l8.01-4.63c-8.66-.25-17.54.36-25.78,1.72,9.41-3.7,21.68-5.99,34.2-6.58l42.84-24.73c2.71-1.56,8.07-2.13,11.98-1.26l37.72,8.36c1.95.43,3.17,1.14,3.57,1.94Z" style="fill:url(#r); mix-blend-mode:multiply;"/><path d="M567.73,448.72v55.32c0,3.66-2.57,8.11-5.75,9.95l-50.24,29.01c-4.95,10.64-12.3,20.51-20.79,27.44,4.68-6.68,8.46-14.16,10.91-21.74l-9.4,5.42c-1.21.7-2.34.92-3.26.71-.29-.06-.56-.16-.79-.31l-.09-.05c-.98-.61-1.59-1.89-1.59-3.66v-55.32c0-3.65,2.57-8.11,5.74-9.94l69.52-40.14c1.59-.91,3.04-1.01,4.06-.4,1.05.6,1.69,1.89,1.69,3.72ZM547.58,494.86c2.51-1.44,4.54-4.95,4.54-7.85s-2.03-4.07-4.54-2.62c-2.5,1.44-4.53,4.96-4.53,7.86s2.03,4.06,4.53,2.61ZM529.45,505.34c2.5-1.44,4.53-4.96,4.53-7.86s-2.03-4.06-4.53-2.62c-2.51,1.45-4.54,4.96-4.54,7.86s2.03,4.06,4.54,2.62ZM511.3,515.81c2.51-1.45,4.54-4.96,4.54-7.86s-2.03-4.06-4.54-2.62-4.54,4.96-4.54,7.86,2.03,4.06,4.54,2.62Z" style="fill:#fff;"/><path d="M552.12,487.01c0,2.89-2.03,6.41-4.54,7.85-2.5,1.45-4.53.27-4.53-2.61s2.03-6.42,4.53-7.86c2.51-1.45,4.54-.27,4.54,2.62Z" style="fill:#023452;"/><path d="M533.97,497.48c0,2.89-2.03,6.42-4.53,7.86-2.51,1.44-4.54.27-4.54-2.62s2.03-6.41,4.54-7.86c2.5-1.44,4.53-.27,4.53,2.62Z" style="fill:#023452;"/><path d="M515.84,507.96c0,2.89-2.03,6.41-4.54,7.86-2.51,1.44-4.54.26-4.54-2.62s2.03-6.42,4.54-7.86,4.54-.27,4.54,2.62Z" style="fill:#023452;"/><path d="M488.32,554.46c-.98-.61-1.59-1.89-1.59-3.66v-55.32c0-3.65,2.57-8.11,5.74-9.94l69.52-40.14c1.59-.91,3.04-1.01,4.06-.4,1.05.6,1.69,1.89,1.69,3.72v55.32c0,3.66-2.57,8.11-5.75,9.95l-50.24,29.01c-4.95,10.64-12.3,20.51-20.79,27.44,4.68-6.68,8.46-14.16,10.91-21.74l-9.4,5.42c-1.21.7-2.34.92-3.26.71-.29-.06-.56-.16-.79-.31" style="fill:none; stroke:#3d3d3d; stroke-linecap:round; stroke-linejoin:round; stroke-width:3px;"/><path d="M515.84,507.96c0,2.89-2.03,6.41-4.54,7.86-2.51,1.44-4.54.26-4.54-2.62s2.03-6.42,4.54-7.86,4.54-.27,4.54,2.62Z" style="fill:none; stroke:#3d3d3d; stroke-linecap:round; stroke-linejoin:round; stroke-width:3px;"/><path d="M533.97,497.48c0,2.89-2.03,6.42-4.53,7.86-2.51,1.44-4.54.27-4.54-2.62s2.03-6.41,4.54-7.86c2.5-1.44,4.53-.27,4.53,2.62Z" style="fill:none; stroke:#3d3d3d; stroke-linecap:round; stroke-linejoin:round; stroke-width:3px;"/><path d="M552.12,487.01c0,2.89-2.03,6.41-4.54,7.85-2.5,1.45-4.53.27-4.53-2.61s2.03-6.42,4.53-7.86c2.51-1.45,4.54-.27,4.54,2.62Z" style="fill:none; stroke:#3d3d3d; stroke-linecap:round; stroke-linejoin:round; stroke-width:3px;"/></g><g id="as"><polygon id="au" points="585.87 405.26 637.38 384.66 576.72 372.64 585.87 405.26" style="fill:url(#at);"/><polygon points="576.2 336.53 547.7 392.56 584.59 404.17 576.2 336.53" style="fill:#fff;"/><polygon points="576.2 336.53 584.59 404.17 604.7 382.87 576.2 336.53" style="fill:#023452;"/><polyline points="584.59 404.17 576.2 336.53 547.7 392.56 584.59 404.17 604.7 382.87 576.2 336.53" style="fill:none; stroke:#3d3d3d; stroke-linecap:round; stroke-linejoin:round; stroke-width:3px;"/></g><g id="av"><polygon points="321.9 311.75 286.88 350.35 286.88 313.6 321.9 311.75" style="fill:#f47d20;"/><path d="M295.87,383.35v12.31c0,1.35-.89,2.72-2.69,3.75-3.59,2.07-9.42,2.07-13.01,0-1.79-1.04-2.69-2.4-2.69-3.75v-12.36c0,1.35.89,2.72,2.69,3.75,3.59,2.07,9.42,2.07,13.01,0,1.77-1.03,2.67-2.35,2.69-3.7Z" style="fill:#023452;"/><path d="M286.88,377.99c2.29.02,4.56.54,6.31,1.55,1.79,1.04,2.69,2.4,2.69,3.75v.06c-.02,1.34-.92,2.67-2.69,3.7-3.59,2.07-9.42,2.07-13.01,0-1.79-1.04-2.69-2.4-2.69-3.75s.89-2.72,2.69-3.75c1.84-1.07,4.28-1.58,6.7-1.55Z" style="fill:#819aa9;"/><path d="M295.87,383.35c-.02,1.34-.92,2.67-2.69,3.7-3.59,2.07-9.42,2.07-13.01,0-1.79-1.04-2.69-2.4-2.69-3.75s.89-2.72,2.69-3.75c1.84-1.07,4.28-1.58,6.7-1.55,2.29.02,4.56.54,6.31,1.55,1.79,1.04,2.69,2.4,2.69,3.75" style="fill:none; stroke:#3d3d3d; stroke-linecap:round; stroke-linejoin:round; stroke-width:3px;"/><path d="M295.87,383.29v12.36c0,1.35-.89,2.72-2.69,3.75-3.59,2.07-9.42,2.07-13.01,0-1.79-1.04-2.69-2.4-2.69-3.75v-12.36" style="fill:none; stroke:#3d3d3d; stroke-linecap:round; stroke-linejoin:round; stroke-width:3px;"/><polygon points="286.88 350.35 286.88 313.6 321.9 311.75 286.88 350.35" style="fill:none; stroke:#3d3d3d; stroke-linecap:round; stroke-linejoin:round; stroke-width:3px;"/><line x1="286.88" y1="350.35" x2="286.88" y2="350.36" style="fill:none; stroke:#3d3d3d; stroke-linecap:round; stroke-linejoin:round; stroke-width:3px;"/><polyline points="286.88 383.4 286.88 377.99 286.88 350.36" style="fill:none; stroke:#3d3d3d; stroke-linecap:round; stroke-linejoin:round; stroke-width:3px;"/></g><g id="aw"><path id="ax" d="M333.15,657.95l-13.45,7.77-16.61-9.68-14.04,8.78-12.87-5.66,1.75-3.67,12.04-6.95-15.66-9.03,13.45-7.77,15.65,9.04,15.19-8.78,14.18,8.18-15.19,8.78,12.02,6.95h.01l3.52,2.03ZM353.21,644.46l-10.51,6.07,8.93,5.15-8.93,5.16-28.49,25.04,13.45-.66,48.08-27.76-22.53-13.01Z" style="fill:url(#r);"/><path d="M378.69,664.54l3.71,2.14-13,7.51,8.04,4.64-3.02,1.75-11.74-6.78,16.02-9.25Z" style="fill:#023452;"/><path d="M391.87,687.22l-2.98,1.72-12.41-7.16,16.02-9.25,12.11,6.99-2.98,1.72-8.42-4.86-3.48,2.01,7.44,4.3-2.88,1.66-7.44-4.3-3.71,2.14,8.72,5.03Z" style="fill:#023452;"/><path d="M423.06,690.16l-22.96,5.25-3.66-2.11,9.11-13.24,4.01,2.31-6.57,9.42,16.39-3.75,3.69,2.13Z" style="fill:#023452;"/><path d="M423.74,705.62l-2.98,1.72-12.41-7.16,16.02-9.25,12.11,6.99-2.98,1.72-8.42-4.86-3.48,2.01,7.44,4.3-2.88,1.66-7.44-4.3-3.71,2.14,8.72,5.03Z" style="fill:#023452;"/><path d="M439.74,699.79l3.71,2.14-13,7.51,8.04,4.64-3.02,1.75-11.74-6.78,16.02-9.25Z" style="fill:#023452;"/><g id="ay"><polygon points="320.25 636.66 320.25 650.55 306.8 658.32 306.8 644.42 320.25 636.66" style="fill:#023452;"/><polygon points="320.25 636.66 306.8 644.42 291.24 635.43 276.04 644.21 261.87 636.02 265.03 634.19 277.07 627.25 261.4 618.21 274.86 610.45 290.5 619.49 305.7 610.71 319.88 618.9 304.69 627.68 316.71 634.62 316.73 634.62 320.25 636.66" style="fill:#fff;"/><polygon points="319.88 618.9 319.88 632.79 316.73 634.62 316.71 634.62 304.69 627.68 319.88 618.9" style="fill:#023452;"/><polygon points="306.8 644.42 306.8 658.32 291.24 649.32 276.04 658.1 276.04 644.21 291.24 635.43 306.8 644.42" style="fill:#023452;"/><polygon points="277.07 627.25 265.03 634.19 261.4 632.11 261.4 618.21 277.07 627.25" style="fill:#678597;"/><polygon points="276.04 644.21 276.04 658.1 261.87 649.92 261.87 636.02 276.04 644.21" style="fill:#678597;"/><polyline points="319.88 618.9 319.88 632.79 316.73 634.62" style="fill:none; stroke:#3d3d3d; stroke-linecap:round; stroke-linejoin:round; stroke-width:3px;"/><polyline points="320.25 636.66 320.25 650.55 306.8 658.32 291.24 649.32 276.04 658.1 261.87 649.92 261.87 636.02" style="fill:none; stroke:#3d3d3d; stroke-linecap:round; stroke-linejoin:round; stroke-width:3px;"/><polyline points="265.03 634.19 261.4 632.11 261.4 618.21" style="fill:none; stroke:#3d3d3d; stroke-linecap:round; stroke-linejoin:round; stroke-width:3px;"/><polygon points="306.8 644.42 291.24 635.43 276.04 644.21 261.87 636.02 265.03 634.19 277.07 627.25 261.4 618.21 274.86 610.45 290.5 619.49 305.7 610.71 319.88 618.9 304.69 627.68 316.71 634.62 316.73 634.62 320.25 636.66 306.8 644.42" style="fill:none; stroke:#3d3d3d; stroke-linecap:round; stroke-linejoin:round; stroke-width:3px;"/><line x1="306.8" y1="644.42" x2="306.8" y2="658.32" style="fill:none; stroke:#3d3d3d; stroke-linecap:round; stroke-linejoin:round; stroke-width:3px;"/><line x1="276.04" y1="658.1" x2="276.04" y2="644.21" style="fill:none; stroke:#3d3d3d; stroke-linecap:round; stroke-linejoin:round; stroke-width:3px;"/></g><g id="az"><g id="ba"><polygon points="362.84 636.17 362.84 656.71 314.76 684.47 314.76 663.93 362.84 636.17" style="fill:#023452;"/><polygon points="362.84 636.17 314.76 663.93 301.16 656.07 329.8 639.54 338.73 634.38 329.8 629.23 340.31 623.16 362.84 636.17" style="fill:#fff;"/><polygon points="338.73 634.38 329.8 639.54 329.8 629.23 338.73 634.38" style="fill:#678597;"/><polygon points="314.76 663.93 314.76 684.47 301.16 676.62 301.16 656.07 314.76 663.93" style="fill:#678597;"/><polygon points="362.84 636.17 314.76 663.93 301.16 656.07 329.8 639.54 338.73 634.38 329.8 629.23 340.31 623.16 362.84 636.17" style="fill:none; stroke:#3d3d3d; stroke-linecap:round; stroke-linejoin:round; stroke-width:3px;"/><polyline points="301.16 656.07 301.16 676.62 314.76 684.47 362.84 656.71 362.84 636.17" style="fill:none; stroke:#3d3d3d; stroke-linecap:round; stroke-linejoin:round; stroke-width:3px;"/><line x1="314.76" y1="684.47" x2="314.76" y2="663.93" style="fill:none; stroke:#3d3d3d; stroke-linecap:round; stroke-linejoin:round; stroke-width:3px;"/><line x1="329.8" y1="629.23" x2="329.8" y2="639.54" style="fill:none; stroke:#3d3d3d; stroke-linecap:round; stroke-linejoin:round; stroke-width:3px;"/></g></g><line x1="351.83" y1="680.95" x2="421.13" y2="720.96" style="fill:none; stroke:#92959c; stroke-linecap:round; stroke-linejoin:round; stroke-width:3px;"/></g><g id="bb"><polygon id="bd" points="495.67 289.84 473.9 274.42 473.9 282.49 452.8 267.54 452.8 275.93 432.96 261.87 382.74 274.23 402.95 288.82 396.21 294.05 398.77 304.24 424.32 304.24 437.67 313.88 452.8 303.76 452.81 312.13 473.9 297.19 473.9 305.25 495.67 289.84" style="fill:url(#bc);"/><polygon points="429.9 268.81 440.37 289.99 420.32 301.57 406.08 272.76 414.57 277.66 429.9 268.81" style="fill:#678597;"/><polygon points="423.12 242.81 434.62 266.08 429.9 268.81 414.57 277.66 399.43 247.04 407.61 251.76 423.12 242.81" style="fill:#678597;"/><polygon points="412.03 208.56 427.66 240.18 423.12 242.81 407.61 251.76 391.98 220.14 412.03 208.56" style="fill:#678597;"/><polygon points="406.08 272.76 420.32 301.57 403.3 291.74 391.9 285.16 391.9 285.16 363.63 268.84 377.88 256.48 369.39 251.57 384.52 238.43 376.35 233.71 391.98 220.14 407.61 251.76 399.43 247.04 414.57 277.66 406.08 272.76" style="fill:#fff;"/><path d="M403.3,295v4.66c0,.84-.56,1.68-1.67,2.32-2.22,1.28-5.83,1.28-8.06,0-1.11-.64-1.67-1.48-1.67-2.32v-14.49l11.4,6.58v3.25Z" style="fill:#023452;"/><polyline points="391.9 285.16 403.3 291.74 420.32 301.57 406.08 272.76 414.57 277.66 399.43 247.04 407.61 251.76 391.98 220.14 376.35 233.71 384.52 238.43 369.39 251.57 377.88 256.48 363.63 268.84 391.9 285.16" style="fill:none; stroke:#3d3d3d; stroke-linecap:round; stroke-linejoin:round; stroke-width:3px;"/><polyline points="420.32 301.57 440.37 289.99 429.9 268.81" style="fill:none; stroke:#3d3d3d; stroke-linecap:round; stroke-linejoin:round; stroke-width:3px;"/><polyline points="407.61 251.76 423.12 242.81 427.66 240.18 412.03 208.56 391.98 220.14" style="fill:none; stroke:#3d3d3d; stroke-linecap:round; stroke-linejoin:round; stroke-width:3px;"/><polyline points="414.57 277.66 429.9 268.81 434.62 266.08 423.12 242.81" style="fill:none; stroke:#3d3d3d; stroke-linecap:round; stroke-linejoin:round; stroke-width:3px;"/><path d="M403.3,291.74v7.91c0,.84-.56,1.68-1.67,2.32-2.22,1.28-5.83,1.28-8.06,0-1.11-.64-1.67-1.48-1.67-2.32v-14.49h0" style="fill:none; stroke:#3d3d3d; stroke-linecap:round; stroke-linejoin:round; stroke-width:3px;"/></g><g id="be"><path id="bi" d="M318.51,178.12h0c-4.46,2.58-11.7,2.58-16.17,0l-38.66-22.32c-4.46-2.58-4.46-6.76,0-9.33h0c4.46-2.58,11.7-2.58,16.17,0l38.66,22.32c4.46,2.58,4.46,6.76,0,9.33Z" style="fill:url(#bf);"/><path id="bj" d="M319.89,133.62c-.48-3.41-1.85-6.97-3.8-10.14-2.15-3.49-5.01-6.5-8.14-8.31-.44-.26-.88-.48-1.31-.68-.94-9.14-7.29-19.46-15-23.91-4.08-2.36-7.79-2.63-10.5-1.17h-.03s-9.59,5.16-9.59,5.16l-.15.09c-2.86,1.52-4.62,4.97-4.62,9.89,0,.55.02,1.1.06,1.65,0,.05,0,.09.01.14-.01,0-.01,0-.02,0-5.47-2.82-9.81-.1-9.81,6.3s4.64,14.67,10.37,17.98l28.3,16.33,2.52,1.45c.4.24.8.44,1.19.63,1.18.55,2.32.88,3.38.98,1.44.16,2.74-.09,3.84-.68l.07-.04,9.7-5.21c2.29-1.23,3.7-3.98,3.7-7.93,0-.83-.06-1.67-.18-2.53Z" style="fill:#fff;"/><g id="bk"><path d="M319.89,133.62c.12.85.18,1.7.18,2.53,0,3.95-1.42,6.7-3.7,7.93l-9.7,5.21c1.67-.93,2.87-2.69,3.37-5.14.17-.83.26-1.75.26-2.75,0-7.73-5.42-17.13-12.11-20.99-.45-.26-.88-.48-1.32-.68-.94-9.15-7.29-19.46-15-23.91-1.57-.91-3.08-1.51-4.51-1.81-2.2-.49-4.2-.27-5.84.56l9.59-5.14h.03c2.71-1.47,6.42-1.2,10.5,1.15,7.7,4.45,14.06,14.77,15,23.91.43.2.87.42,1.31.68,3.13,1.81,5.98,4.82,8.14,8.31,1.96,3.18,3.33,6.74,3.8,10.14Z" style="fill:#ccd6dc;"/><path d="M310.3,141.39c0,1-.09,1.92-.26,2.75-.5,2.46-1.7,4.22-3.37,5.14l-.07.04c-1.1.59-2.4.83-3.84.68-1.06-.11-2.19-.43-3.38-.98-.39-.19-.79-.39-1.19-.63l-2.52-1.45-28.3-16.33c-5.73-3.31-10.37-11.36-10.37-17.98s4.34-9.12,9.81-6.3c0,0,0,0,.02,0,0-.04-.01-.09-.01-.14-.04-.56-.06-1.1-.06-1.65,0-4.93,1.77-8.37,4.62-9.89l.15-.09c1.65-.83,3.64-1.05,5.84-.56,1.42.3,2.93.9,4.51,1.81,7.7,4.45,14.06,14.76,15,23.91.43.2.87.42,1.32.68,6.69,3.86,12.11,13.26,12.11,20.99Z" style="fill:#fff;"/></g><g id="bl"><path d="M271.53,94.56l-.15.09c-2.86,1.52-4.62,4.97-4.62,9.89,0,.55.02,1.1.06,1.65,0,.05,0,.09.01.14-.01,0-.01,0-.02,0-5.47-2.82-9.81-.1-9.81,6.3s4.64,14.67,10.37,17.98l28.3,16.33,2.52,1.45c.4.24.8.44,1.19.63,1.18.55,2.32.88,3.38.98,1.44.16,2.74-.09,3.84-.68l.07-.04" style="fill:none; stroke:#3d3d3d; stroke-linecap:round; stroke-linejoin:round; stroke-width:3px;"/><path d="M271.53,94.56c1.65-.83,3.64-1.05,5.84-.56,1.42.3,2.93.9,4.51,1.81,7.7,4.45,14.06,14.76,15,23.91.43.2.87.42,1.32.68,6.69,3.86,12.11,13.26,12.11,20.99,0,1-.09,1.92-.26,2.75-.5,2.46-1.7,4.22-3.37,5.14l9.7-5.21c2.29-1.23,3.7-3.98,3.7-7.93,0-.83-.06-1.67-.18-2.53-.48-3.41-1.85-6.97-3.8-10.14-2.15-3.49-5.01-6.5-8.14-8.31-.44-.26-.88-.48-1.31-.68-.94-9.14-7.29-19.46-15-23.91-4.08-2.36-7.79-2.63-10.5-1.17h-.03s-9.59,5.16-9.59,5.16Z" style="fill:none; stroke:#3d3d3d; stroke-linecap:round; stroke-linejoin:round; stroke-width:3px;"/></g></g></g></g></svg>